<svg width="96" height="48" viewBox="0 0 96 48" fill="none" xmlns="http://www.w3.org/2000/svg">
<g clip-path="url(#clip0_6_110)">
<path d="M13.7394 12.846C13.7394 13.8883 13.4317 14.7173 12.8227 15.3388C12.2136 15.9606 11.3282 16.2682 10.1791 16.2682H4.57783V10.9998H0.00012207V29.1222H4.57783V20.3436H10.6814C13.0111 20.3436 14.8635 19.6843 16.245 18.3593C17.6264 17.0345 18.3173 15.2008 18.3173 12.8461C18.3173 12.1931 18.2608 11.5776 18.1477 11.0062H13.2875C13.5825 11.5147 13.7394 12.1238 13.7394 12.846Z" fill="#414D53"/>
<path d="M33.4635 12.7079C33.4635 14.9935 32.1072 16.1364 29.3944 16.1364H24.3081V11.0061H19.7305V29.1348H24.3081V20.1364H30.9267C31.7869 20.1364 32.371 20.2871 32.6724 20.5949C32.9801 20.9026 33.1307 21.4865 33.1307 22.3406V29.1285H37.7085V21.1914C37.7085 18.9496 36.4777 17.8318 34.0097 17.8318C36.7037 16.8146 38.0475 14.8114 38.0475 11.8287C38.0475 11.5462 38.0286 11.2761 37.9909 11.0061H33.0742C33.3316 11.4645 33.4635 12.036 33.4635 12.7079Z" fill="#414D53"/>
<path d="M44.0317 10.9995H39.4541V29.1281H44.0317V10.9995Z" fill="#414D53"/>
<path d="M71.6922 10.9995H67.2148V29.1281H71.6922V10.9995Z" fill="#414D53"/>
<path d="M62.8637 10.9995L58.8323 24.0419L54.6626 10.9995H50.4241L56.2891 29.1283H61.3127L67.0206 10.9995H62.8637Z" fill="#414D53"/>
<path d="M50.2172 10.9995H45.7399V29.1281H50.2172V10.9995Z" fill="#414D53"/>
<path d="M89.62 11.2818C90.8194 12.7261 91.4159 14.7229 91.4159 17.2535C91.4159 19.7842 90.8193 21.7747 89.62 23.2252C88.4206 24.6695 86.7566 25.398 84.6342 25.398H84.2951C82.1663 25.398 80.5086 24.6759 79.3092 23.2252C78.1097 21.781 77.5133 19.7842 77.5133 17.2535C77.5133 14.7229 78.1098 12.7324 79.3092 11.2818C79.3909 11.1813 79.485 11.0935 79.5666 10.9993H74.2417C73.3689 12.7638 72.9293 14.8422 72.9293 17.2535C72.9293 21.0086 73.9906 23.9851 76.1193 26.1766C78.2481 28.3744 81.0297 29.467 84.4647 29.467C87.8995 29.467 90.6813 28.3681 92.8101 26.1766C94.9324 23.9851 96 21.0087 96 17.2535C96 14.8485 95.5605 12.7638 94.6877 10.9993H89.3627C89.4441 11.0934 89.5383 11.1813 89.62 11.2818Z" fill="#414D53"/>
<path d="M4.57807 34.8736H10.173C11.3284 34.8736 12.2075 35.1813 12.8166 35.7904C13.3316 36.3052 13.6204 36.9898 13.6957 37.8186H18.2923C18.2106 35.6837 17.5262 34.0007 16.2389 32.77C14.8574 31.4576 13.0049 30.8044 10.6753 30.8044H0.000366211V37.8186H4.57807V34.8736Z" fill="#414D53"/>
<path d="M24.3017 34.8736H29.388C31.9689 34.8736 33.319 35.8532 33.4445 37.8186H38.0221C38.0346 37.6365 38.041 37.4418 38.041 37.2535C38.041 35.401 37.3377 33.8625 35.9374 32.638C34.537 31.4135 32.8039 30.8044 30.7442 30.8044H19.724V37.8186H24.3017V34.8736Z" fill="#414D53"/>
<path d="M44.0317 30.7988H39.4541V37.8129H44.0317V30.7988Z" fill="#414D53"/>
<path d="M45.7399 30.7988V37.8129H50.2171V35.791L50.8701 37.8129H55.1088L52.8608 30.7988H45.7399Z" fill="#414D53"/>
<path d="M64.6027 30.7988L62.4301 37.8129H66.587L67.2149 35.8224V37.8129H71.6922V30.7988H64.6027Z" fill="#414D53"/>
<path d="M79.3033 36.7012C80.5027 35.2569 82.1666 34.5285 84.2892 34.5285H84.6283C86.7507 34.5285 88.4147 35.2506 89.6141 36.7012C89.8967 37.0402 90.1416 37.4107 90.3551 37.8126H95.253C94.7256 36.2491 93.9092 34.8927 92.8041 33.7499C90.6753 31.5584 87.8935 30.4595 84.4587 30.4595C81.0238 30.4595 78.242 31.5584 76.1133 33.7499C75.0082 34.8927 74.1982 36.2491 73.6643 37.8126H78.5622C78.7821 37.417 79.027 37.0402 79.3033 36.7012Z" fill="#414D53"/>
</g>
<defs>
<clipPath id="clip0_6_110">
<rect width="96" height="48" fill="white"/>
</clipPath>
</defs>
</svg>
