<svg width="96" height="48" viewBox="0 0 96 48" fill="none" xmlns="http://www.w3.org/2000/svg">
<g clip-path="url(#clip0_6_294)">
<path d="M75.7645 12.5758C77.0468 13.9966 77.6296 15.7212 77.9908 17.5661C78.0165 17.6957 78.0165 17.6957 78.0426 17.828C78.3914 19.7352 78.4438 21.6247 78.434 23.5589C78.432 23.9707 78.4317 24.3825 78.4318 24.7942C78.4293 26.5568 78.3968 28.2592 78.0529 29.9937C78.0283 30.1182 78.0038 30.2427 77.9785 30.3709C77.4869 32.7832 76.5668 35.0941 74.4411 36.5073C71.9741 37.9343 69.092 38.1112 66.3383 37.4999C64.4653 36.9689 62.8539 35.7602 61.8735 34.0703C61.8355 34.0011 61.7976 33.9319 61.7585 33.8605C61.7217 33.797 61.6848 33.7334 61.6469 33.668C60.1177 30.8575 60.0816 27.3227 60.0898 24.1992C60.0904 23.9351 60.0898 23.671 60.0891 23.4068C60.0881 21.6449 60.1622 19.9184 60.4626 18.1796C60.4872 18.0364 60.5117 17.8931 60.537 17.7456C60.9674 15.3323 61.8975 12.9517 63.9641 11.473C67.5336 9.23997 72.7999 9.49935 75.7645 12.5758ZM68.3755 17.8694C68.3391 17.9058 68.3027 17.9422 68.2652 17.9797C68.2535 18.133 68.2493 18.2869 68.2482 18.4407C68.2473 18.5401 68.2463 18.6395 68.2454 18.7419C68.2449 18.8519 68.2444 18.9618 68.2439 19.0751C68.243 19.1902 68.2421 19.3053 68.2412 19.4239C68.2385 19.8068 68.2366 20.1897 68.235 20.5726C68.2345 20.7031 68.2339 20.8336 68.2333 20.968C68.2303 21.6588 68.2282 22.3496 68.2266 23.0404C68.2248 23.7546 68.2198 24.4687 68.2142 25.1828C68.2105 25.7313 68.2092 26.2797 68.2086 26.8282C68.2079 27.0914 68.2062 27.3547 68.2035 27.6179C68.2 27.9865 68.2 28.355 68.2009 28.7236C68.199 28.8324 68.1972 28.9412 68.1954 29.0533C68.1999 29.5489 68.2134 29.8933 68.5307 30.2888C68.8496 30.5915 68.8496 30.5915 69.2578 30.6278C69.622 30.5989 69.7126 30.5418 70.0228 30.3108C70.4492 29.7293 70.377 29.0792 70.3766 28.3847C70.377 28.2781 70.3774 28.1715 70.3777 28.0617C70.3788 27.7099 70.379 27.358 70.3791 27.0061C70.3795 26.7613 70.3798 26.5164 70.3802 26.2715C70.3809 25.7584 70.3811 25.2452 70.381 24.7321C70.381 24.0749 70.3825 23.4176 70.3844 22.7604C70.3856 22.2547 70.3859 21.749 70.3858 21.2433C70.3859 21.001 70.3864 20.7586 70.3873 20.5163C70.3884 20.1774 70.388 19.8385 70.3874 19.4996C70.3883 19.3497 70.3883 19.3497 70.3893 19.1969C70.3861 18.5581 70.335 18.0336 69.9539 17.4972C69.3035 17.0401 68.8329 17.3178 68.3755 17.8694Z" fill="#414D53"/>
<path d="M79.5141 10.5907C81.8796 10.5907 84.2452 10.5907 86.6825 10.5907C86.6858 11.4365 86.6858 11.4365 86.6891 12.2995C86.6965 14.161 86.705 16.0226 86.7142 17.8841C86.7197 19.0129 86.7249 20.1417 86.729 21.2706C86.7327 22.2545 86.7371 23.2385 86.7424 24.2224C86.7451 24.7433 86.7475 25.2643 86.749 25.7852C86.7505 26.2757 86.7529 26.7662 86.7561 27.2568C86.7571 27.4366 86.7577 27.6164 86.758 27.7962C86.7583 28.0423 86.76 28.2883 86.7621 28.5343C86.7627 28.6719 86.7633 28.8094 86.7639 28.9511C86.8003 29.4396 86.8894 29.8974 87.1374 30.3246C87.4157 30.4822 87.6867 30.4926 88.002 30.5072C88.3574 30.4036 88.4684 30.1952 88.6676 29.8903C88.7342 29.5125 88.7342 29.5125 88.7248 29.0913C88.7257 29.012 88.7265 28.9328 88.7273 28.8511C88.7296 28.586 88.7287 28.3211 88.7278 28.0561C88.7288 27.8659 88.7299 27.6756 88.7313 27.4854C88.7343 26.9694 88.7347 26.4533 88.7346 25.9373C88.7349 25.3978 88.7378 24.8584 88.7403 24.3189C88.7448 23.2976 88.7471 22.2763 88.7485 21.2549C88.7502 20.0921 88.7545 18.9292 88.7589 17.7664C88.768 15.3745 88.7737 12.9826 88.7779 10.5907C91.1435 10.5907 93.5091 10.5907 95.9463 10.5907C95.9563 13.1447 95.9644 15.6986 95.9692 18.2526C95.9714 19.4387 95.9745 20.6247 95.9796 21.8107C95.984 22.8453 95.9868 23.8798 95.9878 24.9144C95.9884 25.4614 95.9897 26.0085 95.993 26.5555C95.996 27.072 95.9969 27.5885 95.9962 28.105C95.9963 28.2931 95.9972 28.4811 95.9989 28.6691C96.0135 30.3538 95.7908 31.9896 95.0641 33.5297C95.0328 33.6033 95.0015 33.677 94.9693 33.7528C94.2388 35.3739 92.7849 36.5915 91.1628 37.2449C88.9443 38.0546 86.3482 38.0511 84.146 37.169C83.7279 36.9689 83.3288 36.748 82.9329 36.5073C82.8228 36.4417 82.8228 36.4417 82.7106 36.3747C82.5262 36.2592 82.5262 36.2592 82.2712 36.0662C82.2712 35.9934 82.2712 35.9206 82.2712 35.8456C82.2006 35.8161 82.1301 35.7865 82.0575 35.756C81.83 35.6251 81.83 35.6251 81.7197 35.2942C81.647 35.2942 81.5742 35.2942 81.4992 35.2942C79.1379 32.4863 79.4807 28.4784 79.4917 25.0542C79.4931 24.5442 79.4932 24.0343 79.4935 23.5243C79.4942 22.5623 79.496 21.6004 79.4982 20.6385C79.5007 19.5418 79.5019 18.445 79.503 17.3483C79.5053 15.0958 79.5093 12.8432 79.5141 10.5907Z" fill="#414D53"/>
<path d="M-0.000488281 10.5907C5.09461 10.5907 10.1897 10.5907 15.4392 10.5907C15.4392 17.1347 15.4392 17.1347 14.0262 20.082C13.6172 20.9372 13.2197 21.7972 12.8269 22.6599C12.4547 23.4765 12.0731 24.2846 11.6667 25.0848C10.7823 26.8479 9.97468 28.6491 9.15305 30.4417C11.2275 30.4781 13.3019 30.5145 15.4392 30.552C15.4392 32.8084 15.4392 35.0648 15.4392 37.3896C10.3441 37.3896 5.24901 37.3896 -0.000488281 37.3896C-0.000488281 30.7726 -0.000488281 30.7726 0.881781 29.1183C1.01768 28.8242 1.15002 28.5283 1.27467 28.2292C1.51676 27.6587 1.77274 27.0998 2.05354 26.5474C2.32456 26.0137 2.58106 25.477 2.82596 24.931C3.27239 23.944 3.73372 22.9637 4.22475 21.9982C4.79955 20.8591 5.31721 19.6926 5.84454 18.5311C6.11749 17.9306 6.11749 17.9306 6.39596 17.318C4.28513 17.318 2.1743 17.318 -0.000488281 17.318C-0.000488281 15.098 -0.000488281 12.878 -0.000488281 10.5907Z" fill="#414D53"/>
<path d="M40.253 12.2449C41.9754 14.0053 42.569 16.3638 42.569 18.7517C40.4946 18.7517 38.4201 18.7517 36.2828 18.7517C36.1737 18.3149 36.1737 18.3149 36.0623 17.8694C35.8943 17.5819 35.8943 17.5819 35.6211 17.4283C35.2427 17.3818 34.9798 17.3542 34.6424 17.5454C34.378 18.0007 34.3746 18.4023 34.5045 18.9033C35.0419 19.9805 36.2212 20.6985 37.1651 21.3985C37.3926 21.5684 37.6201 21.7384 37.8475 21.9085C37.9548 21.9887 38.0622 22.0689 38.1727 22.1515C38.5724 22.4546 38.9638 22.7672 39.3535 23.0829C39.5127 23.2103 39.676 23.3327 39.8429 23.4499C39.9055 23.5008 39.968 23.5517 40.0325 23.6041C40.0325 23.6769 40.0325 23.7497 40.0325 23.8247C40.0957 23.8516 40.159 23.8784 40.2242 23.9061C41.491 24.6128 42.4474 26.4787 42.8622 27.8299C43.3885 29.8895 43.1075 32.1346 42.0452 33.9639C40.7407 35.9181 38.978 37.1889 36.6585 37.6618C34.2575 38.0363 31.8974 37.689 29.876 36.2674C28.0216 34.7924 26.8999 32.8031 26.5779 30.4417C26.5779 30.005 26.5779 29.5683 26.5779 29.1183C28.8343 29.1183 31.0907 29.1183 33.4155 29.1183C33.5246 29.4459 33.6338 29.7734 33.7463 30.1109C33.9224 30.3534 33.9224 30.3534 34.1874 30.4417C34.701 30.4837 34.701 30.4837 35.18 30.3314C35.2489 30.1282 35.2489 30.1282 35.2765 29.8834C35.2899 29.8025 35.3032 29.7216 35.317 29.6383C35.2591 28.9898 34.9412 28.5041 34.455 28.084C34.3051 27.9653 34.1538 27.8483 34.0013 27.7329C33.8835 27.6407 33.8835 27.6407 33.7633 27.5467C33.6081 27.4256 33.4525 27.3052 33.2962 27.1855C33.0273 26.9789 32.7635 26.7661 32.4987 26.5542C32.2366 26.3461 32.0843 26.2484 31.7612 26.1407C31.6351 26.0146 31.5095 25.888 31.3868 25.7585C31.087 25.4718 30.7488 25.2339 30.415 24.9883C30.3497 24.9318 30.2845 24.8754 30.2172 24.8173C30.2172 24.7445 30.2172 24.6717 30.2172 24.5967C30.1563 24.5722 30.0953 24.5478 30.0324 24.5226C28.4025 23.5912 27.4388 21.3861 26.8997 19.7024C26.4133 17.7838 26.7002 15.6143 27.6484 13.8871C28.7519 12.1081 30.3892 10.8388 32.4298 10.3219C35.2969 9.66469 38.0656 10.2445 40.253 12.2449Z" fill="#414D53"/>
<path d="M56.1502 11.6177C57.0504 12.3359 57.0504 12.3359 57.347 12.7963C57.347 12.8691 57.347 12.9419 57.347 13.0169C57.4198 13.0169 57.4926 13.0169 57.5676 13.0169C57.79 13.4203 58.0102 13.8248 58.2293 14.23C58.2723 14.3086 58.3154 14.3873 58.3598 14.4683C59.0627 15.8003 59.2218 17.2622 59.2218 18.7517C57.1474 18.7517 55.0729 18.7517 52.9356 18.7517C52.8265 18.4241 52.7173 18.0966 52.6048 17.7591C52.3063 17.3931 52.3063 17.3931 51.8948 17.38C51.5059 17.4001 51.5059 17.4001 51.2331 17.5937C50.994 17.9762 50.9743 18.3188 51.0608 18.7517C51.2686 19.1187 51.2686 19.1187 51.502 19.4134C51.502 19.4861 51.502 19.5589 51.502 19.6339C51.5747 19.6339 51.6475 19.6339 51.7225 19.6339C51.9094 19.8146 52.0928 19.9989 52.2739 20.1853C52.9409 20.7674 53.645 21.2989 54.3555 21.8258C55.3696 22.5787 56.3497 23.364 57.2367 24.2658C57.3022 24.3288 57.3678 24.3918 57.4353 24.4567C57.5938 24.6095 57.7463 24.7684 57.8984 24.9275C57.8984 25.0003 57.8984 25.0731 57.8984 25.1481C57.9712 25.1481 58.044 25.1481 58.119 25.1481C58.9653 26.2561 59.628 27.7064 59.6629 29.1183C59.6693 29.3053 59.6693 29.3053 59.6759 29.4961C59.7154 31.6825 59.0911 33.2845 57.8984 35.0736C57.8256 35.0736 57.7528 35.0736 57.6778 35.0736C57.6548 35.1353 57.6318 35.197 57.6081 35.2606C57.4042 35.6042 57.1236 35.8156 56.8094 36.0524C56.7451 36.1008 56.6809 36.1492 56.6148 36.1991C54.7802 37.5488 52.5694 38.0109 50.3233 37.7549C48.0445 37.3915 46.1119 36.3595 44.7367 34.4822C43.7612 32.9291 43.0233 31.0968 43.1204 29.2286C43.2307 29.1183 43.2307 29.1183 43.4993 29.1051C43.6782 29.1054 43.6782 29.1054 43.8608 29.1058C43.9954 29.1058 44.1301 29.1058 44.2689 29.1058C44.4169 29.1064 44.565 29.107 44.7131 29.1075C44.8637 29.1078 45.0144 29.1079 45.1651 29.108C45.5623 29.1084 45.9595 29.1095 46.3568 29.1107C46.7619 29.1119 47.1669 29.1124 47.572 29.1129C48.3674 29.1141 49.1627 29.116 49.958 29.1183C50.032 29.2789 50.1054 29.4398 50.1786 29.6008C50.2195 29.6904 50.2604 29.7799 50.3026 29.8722C50.3991 30.1109 50.3991 30.1109 50.3991 30.3314C50.8144 30.4699 51.1781 30.5031 51.6122 30.4417C51.865 30.2979 51.865 30.2979 51.9431 30.0006C52.0098 29.5115 51.9264 29.1495 51.6536 28.7371C51.0517 28.0345 50.3341 27.4846 49.5929 26.9397C46.6019 24.7345 46.6019 24.7345 45.5466 23.4939C45.5466 23.4211 45.5466 23.3483 45.5466 23.2733C45.4739 23.2733 45.4011 23.2733 45.3261 23.2733C44.4938 22.2314 43.9524 21.1229 43.5615 19.8545C43.5323 19.7612 43.503 19.668 43.4728 19.5719C43.0007 17.7093 43.3326 15.6039 44.2211 13.9354C45.3401 12.0912 47.012 10.8378 49.0964 10.3029C51.5733 9.75918 54.0889 10.1037 56.1502 11.6177Z" fill="#414D53"/>
<path d="M16.7627 10.5907C19.7106 10.5907 22.6585 10.5907 25.6957 10.5907C25.6957 19.4343 25.6957 28.278 25.6957 37.3896C22.7478 37.3896 19.7999 37.3896 16.7627 37.3896C16.7627 28.546 16.7627 19.7023 16.7627 10.5907Z" fill="#414D53"/>
</g>
<defs>
<clipPath id="clip0_6_294">
<rect width="96" height="48" fill="white"/>
</clipPath>
</defs>
</svg>
