<svg width="200" height="200" viewBox="0 0 200 200" fill="none" xmlns="http://www.w3.org/2000/svg">
<path fill-rule="evenodd" clip-rule="evenodd" d="M107.737 37.4674L104.644 38.2408L107.737 38.9043V37.4674ZM113.037 53.6119H102.322L107.515 41.2176L113.037 53.6119ZM100.404 54.0279L100.387 53.306H99.9952C84.5723 53.306 70.5795 59.6311 60.4309 69.8104C50.29 80.0021 44.001 94.0667 44.001 109.556C44.001 110.92 44.0524 112.272 44.1491 113.616H44.8607C44.764 112.27 44.7126 110.92 44.7126 109.556C44.7126 94.2657 50.9276 80.3814 60.943 70.32C70.9505 60.2594 84.7733 54.0272 99.9959 54.0272C100.128 54.0279 100.27 54.0279 100.404 54.0279ZM72.6129 89.5593H131.708C132.148 90.6676 133.139 91.4395 133.139 91.4395C133.139 91.4395 134.026 90.4436 134.363 89.5593H135.905C136.117 89.8761 136.304 90.3226 136.6 91.0315L136.6 91.0316L136.6 91.0319C136.92 91.7985 137.368 92.8722 138.116 94.421H71.8421C71.952 94.3156 72.7236 90.4436 72.6129 89.5593ZM105.914 100.507C104.432 99.573 99.0947 96.2075 92.8294 100.841H57.2635C57.9963 100.177 58.6856 98.9262 59.3567 97.7081L59.3567 97.708C59.6934 97.0969 60.0255 96.4941 60.3561 95.9781H138.885C139.435 97.4095 140.878 99.9563 141.651 100.728H106.307C106.264 100.728 106.13 100.644 105.914 100.507ZM116.907 83.5885H120.885C120.885 84.8029 121.658 86.6832 122.874 88.1208H72.7219C72.7219 88.1208 72.6112 87.1249 72.5076 86.5708C72.28 85.2447 71.6237 84.1364 71.2925 83.5885H82.9953C81.8971 84.6905 81.8971 86.0166 81.8971 86.2344C81.8971 86.6824 82.1114 86.6824 82.1114 86.6824H84.7692L85.5424 83.5885H116.246L116.687 84.4728H116.907V83.5885ZM115.018 55.3665L114.857 56.0697C124.126 58.6735 132.421 63.6616 139.052 70.3193C149.071 80.383 155.274 94.2633 155.274 109.56C155.274 110.926 155.224 112.279 155.123 113.614L155.851 113.619C155.946 112.273 156 110.926 156 109.56C156 94.0643 149.704 80.0052 139.556 69.8104C132.834 63.0638 124.417 58.0085 115.018 55.3665ZM59.9185 106.705V102.503H91.1743C89.9639 104.158 89.0769 106.705 89.0769 106.705H59.9185ZM138.775 102.395H107.847C108.291 102.834 109.622 105.162 110.171 106.706H138.774L138.775 102.395ZM88.1923 113.567C88.1923 113.567 58.8157 113.674 58.8157 113.567C59.4789 112.571 59.9146 109.805 59.9146 108.923H88.635C88.303 110.355 88.1923 113.567 88.1923 113.567ZM140.422 113.564C139.318 112.13 138.877 109.362 138.877 108.922C138.877 108.922 110.714 109.035 110.714 108.922C110.733 109.1 110.764 109.343 110.799 109.625L110.799 109.626C110.96 110.914 111.224 113.021 111.046 113.564H140.422ZM91.5066 75.4058H114.035C114.359 78.6367 115.838 81.9766 115.912 82.145C115.914 82.1494 115.915 82.1516 115.915 82.1516H92.0599V76.3993L91.5066 75.4058ZM91.7253 73.0799H90.2943C90.5142 73.5768 90.542 73.604 90.57 73.6313C90.5979 73.6586 90.6261 73.6861 90.8462 74.1827H113.712C113.712 74.1827 113.273 73.965 113.044 72.3002V68.5389L111.726 67.9895V65.6706H103.445V67.9895L102.002 68.7614V70.644C102.002 70.644 101.562 70.7532 100.898 69.5411C100.348 68.4266 100.125 67.3276 100.125 67.3276C99.468 69.9821 98.9052 70.8625 98.9052 70.8625C98.1367 72.4094 97.3628 73.0799 97.1461 73.0799H96.2669C96.2669 73.0799 96.1555 72.4094 97.0347 71.6375L94.2724 65.6706H93.8329L91.0652 71.6375C91.8368 72.3009 91.7253 73.0799 91.7253 73.0799ZM120.239 123.707H124.965V123.708H124.962V124.114C124.416 124.208 124.01 124.375 123.727 124.615C123.33 124.973 122.977 125.522 122.666 126.259L117.324 138.896H116.909L111.173 126.094C110.877 125.435 110.671 125.037 110.549 124.89C110.363 124.663 110.134 124.487 109.855 124.359C109.58 124.228 109.212 124.151 108.744 124.114V123.708H115.001V124.114C114.292 124.177 113.833 124.297 113.62 124.46C113.412 124.629 113.305 124.844 113.305 125.107C113.305 125.473 113.477 126.041 113.826 126.815L117.721 135.52L121.334 126.926C121.691 126.078 121.868 125.489 121.868 125.162C121.868 124.95 121.757 124.746 121.539 124.552C121.319 124.363 120.953 124.227 120.433 124.145L120.239 124.113V123.707ZM44.0502 123.703V124.118H44.6348C45.2107 124.118 45.6624 124.264 45.95 124.581C46.169 124.825 46.2666 125.417 46.2666 126.337V135.923C46.2666 136.757 46.1984 137.308 46.0231 137.557C45.7417 137.956 45.2731 138.142 44.6348 138.142H44.0502V138.557H51.2841C53.0105 138.557 54.2945 138.406 55.1324 138.093C55.9765 137.783 56.6244 137.285 57.1053 136.605C57.5869 135.933 57.836 135.223 57.836 134.484C57.836 133.513 57.4656 132.691 56.7399 132.02C56.2146 131.539 55.4169 131.19 54.353 130.971C55.2602 130.685 55.9541 130.264 56.4233 129.679C56.8863 129.087 57.1296 128.426 57.1296 127.679C57.1296 126.807 56.8231 126.033 56.2284 125.361C55.6337 124.695 54.7791 124.233 53.6466 123.971C52.9015 123.796 51.9136 123.703 50.6752 123.703H44.0502ZM50.4803 124.435C51.8801 124.435 52.9376 124.747 53.671 125.361C54.3982 125.973 54.767 126.713 54.767 127.581C54.767 128.145 54.6225 128.673 54.3286 129.142C54.0418 129.616 53.6186 129.963 53.0621 130.191C52.5118 130.422 51.6783 130.532 50.5777 130.532L50.5096 130.532C50.1137 130.532 49.7441 130.532 49.4086 130.508C49.047 130.484 48.7157 130.439 48.4344 130.386V124.679C49.0392 124.519 49.7282 124.435 50.4803 124.435ZM50.4316 131.288C51.5009 131.288 52.4331 131.445 53.1595 131.752C53.8867 132.059 54.4122 132.486 54.7427 133.02C55.0669 133.551 55.2055 134.103 55.2055 134.679C55.2055 135.554 54.8666 136.28 54.1581 136.874C53.4434 137.469 52.3856 137.776 51.0161 137.776C50.1728 137.776 49.3081 137.682 48.4344 137.484V131.386C48.6362 131.346 48.9084 131.328 49.2381 131.313L49.2915 131.311L49.2925 131.311C49.6163 131.3 49.986 131.288 50.4316 131.288V131.288ZM65.3685 128.525H68.8961L68.8953 134.599C68.8953 135.763 68.9187 136.471 68.9763 136.73C69.034 136.991 69.126 137.17 69.2468 137.271C69.3738 137.376 69.5173 137.424 69.684 137.424C69.9202 137.424 70.179 137.366 70.4728 137.238L70.6279 137.622L67.5376 138.859H67.0309V136.736C66.1393 137.671 65.4597 138.257 64.9936 138.497C64.5275 138.742 64.0333 138.859 63.515 138.859C62.9336 138.859 62.4324 138.7 62.0069 138.375C61.5868 138.049 61.2875 137.631 61.1207 137.119C60.9547 136.608 60.8736 135.886 60.8736 134.951V130.474C60.8736 129.998 60.8222 129.669 60.7185 129.486C60.6094 129.303 60.4543 129.165 60.247 129.064C60.0397 128.967 59.6655 128.921 59.1246 128.93V128.523H62.7504V135.236C62.7504 136.171 62.9172 136.783 63.2508 137.074C63.5899 137.369 63.9936 137.515 64.4651 137.515C64.7933 137.515 65.1557 137.413 65.5641 137.22C65.9787 137.021 66.4674 136.645 67.0317 136.091V130.407C67.0317 129.839 66.9226 129.455 66.7036 129.252C66.4908 129.054 66.0481 128.947 65.3685 128.931V128.525ZM84.6704 130.354V128.227H84.1833L81.0641 129.454L81.2348 129.849C81.5263 129.739 81.7827 129.685 81.9885 129.685C82.1888 129.685 82.3455 129.734 82.46 129.827C82.5754 129.92 82.6658 130.102 82.7211 130.365C82.7765 130.627 82.8014 131.358 82.8014 132.562V136.288C82.8014 137.017 82.711 137.51 82.5302 137.772C82.3447 138.028 81.9823 138.161 81.46 138.161H81.234V138.553H86.3485V138.161C85.7858 138.161 85.414 138.109 85.2285 138.012C85.0422 137.913 84.8972 137.758 84.7912 137.543C84.711 137.382 84.6704 136.964 84.6704 136.288V130.998C85.5543 130.05 86.449 129.576 87.343 129.576C87.9206 129.576 88.3375 129.781 88.5792 130.192C88.8247 130.606 88.9455 131.268 88.9455 132.181V136.289C88.9455 136.864 88.9307 137.211 88.9003 137.317C88.8301 137.593 88.6945 137.802 88.5036 137.945C88.3126 138.087 87.9704 138.162 87.4888 138.162H87.2729V138.554H92.3912V138.162C91.894 138.162 91.5526 138.111 91.3718 138.009C91.1855 137.902 91.0499 137.763 90.9696 137.579C90.8644 137.354 90.8083 136.921 90.8083 136.289V132.007C90.8083 131.101 90.728 130.429 90.562 129.991C90.3258 129.364 89.9992 128.911 89.5877 128.64C89.1855 128.366 88.6984 128.229 88.131 128.229C87.0367 128.229 85.8816 128.938 84.6704 130.354ZM89.1702 154.028V151.901H88.7127L85.7844 153.121L85.7845 153.113C85.7845 152.798 85.6566 152.511 85.401 152.267C85.1454 152.022 84.8188 151.899 84.4306 151.899C83.5725 151.899 82.7346 152.649 81.917 154.157L81.9178 151.902H81.4736L78.5212 153.125L78.6279 153.523C78.9039 153.414 79.154 153.359 79.3692 153.359C79.5578 153.359 79.7113 153.409 79.8337 153.512C79.9615 153.613 80.048 153.776 80.0893 153.998C80.1353 154.222 80.1603 154.917 80.1603 156.082V159.97C80.1603 160.557 80.14 160.908 80.1096 161.035C80.0379 161.289 79.9155 161.474 79.7363 161.591C79.4915 161.753 79.1229 161.836 78.6279 161.836V162.227H83.6185V161.836C83.1797 161.836 82.8477 161.769 82.6123 161.637C82.3777 161.505 82.214 161.342 82.122 161.143C81.9841 160.858 81.9178 160.436 81.9178 159.884V155.078C82.26 154.391 82.5866 153.896 82.9085 153.598C83.0565 153.451 83.1953 153.381 83.3223 153.381C83.4704 153.381 83.7003 153.507 84.0121 153.759C84.3192 154.009 84.5998 154.136 84.8445 154.136C85.1048 154.136 85.3246 154.039 85.5086 153.84C85.6843 153.651 85.7761 153.423 85.7839 153.151L85.9341 153.523C86.2116 153.414 86.4501 153.359 86.6449 153.359C86.8297 153.359 86.9809 153.408 87.0876 153.502C87.1999 153.594 87.2825 153.773 87.3316 154.04C87.3901 154.301 87.4142 155.033 87.4142 156.236V159.962C87.4142 160.691 87.3269 161.183 87.1562 161.444C86.9809 161.703 86.6449 161.834 86.1492 161.834H85.9333V162.226H90.7563V161.834C90.2255 161.834 89.8756 161.783 89.7002 161.684C89.5248 161.587 89.3892 161.432 89.2864 161.218C89.2084 161.057 89.1702 160.638 89.1702 159.962V154.673C90.0073 153.724 90.8537 153.249 91.6955 153.249C92.2411 153.249 92.63 153.455 92.8638 153.867C93.0922 154.28 93.2091 154.942 93.2091 155.855V159.963C93.2091 160.538 93.1943 160.884 93.1655 160.99C93.0922 161.267 92.9659 161.475 92.7859 161.619C92.6058 161.762 92.2894 161.836 91.8319 161.836H91.6324V162.228H96.4553V161.836C95.9877 161.836 95.6666 161.785 95.4967 161.683C95.3213 161.577 95.195 161.436 95.1171 161.251C95.015 161.028 94.9612 160.594 94.9612 159.963V155.681C94.9612 154.776 94.8887 154.104 94.7328 153.666C94.5092 153.037 94.2029 152.584 93.8178 152.311C93.4336 152.04 92.9761 151.903 92.4406 151.903C91.4032 151.901 90.3136 152.61 89.1702 154.028ZM132.788 151.901V154.028C133.928 152.61 135.02 151.901 136.056 151.903C136.59 151.903 137.047 152.04 137.428 152.311C137.814 152.584 138.122 153.037 138.347 153.666C138.504 154.104 138.579 154.776 138.579 155.681V159.963C138.579 160.594 138.631 161.028 138.733 161.251C138.807 161.436 138.936 161.577 139.111 161.683C139.28 161.785 139.602 161.836 140.072 161.836V162.228H135.245V161.836H135.449C135.903 161.836 136.224 161.762 136.402 161.619C136.583 161.475 136.708 161.267 136.779 160.99C136.807 160.884 136.822 160.538 136.822 159.963V155.855C136.822 154.942 136.707 154.28 136.479 153.867C136.246 153.455 135.856 153.249 135.311 153.249C134.468 153.249 133.624 153.724 132.789 154.673V159.962C132.789 160.638 132.826 161.057 132.904 161.218C133 161.432 133.14 161.587 133.317 161.684C133.492 161.783 133.843 161.834 134.372 161.834V162.226H129.55V161.834H129.763C130.255 161.834 130.592 161.703 130.771 161.444C130.942 161.183 131.027 160.691 131.027 159.962V156.236C131.027 155.033 131.002 154.301 130.947 154.04C130.897 153.773 130.815 153.594 130.702 153.502C130.594 153.408 130.447 153.359 130.26 153.359C130.065 153.359 129.823 153.414 129.55 153.523L129.389 153.125L132.33 151.901H132.788ZM55.26 154.028V151.901H54.7986L51.8595 153.125L52.0216 153.523C52.2975 153.414 52.5376 153.359 52.7293 153.359C52.9148 153.359 53.0652 153.408 53.1728 153.502C53.2866 153.594 53.3645 153.773 53.4183 154.04C53.4721 154.301 53.4962 155.033 53.4962 156.236V159.962C53.4962 160.691 53.4121 161.183 53.2383 161.444C53.0644 161.703 52.7285 161.834 52.2313 161.834H52.0208V162.226H56.8422V161.834C56.3083 161.834 55.9607 161.783 55.7807 161.684C55.6069 161.587 55.4689 161.432 55.3731 161.218C55.2951 161.057 55.2593 160.638 55.2593 159.962V154.673C56.0932 153.724 56.9389 153.249 57.7845 153.249C58.3239 153.249 58.7136 153.455 58.9474 153.867C59.175 154.28 59.295 154.942 59.295 155.855V159.963C59.295 160.538 59.2771 160.884 59.2475 160.99C59.1812 161.267 59.055 161.475 58.8695 161.619C58.6957 161.762 58.3714 161.836 57.9225 161.836H57.7121V162.228H62.5459V161.836C62.0721 161.836 61.7486 161.785 61.5803 161.683C61.4064 161.577 61.2802 161.436 61.2022 161.251C61.1009 161.028 61.0464 160.594 61.0464 159.963V155.681C61.0464 154.776 60.9747 154.104 60.8188 153.666C60.5912 153.037 60.2849 152.584 59.9014 152.311C59.5172 152.04 59.062 151.903 58.5281 151.903C57.4907 151.901 56.3995 152.61 55.26 154.028ZM103.425 60.4756C103.425 60.4756 102.322 60.147 102.322 58.4822L103.425 58.483V54.8334H111.714V58.7047H112.811C112.876 59.6986 112.557 59.9271 112.245 60.1505C112.001 60.3253 111.762 60.497 111.714 61.0298V64.3469H103.316L103.425 60.4756ZM123.818 151.898C123.01 151.898 122.224 152.119 121.504 152.557C120.777 152.99 120.194 153.672 119.75 154.581C119.307 155.489 119.092 156.388 119.092 157.313C119.092 158.572 119.461 159.709 120.188 160.728C121.056 161.93 122.222 162.533 123.696 162.533C124.6 162.533 125.421 162.294 126.156 161.825C126.892 161.357 127.463 160.673 127.885 159.752C128.302 158.831 128.494 157.921 128.494 157.02C128.494 155.746 128.137 154.615 127.374 153.63C126.477 152.477 125.296 151.898 123.818 151.898ZM123.477 152.606C124.258 152.606 124.898 152.95 125.401 153.654C126.15 154.676 126.521 156.092 126.521 157.874C126.521 159.299 126.313 160.286 125.864 160.874C125.414 161.456 124.845 161.752 124.159 161.752C123.236 161.752 122.482 161.224 121.918 160.167C121.354 159.11 121.065 157.847 121.065 156.386C121.065 155.483 121.194 154.743 121.431 154.167C121.663 153.588 121.975 153.181 122.356 152.947C122.736 152.718 123.103 152.606 123.477 152.606ZM147.932 129.02C148.594 128.496 149.51 128.24 150.708 128.24C151.622 128.24 152.381 128.379 152.974 128.679C153.417 128.907 153.736 129.27 153.948 129.752C154.082 130.068 154.167 130.706 154.167 131.679V135.069C154.167 136.027 154.176 136.607 154.216 136.825C154.252 137.037 154.326 137.192 154.411 137.264C154.498 137.34 154.592 137.386 154.703 137.386C154.825 137.386 154.932 137.34 155.02 137.288C155.175 137.194 155.472 136.943 155.921 136.508V137.118C155.079 138.212 154.278 138.752 153.509 138.752C153.142 138.752 152.854 138.635 152.633 138.386C152.412 138.139 152.298 137.715 152.292 137.118C151.228 137.912 150.562 138.358 150.294 138.484C149.892 138.668 149.461 138.776 149.003 138.776C148.287 138.776 147.688 138.518 147.225 138.045C146.761 137.572 146.543 136.964 146.543 136.191C146.543 135.701 146.658 135.281 146.884 134.923C147.192 134.428 147.729 133.95 148.492 133.508C149.254 133.07 150.512 132.549 152.292 131.923V131.508C152.292 130.51 152.133 129.833 151.804 129.459C151.477 129.088 151.016 128.898 150.392 128.898C149.917 128.898 149.525 129.012 149.247 129.264C148.964 129.511 148.833 129.798 148.833 130.118L148.857 130.752C148.857 131.088 148.766 131.35 148.589 131.532C148.409 131.716 148.166 131.801 147.883 131.801C147.599 131.801 147.378 131.724 147.201 131.532C147.021 131.343 146.933 131.08 146.933 130.752C146.933 130.122 147.268 129.546 147.932 129.02ZM152.292 136.41V132.581C151.156 133.02 150.434 133.329 150.099 133.508C149.505 133.828 149.062 134.156 148.809 134.508C148.551 134.861 148.443 135.259 148.443 135.679C148.443 136.2 148.585 136.625 148.906 136.971C149.232 137.315 149.604 137.508 150.026 137.508C150.598 137.508 151.362 137.142 152.292 136.41ZM97.488 128.24C96.2924 128.24 95.3762 128.496 94.7114 129.02C94.0466 129.546 93.7128 130.122 93.7128 130.752C93.7128 131.08 93.8007 131.343 93.9807 131.532C94.1561 131.724 94.3767 131.801 94.6627 131.801C94.9441 131.801 95.1898 131.716 95.369 131.532C95.5444 131.35 95.637 131.088 95.637 130.752L95.5882 130.118C95.5882 129.798 95.7406 129.511 96.0267 129.264C96.3033 129.012 96.6952 128.898 97.1714 128.898C97.7942 128.898 98.2567 129.088 98.5841 129.459C98.9114 129.833 99.0712 130.51 99.0712 131.508V131.923C97.2942 132.549 96.0331 133.07 95.2716 133.508C94.5101 133.95 93.9727 134.428 93.6641 134.923C93.438 135.281 93.3231 135.701 93.3231 136.191C93.3231 136.964 93.5437 137.572 94.0051 138.045C94.4665 138.518 95.0637 138.776 95.7831 138.776C96.2398 138.776 96.6726 138.668 97.074 138.484C97.3507 138.358 98.0097 137.912 99.0712 137.118C99.0806 137.715 99.1909 138.139 99.4122 138.386C99.6289 138.635 99.9243 138.752 100.289 138.752C101.06 138.752 101.88 138.212 102.725 137.118V136.508C102.273 136.943 101.96 137.194 101.799 137.288C101.711 137.34 101.603 137.386 101.483 137.386C101.371 137.386 101.278 137.34 101.19 137.264C101.103 137.192 101.033 137.037 100.995 136.825C100.953 136.607 100.947 136.027 100.947 135.069V131.679C100.947 130.706 100.886 130.068 100.752 129.752C100.541 129.27 100.196 128.907 99.7532 128.679C99.1624 128.379 98.4062 128.24 97.488 128.24ZM99.0712 132.581V136.41C98.1429 137.142 97.408 137.508 96.8304 137.508C96.4119 137.508 96.0335 137.315 95.71 136.971C95.3827 136.625 95.2229 136.2 95.2229 135.679C95.2229 135.259 95.3531 134.861 95.6126 134.508C95.8628 134.156 96.2829 133.828 96.8791 133.508C97.2112 133.329 97.938 133.02 99.0712 132.581ZM72.4017 82.3686C75.167 78.8321 76.1553 75.6259 76.1553 75.6259H77.9261C79.4702 79.3863 81.7959 82.3686 81.7959 82.3686H72.4017ZM101.264 151.898C100.135 151.898 99.2562 152.155 98.6335 152.679C98.006 153.205 97.7079 153.783 97.7079 154.411C97.7079 154.742 97.7816 155.001 97.9515 155.191C98.1167 155.383 98.3441 155.484 98.6091 155.484C98.878 155.484 99.0771 155.4 99.2424 155.215C99.4084 155.033 99.5103 154.771 99.5103 154.435L99.4859 153.801C99.4859 153.479 99.606 153.194 99.8756 152.947C100.14 152.696 100.498 152.581 100.947 152.581C101.533 152.581 102.002 152.749 102.311 153.118C102.62 153.493 102.774 154.192 102.774 155.191V155.581C101.099 156.21 99.8864 156.752 99.1693 157.191C98.4484 157.632 97.9507 158.09 97.6592 158.581C97.448 158.941 97.3426 159.36 97.3426 159.85C97.3426 160.624 97.5417 161.254 97.9758 161.728C98.4108 162.202 98.9799 162.435 99.6564 162.435C100.091 162.435 100.494 162.35 100.874 162.167C101.13 162.04 101.775 161.571 102.774 160.777C102.78 161.374 102.885 161.8 103.091 162.045C103.302 162.297 103.57 162.435 103.919 162.435C104.641 162.435 105.391 161.872 106.184 160.777V160.167C105.759 160.605 105.48 160.876 105.332 160.972C105.247 161.022 105.151 161.045 105.039 161.045C104.936 161.045 104.832 161.023 104.747 160.947C104.666 160.875 104.612 160.722 104.576 160.508C104.541 160.293 104.528 159.71 104.528 158.752V155.337C104.528 154.365 104.458 153.726 104.333 153.411C104.13 152.928 103.824 152.566 103.407 152.337C102.851 152.038 102.128 151.898 101.264 151.898ZM102.774 156.24V160.069C101.894 160.798 101.17 161.167 100.631 161.167C100.233 161.167 99.8889 160.999 99.5834 160.655C99.2825 160.309 99.1206 159.861 99.1206 159.337C99.1206 158.919 99.2428 158.543 99.4859 158.191C99.7244 157.839 100.117 157.488 100.679 157.167C100.994 156.988 101.699 156.681 102.774 156.24ZM142.256 152.679C142.884 152.155 143.757 151.898 144.887 151.898C145.752 151.898 146.451 152.038 147.006 152.337C147.423 152.566 147.756 152.928 147.955 153.411C148.083 153.726 148.126 154.365 148.126 155.337V158.752C148.126 159.71 148.139 160.293 148.175 160.508C148.211 160.722 148.288 160.875 148.37 160.947C148.45 161.023 148.531 161.045 148.637 161.045C148.75 161.045 148.87 161.022 148.954 160.972C149.103 160.876 149.383 160.605 149.807 160.167V160.777C149.013 161.872 148.244 162.435 147.517 162.435C147.173 162.435 146.899 162.297 146.689 162.045C146.484 161.8 146.379 161.374 146.372 160.777C145.37 161.571 144.755 162.04 144.497 162.167C144.119 162.35 143.713 162.435 143.279 162.435C142.602 162.435 142.035 162.202 141.598 161.728C141.162 161.254 140.941 160.624 140.941 159.85C140.941 159.36 141.045 158.941 141.257 158.581C141.548 158.09 142.07 157.632 142.792 157.191C143.512 156.752 144.695 156.21 146.372 155.581V155.191C146.372 154.192 146.22 153.493 145.91 153.118C145.603 152.749 145.158 152.581 144.57 152.581C144.123 152.581 143.759 152.696 143.498 152.947C143.229 153.194 143.109 153.479 143.109 153.801V154.435C143.109 154.771 143.032 155.033 142.865 155.215C142.698 155.4 142.477 155.484 142.207 155.484C141.941 155.484 141.741 155.383 141.574 155.191C141.408 155.001 141.306 154.742 141.306 154.411C141.306 153.783 141.629 153.205 142.256 152.679ZM146.372 160.069V156.24C145.297 156.681 144.617 156.988 144.302 157.167C143.742 157.488 143.349 157.839 143.109 158.191C142.864 158.543 142.743 158.919 142.743 159.337C142.743 159.861 142.899 160.309 143.206 160.655C143.513 160.999 143.856 161.167 144.253 161.167C144.797 161.167 145.491 160.798 146.372 160.069ZM76.2988 128.215C74.9262 128.215 73.7914 128.693 72.8889 129.654C71.9762 130.611 71.5249 131.962 71.5249 133.679C71.5249 135.263 71.954 136.52 72.8401 137.459C73.7263 138.397 74.8105 138.874 76.0552 138.874C77.1931 138.874 78.1465 138.453 78.9049 137.63C79.6687 136.811 80.1091 135.9 80.2689 134.898L79.9279 134.679C79.5912 135.554 79.1633 136.171 78.6613 136.532C78.1586 136.894 77.5865 137.069 76.9077 137.069C75.8929 137.069 75.0057 136.645 74.2528 135.801C73.4999 134.951 73.1277 133.805 73.1324 132.313H80.2689C80.2689 131.071 79.8912 130.08 79.1485 129.337C78.401 128.593 77.4585 128.215 76.2988 128.215ZM75.6655 128.996C76.0723 128.996 76.4589 129.105 76.8346 129.337C77.2095 129.574 77.5016 129.906 77.6871 130.313C77.8087 130.573 77.8689 131.012 77.9063 131.654L73.1324 131.679C73.2119 130.843 73.4931 130.176 73.9849 129.703C74.4767 129.232 75.0412 128.996 75.6655 128.996ZM70.7933 153.337C71.6483 152.376 72.7106 151.898 74.0083 151.898C75.1011 151.898 76.0089 152.253 76.7119 152.996C77.4157 153.739 77.7592 154.73 77.7592 155.972H71.0125C71.007 157.463 71.3765 158.635 72.0842 159.484C72.7927 160.329 73.6106 160.752 74.5685 160.752C75.2061 160.752 75.7784 160.578 76.2491 160.216C76.7246 159.857 77.1176 159.234 77.4426 158.362L77.7592 158.581C77.608 159.584 77.1823 160.494 76.4683 161.313C75.7489 162.136 74.8411 162.533 73.7648 162.533C72.591 162.533 71.6021 162.079 70.7689 161.142C69.9311 160.203 69.5024 158.923 69.5024 157.337C69.5024 155.622 69.9336 154.296 70.7933 153.337ZM74.5198 153.02C74.166 152.79 73.8096 152.654 73.4238 152.654C72.8345 152.654 72.3075 152.89 71.8406 153.362C71.3745 153.832 71.0881 154.502 71.0125 155.337H75.5428C75.5046 154.695 75.4358 154.232 75.3236 153.972C75.1467 153.565 74.8737 153.255 74.5198 153.02ZM137.318 128.229H137.692V128.231H137.689V131.648H137.316C137.032 130.574 136.667 129.845 136.22 129.458C135.767 129.072 135.196 128.878 134.507 128.878C133.982 128.878 133.557 129.01 133.233 129.284C132.907 129.554 132.747 129.851 132.747 130.181C132.747 130.589 132.863 130.94 133.105 131.231C133.34 131.531 133.814 131.848 134.53 132.185L136.175 132.963C137.706 133.685 138.469 134.636 138.469 135.822C138.469 136.734 138.115 137.466 137.403 138.028C136.694 138.583 135.895 138.863 135.015 138.863C134.379 138.863 133.661 138.755 132.848 138.535C132.601 138.464 132.396 138.425 132.236 138.425C132.066 138.425 131.929 138.52 131.828 138.709H131.46V135.129H131.828C132.043 136.148 132.447 136.918 133.043 137.439C133.633 137.959 134.303 138.215 135.038 138.215C135.559 138.215 135.984 138.071 136.309 137.776C136.636 137.476 136.8 137.12 136.8 136.707C136.8 136.202 136.617 135.78 136.253 135.435C135.891 135.091 135.161 134.656 134.068 134.13C132.977 133.606 132.265 133.133 131.923 132.711C131.586 132.292 131.415 131.769 131.415 131.132C131.415 130.308 131.709 129.617 132.289 129.063C132.874 128.511 133.628 128.231 134.552 128.231C134.96 128.231 135.456 128.316 136.03 128.485C136.418 128.593 136.668 128.649 136.799 128.649C136.923 128.649 137.013 128.622 137.083 128.57C137.147 128.515 137.231 128.404 137.318 128.229ZM143.01 125.23H142.66C142.352 125.967 142.11 126.477 141.935 126.752C141.601 127.276 141.211 127.731 140.778 128.117C140.347 128.498 139.922 128.77 139.512 128.931V129.29H141.145V136.037C141.145 136.764 141.227 137.298 141.386 137.64C141.544 137.988 141.788 138.256 142.12 138.44C142.452 138.628 142.786 138.72 143.135 138.72C143.648 138.72 144.144 138.541 144.626 138.18C145.109 137.817 145.478 137.279 145.746 136.566H145.307C145.178 136.857 144.995 137.075 144.763 137.227C144.529 137.375 144.29 137.452 144.037 137.452C143.738 137.452 143.494 137.338 143.303 137.11C143.112 136.887 143.013 136.448 143.013 135.797V129.29H145.431V128.525H143.013V125.23H143.01ZM50.6826 161.824H51.2056L51.2048 162.228H45.0109V161.822H45.5222C46.1192 161.822 46.5549 161.641 46.823 161.287C46.9913 161.049 47.0778 160.49 47.0778 159.6V150.006C47.0778 149.252 47.035 148.755 46.9415 148.518C46.8666 148.331 46.7232 148.176 46.5058 148.045C46.194 147.87 45.8643 147.784 45.5222 147.784H45.0109V147.378H51.2048V147.784H50.6818C50.091 147.784 49.6608 147.965 49.3935 148.32C49.2134 148.556 49.1199 149.117 49.1199 150.007V159.601C49.1199 160.348 49.1698 160.845 49.2633 161.088C49.3319 161.27 49.4808 161.432 49.7115 161.556C50.017 161.738 50.3404 161.824 50.6826 161.824ZM109.751 148.903H109.417C109.129 149.64 108.899 150.147 108.736 150.425C108.419 150.948 108.05 151.404 107.646 151.789C107.237 152.17 106.836 152.442 106.448 152.603V152.961H107.99V159.709C107.99 160.436 108.07 160.97 108.216 161.314C108.365 161.66 108.594 161.925 108.91 162.113C109.219 162.3 109.541 162.391 109.866 162.391C110.351 162.391 110.82 162.213 111.275 161.852C111.73 161.489 112.081 160.951 112.329 160.238H111.915C111.795 160.529 111.623 160.748 111.402 160.901C111.181 161.049 110.959 161.124 110.721 161.124C110.437 161.124 110.203 161.011 110.022 160.783C109.844 160.56 109.754 160.121 109.754 159.47V152.961H112.032V152.197H109.754V148.903H109.751ZM65.8233 148.903H66.1553V152.197H68.4351V152.961H66.1553V159.47C66.1553 160.121 66.2457 160.56 66.4312 160.783C66.6058 161.011 66.8428 161.124 67.1241 161.124C67.3603 161.124 67.5856 161.049 67.8053 160.901C68.0244 160.748 68.1935 160.529 68.3174 160.238H68.7344C68.4811 160.951 68.1319 161.489 67.6814 161.852C67.2255 162.213 66.7586 162.391 66.2738 162.391C65.9472 162.391 65.6261 162.3 65.3112 162.113C65.001 161.925 64.7703 161.66 64.6238 161.314C64.4718 160.97 64.3986 160.436 64.3986 159.709V152.961H62.8561V152.603C63.2443 152.442 63.6441 152.17 64.0494 151.789C64.4555 151.404 64.8264 150.948 65.1421 150.425C65.305 150.147 65.5357 149.64 65.8233 148.903ZM124.852 88.1208H130.602C129.932 86.9064 129.597 85.9027 129.046 83.5861H126.624C126.428 85.111 125.495 86.8897 125.032 87.7737L125.031 87.774L125.03 87.7766C124.958 87.9148 124.897 88.031 124.852 88.1208ZM62.1288 94.421C62.6798 93.6499 63.898 90.6676 64.1225 89.5593H65.5504C65.606 89.7259 65.6669 89.9135 65.7325 90.1159L65.7331 90.1175L65.7332 90.1181L65.7335 90.1188C66.1906 91.5279 66.8802 93.6538 67.6532 94.421H62.1288ZM128.149 128.229H127.648L124.535 129.455L124.696 129.85C124.996 129.742 125.25 129.686 125.46 129.686C125.656 129.686 125.81 129.731 125.921 129.824C126.035 129.915 126.118 130.074 126.175 130.311C126.239 130.633 126.275 131.335 126.275 132.422V136.291C126.275 136.912 126.226 137.33 126.118 137.547C126.022 137.766 125.878 137.924 125.707 138.017C125.539 138.115 125.196 138.164 124.696 138.164V138.556H129.721V138.164C129.231 138.164 128.892 138.112 128.705 138.011C128.52 137.905 128.383 137.753 128.291 137.542C128.194 137.333 128.147 136.917 128.147 136.29L128.149 128.229ZM120.875 82.3717H117.008C117.008 82.3717 117.344 79.6056 116.349 79.2731L118.123 75.515H119.776L121.425 79.2731C120.545 79.3878 120.875 82.3717 120.875 82.3717ZM153.885 146.657H153.412L150.503 147.883L150.684 148.266C150.968 148.147 151.198 148.091 151.385 148.091C151.556 148.091 151.694 148.136 151.808 148.234C151.917 148.326 151.997 148.506 152.049 148.765C152.096 149.021 152.12 149.718 152.12 150.849V159.963C152.12 160.584 152.071 161.002 151.981 161.219C151.892 161.438 151.76 161.596 151.597 161.69C151.437 161.787 151.131 161.837 150.684 161.837V162.229H155.465V161.837C154.96 161.837 154.617 161.782 154.431 161.676C154.248 161.572 154.108 161.415 154.023 161.212C153.936 161.007 153.887 160.592 153.887 159.963V146.657H153.885ZM115.872 151.901H116.34V151.902H116.342V159.965C116.342 160.591 116.386 161.007 116.476 161.217C116.563 161.427 116.694 161.58 116.869 161.685C117.042 161.786 117.363 161.837 117.827 161.837V162.229H113.081V161.837C113.56 161.837 113.881 161.787 114.04 161.69C114.206 161.596 114.332 161.438 114.428 161.219C114.527 161.002 114.574 160.584 114.574 159.963V156.094C114.574 155.008 114.543 154.305 114.479 153.984C114.428 153.747 114.349 153.587 114.241 153.497C114.139 153.404 113.991 153.359 113.805 153.359C113.607 153.359 113.365 153.414 113.079 153.523L112.933 153.125L115.872 151.901ZM85.8711 82.3709H89.5148L87.7534 76.2877L85.8711 82.3709ZM91.0654 62.5728L94.2711 61.7993V63.3455L91.0654 62.5728ZM127.943 73.9696L124.741 74.6323L127.943 75.4034V73.9696ZM116.129 69.3202L119.221 68.5483V70.0921L116.129 69.3202ZM135.134 82.9243L132.038 83.6985L135.134 84.4689V82.9243ZM62.0194 84.6968L65.1105 83.9249V85.4749L62.0194 84.6968ZM74.1635 70.203L77.2562 69.4311V70.8633L74.1635 70.203ZM127.211 122.984C126.887 122.984 126.615 123.093 126.394 123.306C126.172 123.522 126.058 123.784 126.058 124.09C126.058 124.398 126.174 124.659 126.397 124.879C126.626 125.097 126.894 125.21 127.211 125.21C127.528 125.21 127.796 125.097 128.022 124.879C128.239 124.66 128.353 124.398 128.353 124.09C128.353 123.784 128.239 123.522 128.022 123.306C127.796 123.093 127.527 122.984 127.211 122.984ZM114.687 146.978C114.893 146.765 115.15 146.657 115.458 146.657C115.754 146.657 116.009 146.765 116.221 146.978C116.426 147.194 116.532 147.455 116.532 147.763C116.532 148.069 116.428 148.332 116.221 148.552C116.009 148.769 115.754 148.882 115.458 148.882C115.161 148.882 114.906 148.769 114.691 148.552C114.48 148.332 114.37 148.069 114.37 147.763C114.37 147.455 114.475 147.194 114.687 146.978ZM127.836 77.3991L126.955 82.3709H128.727L127.836 77.3991ZM133.219 116.02C133.361 115.876 133.563 115.776 133.779 115.776C134 115.776 134.193 115.876 134.34 116.02C134.485 116.165 134.583 116.364 134.583 116.581C134.583 116.802 134.485 116.997 134.34 117.142C134.193 117.287 134 117.386 133.779 117.386C133.561 117.386 133.361 117.287 133.219 117.142C133.073 116.997 132.976 116.8 132.976 116.581C132.976 116.362 133.073 116.165 133.219 116.02ZM134.218 116.142C134.104 116.03 133.954 115.947 133.779 115.947C133.611 115.947 133.452 116.03 133.341 116.142C133.23 116.253 133.171 116.41 133.171 116.581C133.171 116.753 133.228 116.906 133.341 117.02C133.453 117.131 133.611 117.191 133.779 117.191C133.953 117.191 134.104 117.132 134.218 117.02C134.329 116.906 134.413 116.754 134.413 116.581C134.413 116.411 134.329 116.254 134.218 116.142ZM118.121 74.6346L119.666 74.7455L118.891 71.6461L118.121 74.6346ZM135.565 88.1208H134.463L135.12 86.015L135.565 88.1208ZM135.242 115.874V117.264H135.704C135.925 117.264 136.097 117.203 136.216 117.069C136.334 116.938 136.386 116.778 136.386 116.581C136.386 116.383 136.336 116.201 136.216 116.069C136.102 115.934 135.942 115.874 135.753 115.874H135.242ZM135.509 116.069H135.753C135.866 116.069 135.954 116.121 136.021 116.215C136.089 116.309 136.118 116.422 136.118 116.556C136.118 116.723 136.073 116.836 135.997 116.922C135.915 117.005 135.816 117.044 135.704 117.044H135.509V116.069ZM64.3336 88.1154L64.7778 86.7948L65.3226 88.1154H64.3336ZM76.4877 74.1819H77.4807L77.038 72.8613L76.4877 74.1819ZM139.261 116.361C139.347 116.257 139.476 116.215 139.626 116.215L139.626 116.215C139.776 116.215 139.886 116.26 139.967 116.361C140.046 116.461 140.089 116.594 140.089 116.752V116.776H139.358C139.358 116.846 139.37 116.904 139.382 116.947C139.394 116.978 139.422 116.999 139.451 117.021C139.461 117.029 139.47 117.036 139.48 117.044C139.519 117.075 139.568 117.093 139.626 117.093C139.742 117.093 139.805 117.059 139.845 116.947L140.064 116.971C140.037 117.062 139.971 117.131 139.894 117.191C139.812 117.25 139.721 117.288 139.602 117.288C139.461 117.288 139.346 117.239 139.261 117.142C139.174 117.047 139.139 116.915 139.139 116.752C139.139 116.596 139.171 116.462 139.261 116.361ZM139.772 116.459C139.729 116.41 139.666 116.386 139.602 116.386L139.602 116.386C139.539 116.386 139.476 116.388 139.431 116.435C139.388 116.477 139.364 116.55 139.358 116.63H139.845C139.842 116.556 139.815 116.506 139.772 116.459ZM141.017 116.236H140.834L140.618 116.914L140.371 116.236H140.127L140.481 117.201L140.487 117.214L140.49 117.224L140.495 117.237C140.5 117.252 140.502 117.261 140.502 117.264C140.502 117.27 140.496 117.293 140.481 117.335C140.466 117.376 140.451 117.404 140.427 117.421C140.403 117.437 140.366 117.444 140.315 117.444L140.206 117.441V117.627C140.263 117.631 140.307 117.633 140.34 117.633C140.418 117.633 140.475 117.615 140.518 117.574C140.562 117.534 140.598 117.479 140.619 117.404L141.017 116.236ZM137.151 117.222C137.073 117.179 137.015 117.113 136.993 117.027L137.211 116.985C137.246 117.068 137.317 117.109 137.428 117.109C137.573 117.109 137.646 117.068 137.646 116.982C137.646 116.956 137.632 116.932 137.611 116.915C137.587 116.898 137.563 116.886 137.532 116.878L137.346 116.844C137.138 116.803 137.034 116.701 137.034 116.536C137.034 116.447 137.067 116.369 137.131 116.306C137.198 116.242 137.296 116.212 137.428 116.212C137.644 116.212 137.777 116.292 137.827 116.451L137.617 116.493C137.597 116.416 137.537 116.377 137.435 116.377C137.309 116.377 137.249 116.415 137.249 116.493C137.249 116.548 137.299 116.585 137.396 116.606L137.617 116.651C137.792 116.686 137.877 116.786 137.877 116.947C137.877 117.061 137.832 117.146 137.745 117.201C137.655 117.257 137.548 117.284 137.428 117.284C137.325 117.284 137.232 117.264 137.151 117.222ZM138.918 117.264V117.259H138.92V117.264H138.918ZM138.918 117.259V116.6C138.918 116.454 138.888 116.355 138.822 116.298C138.757 116.241 138.678 116.212 138.588 116.212C138.456 116.212 138.353 116.299 138.279 116.472V116.235H138.067V117.262H138.299V116.734C138.299 116.625 138.323 116.547 138.368 116.493C138.415 116.44 138.468 116.413 138.526 116.413C138.57 116.413 138.607 116.43 138.64 116.464C138.672 116.499 138.688 116.547 138.688 116.617V117.259H138.918ZM134.032 116.786H134.189C134.149 116.862 134.101 116.922 134.028 116.963C133.96 117.004 133.884 117.023 133.795 117.023C133.729 117.023 133.668 117.009 133.615 116.984C133.561 116.959 133.512 116.92 133.465 116.871C133.43 116.83 133.399 116.781 133.381 116.731C133.362 116.676 133.351 116.62 133.351 116.56C133.351 116.499 133.365 116.44 133.387 116.385C133.41 116.331 133.443 116.283 133.49 116.237C133.533 116.195 133.581 116.163 133.63 116.142C133.684 116.121 133.739 116.11 133.799 116.11C133.888 116.11 133.97 116.131 134.039 116.174C134.104 116.215 134.156 116.275 134.189 116.353H134.042C134.013 116.315 133.979 116.287 133.936 116.268C133.897 116.248 133.851 116.237 133.799 116.237C133.757 116.237 133.721 116.244 133.681 116.261C133.645 116.276 133.612 116.3 133.583 116.327C133.55 116.36 133.527 116.397 133.513 116.437C133.494 116.477 133.488 116.519 133.488 116.564C133.488 116.609 133.494 116.65 133.51 116.692C133.524 116.733 133.546 116.768 133.576 116.799C133.605 116.829 133.638 116.856 133.678 116.872C133.72 116.888 133.755 116.898 133.799 116.898C133.848 116.898 133.894 116.887 133.933 116.867C133.976 116.849 134.006 116.823 134.032 116.786ZM94.2644 64.897L94.0399 64.2353L93.8216 64.897H94.2644ZM136.84 116.236V117.264H136.609V116.236H136.84Z" fill="white"/>
</svg>
