<svg width="44" height="38" viewBox="0 0 44 38" fill="none" xmlns="http://www.w3.org/2000/svg">
<path d="M9.13846 38C6.31795 38 4.11795 36.9991 2.53846 34.9972C0.846154 32.9953 0 30.2705 0 26.8228C0 21.7069 1.12821 17.0359 3.38462 12.8097C5.75385 8.58346 9.53333 4.63531 14.7231 0.965194C16.0769 -0.0357474 17.1487 -0.258179 17.9385 0.297898C18.3897 0.631548 18.6154 1.13202 18.6154 1.79931C18.6154 2.35539 18.2205 2.91147 17.4308 3.46754C13.5949 6.6928 11.1128 9.19515 9.98462 10.9746C8.96923 12.6428 8.46154 14.4223 8.46154 16.313C8.46154 18.3148 8.91282 19.8719 9.81539 20.984C10.7179 21.9849 11.7333 22.8747 12.8615 23.6532C13.9897 24.3205 15.0051 25.1546 15.9077 26.1555C16.8103 27.1565 17.2615 28.6579 17.2615 30.6598C17.2615 32.6617 16.5282 34.3855 15.0615 35.8313C13.7077 37.2771 11.7333 38 9.13846 38ZM34.5231 38C31.7026 38 29.4462 36.9991 27.7538 34.9972C26.1744 32.9953 25.3846 30.2705 25.3846 26.8228C25.3846 21.7069 26.5128 17.0359 28.7692 12.8097C31.1385 8.58346 34.9179 4.63531 40.1077 0.965194C41.4615 -0.0357474 42.5333 -0.258179 43.3231 0.297898C43.7744 0.631548 44 1.13202 44 1.79931C44 2.35539 43.6051 2.91147 42.8154 3.46754C38.9795 6.6928 36.4974 9.19515 35.3692 10.9746C34.3538 12.6428 33.8462 14.4223 33.8462 16.313C33.8462 18.3148 34.2974 19.8719 35.2 20.984C36.1026 21.9849 37.1179 22.8747 38.2462 23.6532C39.3744 24.3205 40.3897 25.1546 41.2923 26.1555C42.1949 27.1565 42.6462 28.6579 42.6462 30.6598C42.6462 32.6617 41.9128 34.3855 40.4462 35.8313C39.0923 37.2771 37.1179 38 34.5231 38Z" fill="black"/>
</svg>
