<svg width="164" height="48" viewBox="0 0 164 48" fill="none" xmlns="http://www.w3.org/2000/svg">
<path d="M121.114 16.6279H125.383V19.6611H121.114V33.9082C121.114 34.8246 121.304 35.5166 121.685 35.9766C122.065 36.4364 122.713 36.6674 123.63 36.6709C124.081 36.6709 124.703 36.5864 125.491 36.416V39.5781C124.462 39.861 123.46 40.001 122.489 40.001C120.741 40.0009 119.423 39.4689 118.537 38.4092C117.651 37.346 117.206 35.8432 117.206 33.8906V19.6611H113.043V16.6279H117.206V11.0703H121.114V16.6279ZM136.677 16.1992C139.312 16.1992 141.376 16.8605 142.87 18.1826C144.361 19.5047 145.135 21.3275 145.192 23.6445V34.2051C145.192 36.3107 145.462 37.9868 145.998 39.2305V39.5713H141.899C141.672 39.1215 141.488 38.3137 141.349 37.1553C139.532 39.0498 137.363 39.998 134.84 39.998C132.585 39.998 130.734 39.3603 129.291 38.0791C127.848 36.8013 127.125 35.179 127.125 33.2129C127.125 30.8243 128.032 28.9676 129.842 27.6455C131.652 26.3234 134.198 25.6621 137.481 25.6621H141.284V23.8594C141.284 22.4861 140.877 21.3955 140.059 20.5811C139.244 19.7668 138.038 19.3614 136.446 19.3613C135.051 19.3613 133.882 19.7157 132.938 20.4209C131.995 21.1263 131.522 21.9821 131.522 22.9873H127.59C127.59 21.8424 127.994 20.7345 128.806 19.668C129.617 18.5981 130.714 17.7564 132.103 17.1328C133.488 16.5092 135.013 16.1992 136.677 16.1992ZM45.2979 39.5732H41.7051L41.5156 37.1123C39.9537 39.0342 37.7765 39.9951 34.9854 39.9951C32.3372 39.995 30.1812 38.9085 28.5107 36.7314C26.8435 34.554 26.0078 31.7115 26.0078 28.2051V27.9092C26.0078 24.3859 26.8363 21.5574 28.5 19.4141C30.1638 17.2707 32.3376 16.2002 35.0303 16.2002C37.7057 16.2003 39.8244 17.1205 41.3896 18.957V7H45.2979V39.5732ZM57.1836 16.1992C60.1547 16.1992 62.4674 17.1808 64.1143 19.1436C65.7609 21.1097 66.5859 23.9211 66.5859 27.584V29.2158H51.0957C51.1534 31.4784 51.8115 33.3055 53.0713 34.6992C54.331 36.0928 55.9343 36.7881 57.8799 36.7881C59.2584 36.7881 60.4302 36.5051 61.3877 35.9395C62.3452 35.3738 63.1806 34.624 63.9004 33.6904L66.2871 35.5576C64.3721 38.5153 61.4995 39.9911 57.666 39.9912C54.566 39.9912 52.0462 38.9721 50.1006 36.9277C48.155 34.8867 47.1836 32.1535 47.1836 28.7324V28.0098C47.1836 25.7336 47.6186 23.703 48.4844 21.9141C49.3536 20.1251 50.5625 18.7279 52.1211 17.7158C53.6796 16.7038 55.367 16.1992 57.1836 16.1992ZM105.63 16.1992C110.465 16.1992 112.9 18.9354 112.94 24.4111V39.5752H109.032V24.3906C109.019 22.7347 108.642 21.5112 107.901 20.7207C107.165 19.9269 106.013 19.5322 104.448 19.5322C103.182 19.5322 102.068 19.8727 101.11 20.5508C100.153 21.2288 99.4056 22.1178 98.8691 23.2217V39.5713H94.9609V16.625H98.6592L98.7842 19.5078C100.53 17.3031 102.812 16.1992 105.63 16.1992ZM6.19336 33.96L4.18359 39.5723H0L2.11914 33.96H6.19336ZM27.0693 39.5723H22.9062L20.8516 33.96H24.916L27.0693 39.5723ZM76.2285 34.2471L81.8926 16.623H85.8857L77.6885 39.5693H74.707L66.4219 16.623H70.4189L76.2285 34.2471ZM91.7324 39.5693H87.8242V16.623H91.7324V39.5693ZM36.001 19.5293C34.086 19.5293 32.592 20.2723 31.5225 21.7578C30.4529 23.2401 29.916 25.4382 29.916 28.3516C29.916 30.9515 30.4529 32.9893 31.5225 34.458C32.592 35.9266 34.0722 36.663 35.96 36.6631C38.4386 36.6631 40.2487 35.5487 41.3896 33.3135V22.7734C40.2216 20.6098 38.422 19.5293 36.001 19.5293ZM138.222 28.4326C133.431 28.4326 131.037 29.8397 131.037 32.6543C131.037 33.8844 131.444 34.8454 132.263 35.5371C133.078 36.2288 134.13 36.5762 135.41 36.5762C136.636 36.5762 137.797 36.2593 138.897 35.6221C139.994 34.9849 140.792 34.1604 141.284 33.1416V28.4326H138.222ZM23.9648 31.4766H3.05469L11.6592 8.69336H15.2109L23.9648 31.4766ZM8.2666 28.1611H18.7256L13.4346 13.7197L8.2666 28.1611ZM57.1836 19.4229C55.6047 19.4229 54.2805 19.9987 53.2109 21.1504C52.1413 22.3021 51.4793 23.9175 51.2246 25.9961H62.6777V25.6992C62.5657 23.7059 62.0288 22.1626 61.0713 21.0654C60.1137 19.9716 58.8169 19.4229 57.1836 19.4229ZM89.8096 8.2666C90.5735 8.2666 91.1481 8.48772 91.542 8.92383C91.9359 9.3634 92.1328 9.89892 92.1328 10.5361C92.1328 11.1731 91.9357 11.7045 91.542 12.127C91.1481 12.5529 90.5702 12.7646 89.8096 12.7646C89.0492 12.7646 88.4759 12.5494 88.0889 12.127C87.7018 11.701 87.5078 11.1733 87.5078 10.5361C87.5078 9.89892 87.7018 9.3634 88.0889 8.92383C88.4759 8.48461 89.0494 8.26669 89.8096 8.2666Z" fill="#2D2B2B"/>
</svg>
