<svg width="662" height="780" viewBox="0 0 662 780" fill="none" xmlns="http://www.w3.org/2000/svg">
<rect x="0.5" y="0.5" width="299" height="359" rx="7.5" fill="white" fill-opacity="0.9"/>
<g opacity="0.4" clip-path="url(#clip0_220_598)">
<path d="M202.5 93.75H176.25V67.5C176.247 65.1802 175.324 62.9563 173.684 61.316C172.044 59.6757 169.82 58.7529 167.5 58.75H97.5C95.1802 58.7529 92.9563 59.6757 91.316 61.316C89.6757 62.9563 88.7529 65.1802 88.75 67.5V137.5C88.7529 139.82 89.6757 142.044 91.316 143.684C92.9563 145.324 95.1802 146.247 97.5 146.25H123.75V172.5C123.753 174.82 124.676 177.044 126.316 178.684C127.956 180.324 130.18 181.247 132.5 181.25H202.5C204.82 181.247 207.044 180.324 208.684 178.684C210.324 177.044 211.247 174.82 211.25 172.5V102.5C211.247 100.18 210.324 97.9563 208.684 96.316C207.044 94.6757 204.82 93.7529 202.5 93.75ZM97.5 137.5V67.5H167.5V93.75H132.5C130.18 93.7529 127.956 94.6757 126.316 96.316C124.676 97.9563 123.753 100.18 123.75 102.5V137.5H97.5ZM132.5 172.5V146.25H167.5C169.82 146.247 172.044 145.324 173.684 143.684C175.324 142.044 176.247 139.82 176.25 137.5V102.5H202.5V172.5H132.5Z" fill="#094B87"/>
</g>
<path d="M136.798 258.66C137.838 258.66 138.765 258.487 139.578 258.14C140.405 257.793 141.098 257.307 141.658 256.68C142.218 256.053 142.645 255.293 142.938 254.4C143.245 253.507 143.398 252.507 143.398 251.4V234.08H148.778V251.4C148.778 253.12 148.498 254.713 147.938 256.18C147.392 257.633 146.598 258.893 145.558 259.96C144.532 261.013 143.278 261.84 141.798 262.44C140.318 263.027 138.652 263.32 136.798 263.32C134.932 263.32 133.258 263.027 131.778 262.44C130.298 261.84 129.038 261.013 127.998 259.96C126.972 258.893 126.178 257.633 125.618 256.18C125.072 254.713 124.798 253.12 124.798 251.4V234.08H130.178V251.38C130.178 252.487 130.325 253.487 130.618 254.38C130.925 255.273 131.358 256.04 131.918 256.68C132.492 257.307 133.185 257.793 133.998 258.14C134.825 258.487 135.758 258.66 136.798 258.66ZM177.946 263H172.586C172.212 263 171.912 262.907 171.686 262.72C171.472 262.533 171.299 262.32 171.166 262.08L164.466 250.98C164.359 251.313 164.232 251.6 164.086 251.84L157.666 262.08C157.506 262.307 157.319 262.52 157.106 262.72C156.906 262.907 156.639 263 156.306 263H151.286L160.886 248.12L151.666 234.08H157.026C157.399 234.08 157.666 234.133 157.826 234.24C157.999 234.333 158.159 234.493 158.306 234.72L164.886 245.32C165.019 244.987 165.179 244.653 165.366 244.32L171.406 234.82C171.552 234.567 171.712 234.38 171.886 234.26C172.059 234.14 172.279 234.08 172.546 234.08H177.686L168.386 247.9L177.946 263Z" fill="#333333"/>
<path d="M56.3089 302.69C57.1989 302.69 57.9939 302.54 58.6939 302.24C59.3939 301.94 59.9839 301.52 60.4639 300.98C60.9539 300.44 61.3239 299.795 61.5739 299.045C61.8339 298.295 61.9639 297.47 61.9639 296.57V283.505H64.8589V296.57C64.8589 297.81 64.6589 298.96 64.2589 300.02C63.8689 301.08 63.3039 302 62.5639 302.78C61.8339 303.55 60.9389 304.155 59.8789 304.595C58.8189 305.035 57.6289 305.255 56.3089 305.255C54.9889 305.255 53.7989 305.035 52.7389 304.595C51.6789 304.155 50.7789 303.55 50.0389 302.78C49.2989 302 48.7289 301.08 48.3289 300.02C47.9389 298.96 47.7439 297.81 47.7439 296.57V283.505H50.6389V296.555C50.6389 297.455 50.7639 298.28 51.0139 299.03C51.2739 299.78 51.6439 300.425 52.1239 300.965C52.6139 301.505 53.2089 301.93 53.9089 302.24C54.6189 302.54 55.4189 302.69 56.3089 302.69ZM77.2621 292.31C77.1421 292.53 76.9571 292.64 76.7071 292.64C76.5571 292.64 76.3871 292.585 76.1971 292.475C76.0071 292.365 75.7721 292.245 75.4921 292.115C75.2221 291.975 74.8971 291.85 74.5171 291.74C74.1371 291.62 73.6871 291.56 73.1671 291.56C72.7171 291.56 72.3121 291.62 71.9521 291.74C71.5921 291.85 71.2821 292.005 71.0221 292.205C70.7721 292.405 70.5771 292.64 70.4371 292.91C70.3071 293.17 70.2421 293.455 70.2421 293.765C70.2421 294.155 70.3521 294.48 70.5721 294.74C70.8021 295 71.1021 295.225 71.4721 295.415C71.8421 295.605 72.2621 295.775 72.7321 295.925C73.2021 296.065 73.6821 296.22 74.1721 296.39C74.6721 296.55 75.1571 296.73 75.6271 296.93C76.0971 297.13 76.5171 297.38 76.8871 297.68C77.2571 297.98 77.5521 298.35 77.7721 298.79C78.0021 299.22 78.1171 299.74 78.1171 300.35C78.1171 301.05 77.9921 301.7 77.7421 302.3C77.4921 302.89 77.1221 303.405 76.6321 303.845C76.1421 304.275 75.5421 304.615 74.8321 304.865C74.1221 305.115 73.3021 305.24 72.3721 305.24C71.3121 305.24 70.3521 305.07 69.4921 304.73C68.6321 304.38 67.9021 303.935 67.3021 303.395L67.9321 302.375C68.0121 302.245 68.1071 302.145 68.2171 302.075C68.3271 302.005 68.4671 301.97 68.6371 301.97C68.8171 301.97 69.0071 302.04 69.2071 302.18C69.4071 302.32 69.6471 302.475 69.9271 302.645C70.2171 302.815 70.5671 302.97 70.9771 303.11C71.3871 303.25 71.8971 303.32 72.5071 303.32C73.0271 303.32 73.4821 303.255 73.8721 303.125C74.2621 302.985 74.5871 302.8 74.8471 302.57C75.1071 302.34 75.2971 302.075 75.4171 301.775C75.5471 301.475 75.6121 301.155 75.6121 300.815C75.6121 300.395 75.4971 300.05 75.2671 299.78C75.0471 299.5 74.7521 299.265 74.3821 299.075C74.0121 298.875 73.5871 298.705 73.1071 298.565C72.6371 298.415 72.1521 298.26 71.6521 298.1C71.1621 297.94 70.6771 297.76 70.1971 297.56C69.7271 297.35 69.3071 297.09 68.9371 296.78C68.5671 296.47 68.2671 296.09 68.0371 295.64C67.8171 295.18 67.7071 294.625 67.7071 293.975C67.7071 293.395 67.8271 292.84 68.0671 292.31C68.3071 291.77 68.6571 291.3 69.1171 290.9C69.5771 290.49 70.1421 290.165 70.8121 289.925C71.4821 289.685 72.2471 289.565 73.1071 289.565C74.1071 289.565 75.0021 289.725 75.7921 290.045C76.5921 290.355 77.2821 290.785 77.8621 291.335L77.2621 292.31ZM91.2606 295.745C91.2606 295.125 91.1706 294.56 90.9906 294.05C90.8206 293.53 90.5656 293.085 90.2256 292.715C89.8956 292.335 89.4906 292.045 89.0106 291.845C88.5306 291.635 87.9856 291.53 87.3756 291.53C86.0956 291.53 85.0806 291.905 84.3306 292.655C83.5906 293.395 83.1306 294.425 82.9506 295.745H91.2606ZM93.4206 302.87C93.0906 303.27 92.6956 303.62 92.2356 303.92C91.7756 304.21 91.2806 304.45 90.7506 304.64C90.2306 304.83 89.6906 304.97 89.1306 305.06C88.5706 305.16 88.0156 305.21 87.4656 305.21C86.4156 305.21 85.4456 305.035 84.5556 304.685C83.6756 304.325 82.9106 303.805 82.2606 303.125C81.6206 302.435 81.1206 301.585 80.7606 300.575C80.4006 299.565 80.2206 298.405 80.2206 297.095C80.2206 296.035 80.3806 295.045 80.7006 294.125C81.0306 293.205 81.5006 292.41 82.1106 291.74C82.7206 291.06 83.4656 290.53 84.3456 290.15C85.2256 289.76 86.2156 289.565 87.3156 289.565C88.2256 289.565 89.0656 289.72 89.8356 290.03C90.6156 290.33 91.2856 290.77 91.8456 291.35C92.4156 291.92 92.8606 292.63 93.1806 293.48C93.5006 294.32 93.6606 295.28 93.6606 296.36C93.6606 296.78 93.6156 297.06 93.5256 297.2C93.4356 297.34 93.2656 297.41 93.0156 297.41H82.8606C82.8906 298.37 83.0206 299.205 83.2506 299.915C83.4906 300.625 83.8206 301.22 84.2406 301.7C84.6606 302.17 85.1606 302.525 85.7406 302.765C86.3206 302.995 86.9706 303.11 87.6906 303.11C88.3606 303.11 88.9356 303.035 89.4156 302.885C89.9056 302.725 90.3256 302.555 90.6756 302.375C91.0256 302.195 91.3156 302.03 91.5456 301.88C91.7856 301.72 91.9906 301.64 92.1606 301.64C92.3806 301.64 92.5506 301.725 92.6706 301.895L93.4206 302.87ZM99.1752 292.85C99.6552 291.81 100.245 291 100.945 290.42C101.645 289.83 102.5 289.535 103.51 289.535C103.83 289.535 104.135 289.57 104.425 289.64C104.725 289.71 104.99 289.82 105.22 289.97L105.025 291.965C104.965 292.215 104.815 292.34 104.575 292.34C104.435 292.34 104.23 292.31 103.96 292.25C103.69 292.19 103.385 292.16 103.045 292.16C102.565 292.16 102.135 292.23 101.755 292.37C101.385 292.51 101.05 292.72 100.75 293C100.46 293.27 100.195 293.61 99.9552 294.02C99.7252 294.42 99.5152 294.88 99.3252 295.4V305H96.6402V289.805H98.1702C98.4602 289.805 98.6602 289.86 98.7702 289.97C98.8802 290.08 98.9552 290.27 98.9952 290.54L99.1752 292.85ZM127.889 302.63L127.874 305H114.629V283.505H127.874V285.875H117.539V293.015H125.909V295.295H117.539V302.63H127.889ZM143.494 305H140.929C140.709 305 140.534 304.945 140.404 304.835C140.284 304.715 140.184 304.585 140.104 304.445L136.279 298.49C136.239 298.63 136.194 298.77 136.144 298.91C136.104 299.04 136.044 299.16 135.964 299.27L132.424 304.445C132.324 304.585 132.214 304.715 132.094 304.835C131.984 304.945 131.829 305 131.629 305H129.244L134.569 297.2L129.454 289.805H132.019C132.239 289.805 132.399 289.84 132.499 289.91C132.599 289.98 132.689 290.08 132.769 290.21L136.504 295.91C136.584 295.62 136.709 295.34 136.879 295.07L140.149 290.27C140.239 290.13 140.334 290.02 140.434 289.94C140.544 289.85 140.674 289.805 140.824 289.805H143.284L138.169 297.065L143.494 305ZM148.34 301.34C148.83 302 149.365 302.465 149.945 302.735C150.525 303.005 151.175 303.14 151.895 303.14C153.315 303.14 154.405 302.635 155.165 301.625C155.925 300.615 156.305 299.175 156.305 297.305C156.305 296.315 156.215 295.465 156.035 294.755C155.865 294.045 155.615 293.465 155.285 293.015C154.955 292.555 154.55 292.22 154.07 292.01C153.59 291.8 153.045 291.695 152.435 291.695C151.565 291.695 150.8 291.895 150.14 292.295C149.49 292.695 148.89 293.26 148.34 293.99V301.34ZM148.205 292.16C148.845 291.37 149.585 290.735 150.425 290.255C151.265 289.775 152.225 289.535 153.305 289.535C154.185 289.535 154.98 289.705 155.69 290.045C156.4 290.375 157.005 290.87 157.505 291.53C158.005 292.18 158.39 292.99 158.66 293.96C158.93 294.93 159.065 296.045 159.065 297.305C159.065 298.425 158.915 299.47 158.615 300.44C158.315 301.4 157.88 302.235 157.31 302.945C156.75 303.645 156.06 304.2 155.24 304.61C154.43 305.01 153.515 305.21 152.495 305.21C151.565 305.21 150.765 305.055 150.095 304.745C149.435 304.425 148.85 303.985 148.34 303.425V310.145H145.655V289.805H147.26C147.64 289.805 147.875 289.99 147.965 290.36L148.205 292.16ZM172.341 295.745C172.341 295.125 172.251 294.56 172.071 294.05C171.901 293.53 171.646 293.085 171.306 292.715C170.976 292.335 170.571 292.045 170.091 291.845C169.611 291.635 169.066 291.53 168.456 291.53C167.176 291.53 166.161 291.905 165.411 292.655C164.671 293.395 164.211 294.425 164.031 295.745H172.341ZM174.501 302.87C174.171 303.27 173.776 303.62 173.316 303.92C172.856 304.21 172.361 304.45 171.831 304.64C171.311 304.83 170.771 304.97 170.211 305.06C169.651 305.16 169.096 305.21 168.546 305.21C167.496 305.21 166.526 305.035 165.636 304.685C164.756 304.325 163.991 303.805 163.341 303.125C162.701 302.435 162.201 301.585 161.841 300.575C161.481 299.565 161.301 298.405 161.301 297.095C161.301 296.035 161.461 295.045 161.781 294.125C162.111 293.205 162.581 292.41 163.191 291.74C163.801 291.06 164.546 290.53 165.426 290.15C166.306 289.76 167.296 289.565 168.396 289.565C169.306 289.565 170.146 289.72 170.916 290.03C171.696 290.33 172.366 290.77 172.926 291.35C173.496 291.92 173.941 292.63 174.261 293.48C174.581 294.32 174.741 295.28 174.741 296.36C174.741 296.78 174.696 297.06 174.606 297.2C174.516 297.34 174.346 297.41 174.096 297.41H163.941C163.971 298.37 164.101 299.205 164.331 299.915C164.571 300.625 164.901 301.22 165.321 301.7C165.741 302.17 166.241 302.525 166.821 302.765C167.401 302.995 168.051 303.11 168.771 303.11C169.441 303.11 170.016 303.035 170.496 302.885C170.986 302.725 171.406 302.555 171.756 302.375C172.106 302.195 172.396 302.03 172.626 301.88C172.866 301.72 173.071 301.64 173.241 301.64C173.461 301.64 173.631 301.725 173.751 301.895L174.501 302.87ZM180.256 292.85C180.736 291.81 181.326 291 182.026 290.42C182.726 289.83 183.581 289.535 184.591 289.535C184.911 289.535 185.216 289.57 185.506 289.64C185.806 289.71 186.071 289.82 186.301 289.97L186.106 291.965C186.046 292.215 185.896 292.34 185.656 292.34C185.516 292.34 185.311 292.31 185.041 292.25C184.771 292.19 184.466 292.16 184.126 292.16C183.646 292.16 183.216 292.23 182.836 292.37C182.466 292.51 182.131 292.72 181.831 293C181.541 293.27 181.276 293.61 181.036 294.02C180.806 294.42 180.596 294.88 180.406 295.4V305H177.721V289.805H179.251C179.541 289.805 179.741 289.86 179.851 289.97C179.961 290.08 180.036 290.27 180.076 290.54L180.256 292.85ZM191.169 289.805V305H188.499V289.805H191.169ZM191.739 285.035C191.739 285.295 191.684 285.54 191.574 285.77C191.474 285.99 191.334 286.19 191.154 286.37C190.984 286.54 190.779 286.675 190.539 286.775C190.309 286.875 190.064 286.925 189.804 286.925C189.544 286.925 189.299 286.875 189.069 286.775C188.849 286.675 188.654 286.54 188.484 286.37C188.314 286.19 188.179 285.99 188.079 285.77C187.979 285.54 187.929 285.295 187.929 285.035C187.929 284.775 187.979 284.53 188.079 284.3C188.179 284.06 188.314 283.855 188.484 283.685C188.654 283.505 188.849 283.365 189.069 283.265C189.299 283.165 189.544 283.115 189.804 283.115C190.064 283.115 190.309 283.165 190.539 283.265C190.779 283.365 190.984 283.505 191.154 283.685C191.334 283.855 191.474 284.06 191.574 284.3C191.684 284.53 191.739 284.775 191.739 285.035ZM205.426 295.745C205.426 295.125 205.336 294.56 205.156 294.05C204.986 293.53 204.731 293.085 204.391 292.715C204.061 292.335 203.656 292.045 203.176 291.845C202.696 291.635 202.151 291.53 201.541 291.53C200.261 291.53 199.246 291.905 198.496 292.655C197.756 293.395 197.296 294.425 197.116 295.745H205.426ZM207.586 302.87C207.256 303.27 206.861 303.62 206.401 303.92C205.941 304.21 205.446 304.45 204.916 304.64C204.396 304.83 203.856 304.97 203.296 305.06C202.736 305.16 202.181 305.21 201.631 305.21C200.581 305.21 199.611 305.035 198.721 304.685C197.841 304.325 197.076 303.805 196.426 303.125C195.786 302.435 195.286 301.585 194.926 300.575C194.566 299.565 194.386 298.405 194.386 297.095C194.386 296.035 194.546 295.045 194.866 294.125C195.196 293.205 195.666 292.41 196.276 291.74C196.886 291.06 197.631 290.53 198.511 290.15C199.391 289.76 200.381 289.565 201.481 289.565C202.391 289.565 203.231 289.72 204.001 290.03C204.781 290.33 205.451 290.77 206.011 291.35C206.581 291.92 207.026 292.63 207.346 293.48C207.666 294.32 207.826 295.28 207.826 296.36C207.826 296.78 207.781 297.06 207.691 297.2C207.601 297.34 207.431 297.41 207.181 297.41H197.026C197.056 298.37 197.186 299.205 197.416 299.915C197.656 300.625 197.986 301.22 198.406 301.7C198.826 302.17 199.326 302.525 199.906 302.765C200.486 302.995 201.136 303.11 201.856 303.11C202.526 303.11 203.101 303.035 203.581 302.885C204.071 302.725 204.491 302.555 204.841 302.375C205.191 302.195 205.481 302.03 205.711 301.88C205.951 301.72 206.156 301.64 206.326 301.64C206.546 301.64 206.716 301.725 206.836 301.895L207.586 302.87ZM213.325 292.01C213.655 291.64 214.005 291.305 214.375 291.005C214.745 290.705 215.135 290.45 215.545 290.24C215.965 290.02 216.405 289.855 216.865 289.745C217.335 289.625 217.84 289.565 218.38 289.565C219.21 289.565 219.94 289.705 220.57 289.985C221.21 290.255 221.74 290.645 222.16 291.155C222.59 291.655 222.915 292.26 223.135 292.97C223.355 293.68 223.465 294.465 223.465 295.325V305H220.78V295.325C220.78 294.175 220.515 293.285 219.985 292.655C219.465 292.015 218.67 291.695 217.6 291.695C216.81 291.695 216.07 291.885 215.38 292.265C214.7 292.645 214.07 293.16 213.49 293.81V305H210.805V289.805H212.41C212.79 289.805 213.025 289.99 213.115 290.36L213.325 292.01ZM237.809 292.505C237.729 292.615 237.649 292.7 237.569 292.76C237.489 292.82 237.379 292.85 237.239 292.85C237.089 292.85 236.924 292.79 236.744 292.67C236.564 292.54 236.339 292.4 236.069 292.25C235.809 292.1 235.484 291.965 235.094 291.845C234.714 291.715 234.244 291.65 233.684 291.65C232.934 291.65 232.274 291.785 231.704 292.055C231.134 292.315 230.654 292.695 230.264 293.195C229.884 293.695 229.594 294.3 229.394 295.01C229.204 295.72 229.109 296.515 229.109 297.395C229.109 298.315 229.214 299.135 229.424 299.855C229.634 300.565 229.929 301.165 230.309 301.655C230.699 302.135 231.164 302.505 231.704 302.765C232.254 303.015 232.869 303.14 233.549 303.14C234.199 303.14 234.734 303.065 235.154 302.915C235.574 302.755 235.919 302.58 236.189 302.39C236.469 302.2 236.699 302.03 236.879 301.88C237.069 301.72 237.254 301.64 237.434 301.64C237.654 301.64 237.824 301.725 237.944 301.895L238.694 302.87C238.364 303.28 237.989 303.63 237.569 303.92C237.149 304.21 236.694 304.455 236.204 304.655C235.724 304.845 235.219 304.985 234.689 305.075C234.159 305.165 233.619 305.21 233.069 305.21C232.119 305.21 231.234 305.035 230.414 304.685C229.604 304.335 228.899 303.83 228.299 303.17C227.699 302.5 227.229 301.68 226.889 300.71C226.549 299.74 226.379 298.635 226.379 297.395C226.379 296.265 226.534 295.22 226.844 294.26C227.164 293.3 227.624 292.475 228.224 291.785C228.834 291.085 229.579 290.54 230.459 290.15C231.349 289.76 232.369 289.565 233.519 289.565C234.589 289.565 235.529 289.74 236.339 290.09C237.159 290.43 237.884 290.915 238.514 291.545L237.809 292.505ZM251.166 295.745C251.166 295.125 251.076 294.56 250.896 294.05C250.726 293.53 250.471 293.085 250.131 292.715C249.801 292.335 249.396 292.045 248.916 291.845C248.436 291.635 247.891 291.53 247.281 291.53C246.001 291.53 244.986 291.905 244.236 292.655C243.496 293.395 243.036 294.425 242.856 295.745H251.166ZM253.326 302.87C252.996 303.27 252.601 303.62 252.141 303.92C251.681 304.21 251.186 304.45 250.656 304.64C250.136 304.83 249.596 304.97 249.036 305.06C248.476 305.16 247.921 305.21 247.371 305.21C246.321 305.21 245.351 305.035 244.461 304.685C243.581 304.325 242.816 303.805 242.166 303.125C241.526 302.435 241.026 301.585 240.666 300.575C240.306 299.565 240.126 298.405 240.126 297.095C240.126 296.035 240.286 295.045 240.606 294.125C240.936 293.205 241.406 292.41 242.016 291.74C242.626 291.06 243.371 290.53 244.251 290.15C245.131 289.76 246.121 289.565 247.221 289.565C248.131 289.565 248.971 289.72 249.741 290.03C250.521 290.33 251.191 290.77 251.751 291.35C252.321 291.92 252.766 292.63 253.086 293.48C253.406 294.32 253.566 295.28 253.566 296.36C253.566 296.78 253.521 297.06 253.431 297.2C253.341 297.34 253.171 297.41 252.921 297.41H242.766C242.796 298.37 242.926 299.205 243.156 299.915C243.396 300.625 243.726 301.22 244.146 301.7C244.566 302.17 245.066 302.525 245.646 302.765C246.226 302.995 246.876 303.11 247.596 303.11C248.266 303.11 248.841 303.035 249.321 302.885C249.811 302.725 250.231 302.555 250.581 302.375C250.931 302.195 251.221 302.03 251.451 301.88C251.691 301.72 251.896 301.64 252.066 301.64C252.286 301.64 252.456 301.725 252.576 301.895L253.326 302.87Z" fill="#353535"/>
<rect x="0.5" y="0.5" width="299" height="359" rx="7.5" stroke="#C0C0C0"/>
<rect x="360.5" y="0.5" width="299" height="359" rx="7.5" fill="white" fill-opacity="0.9"/>
<g opacity="0.4" clip-path="url(#clip1_220_598)">
<path d="M492.5 76.25H475V58.75H466.25V76.25H448.75V85H466.25V102.5H475V85H492.5V76.25Z" fill="#094B87"/>
<path d="M571.25 93.75V67.5H545V76.25H510V85H545V93.75H553.75V155H545V163.75H483.75V155H475V120H466.25V155H457.5V181.25H483.75V172.5H545V181.25H571.25V155H562.5V93.75H571.25ZM475 172.5H466.25V163.75H475V172.5ZM562.5 172.5H553.75V163.75H562.5V172.5ZM553.75 76.25H562.5V85H553.75V76.25Z" fill="#094B87"/>
</g>
<path d="M504.279 258.66C505.319 258.66 506.245 258.487 507.059 258.14C507.885 257.793 508.579 257.307 509.139 256.68C509.699 256.053 510.125 255.293 510.419 254.4C510.725 253.507 510.879 252.507 510.879 251.4V234.08H516.259V251.4C516.259 253.12 515.979 254.713 515.419 256.18C514.872 257.633 514.079 258.893 513.039 259.96C512.012 261.013 510.759 261.84 509.279 262.44C507.799 263.027 506.132 263.32 504.279 263.32C502.412 263.32 500.739 263.027 499.259 262.44C497.779 261.84 496.519 261.013 495.479 259.96C494.452 258.893 493.659 257.633 493.099 256.18C492.552 254.713 492.279 253.12 492.279 251.4V234.08H497.659V251.38C497.659 252.487 497.805 253.487 498.099 254.38C498.405 255.273 498.839 256.04 499.399 256.68C499.972 257.307 500.665 257.793 501.479 258.14C502.305 258.487 503.239 258.66 504.279 258.66ZM527.326 263H521.926V234.08H527.326V263Z" fill="#333333"/>
<path d="M430.236 302.69C431.126 302.69 431.921 302.54 432.621 302.24C433.321 301.94 433.911 301.52 434.391 300.98C434.881 300.44 435.251 299.795 435.501 299.045C435.761 298.295 435.891 297.47 435.891 296.57V283.505H438.786V296.57C438.786 297.81 438.586 298.96 438.186 300.02C437.796 301.08 437.231 302 436.491 302.78C435.761 303.55 434.866 304.155 433.806 304.595C432.746 305.035 431.556 305.255 430.236 305.255C428.916 305.255 427.726 305.035 426.666 304.595C425.606 304.155 424.706 303.55 423.966 302.78C423.226 302 422.656 301.08 422.256 300.02C421.866 298.96 421.671 297.81 421.671 296.57V283.505H424.566V296.555C424.566 297.455 424.691 298.28 424.941 299.03C425.201 299.78 425.571 300.425 426.051 300.965C426.541 301.505 427.136 301.93 427.836 302.24C428.546 302.54 429.346 302.69 430.236 302.69ZM451.189 292.31C451.069 292.53 450.884 292.64 450.634 292.64C450.484 292.64 450.314 292.585 450.124 292.475C449.934 292.365 449.699 292.245 449.419 292.115C449.149 291.975 448.824 291.85 448.444 291.74C448.064 291.62 447.614 291.56 447.094 291.56C446.644 291.56 446.239 291.62 445.879 291.74C445.519 291.85 445.209 292.005 444.949 292.205C444.699 292.405 444.504 292.64 444.364 292.91C444.234 293.17 444.169 293.455 444.169 293.765C444.169 294.155 444.279 294.48 444.499 294.74C444.729 295 445.029 295.225 445.399 295.415C445.769 295.605 446.189 295.775 446.659 295.925C447.129 296.065 447.609 296.22 448.099 296.39C448.599 296.55 449.084 296.73 449.554 296.93C450.024 297.13 450.444 297.38 450.814 297.68C451.184 297.98 451.479 298.35 451.699 298.79C451.929 299.22 452.044 299.74 452.044 300.35C452.044 301.05 451.919 301.7 451.669 302.3C451.419 302.89 451.049 303.405 450.559 303.845C450.069 304.275 449.469 304.615 448.759 304.865C448.049 305.115 447.229 305.24 446.299 305.24C445.239 305.24 444.279 305.07 443.419 304.73C442.559 304.38 441.829 303.935 441.229 303.395L441.859 302.375C441.939 302.245 442.034 302.145 442.144 302.075C442.254 302.005 442.394 301.97 442.564 301.97C442.744 301.97 442.934 302.04 443.134 302.18C443.334 302.32 443.574 302.475 443.854 302.645C444.144 302.815 444.494 302.97 444.904 303.11C445.314 303.25 445.824 303.32 446.434 303.32C446.954 303.32 447.409 303.255 447.799 303.125C448.189 302.985 448.514 302.8 448.774 302.57C449.034 302.34 449.224 302.075 449.344 301.775C449.474 301.475 449.539 301.155 449.539 300.815C449.539 300.395 449.424 300.05 449.194 299.78C448.974 299.5 448.679 299.265 448.309 299.075C447.939 298.875 447.514 298.705 447.034 298.565C446.564 298.415 446.079 298.26 445.579 298.1C445.089 297.94 444.604 297.76 444.124 297.56C443.654 297.35 443.234 297.09 442.864 296.78C442.494 296.47 442.194 296.09 441.964 295.64C441.744 295.18 441.634 294.625 441.634 293.975C441.634 293.395 441.754 292.84 441.994 292.31C442.234 291.77 442.584 291.3 443.044 290.9C443.504 290.49 444.069 290.165 444.739 289.925C445.409 289.685 446.174 289.565 447.034 289.565C448.034 289.565 448.929 289.725 449.719 290.045C450.519 290.355 451.209 290.785 451.789 291.335L451.189 292.31ZM465.188 295.745C465.188 295.125 465.098 294.56 464.918 294.05C464.748 293.53 464.493 293.085 464.153 292.715C463.823 292.335 463.418 292.045 462.938 291.845C462.458 291.635 461.913 291.53 461.303 291.53C460.023 291.53 459.008 291.905 458.258 292.655C457.518 293.395 457.058 294.425 456.878 295.745H465.188ZM467.348 302.87C467.018 303.27 466.623 303.62 466.163 303.92C465.703 304.21 465.208 304.45 464.678 304.64C464.158 304.83 463.618 304.97 463.058 305.06C462.498 305.16 461.943 305.21 461.393 305.21C460.343 305.21 459.373 305.035 458.483 304.685C457.603 304.325 456.838 303.805 456.188 303.125C455.548 302.435 455.048 301.585 454.688 300.575C454.328 299.565 454.148 298.405 454.148 297.095C454.148 296.035 454.308 295.045 454.628 294.125C454.958 293.205 455.428 292.41 456.038 291.74C456.648 291.06 457.393 290.53 458.273 290.15C459.153 289.76 460.143 289.565 461.243 289.565C462.153 289.565 462.993 289.72 463.763 290.03C464.543 290.33 465.213 290.77 465.773 291.35C466.343 291.92 466.788 292.63 467.108 293.48C467.428 294.32 467.588 295.28 467.588 296.36C467.588 296.78 467.543 297.06 467.453 297.2C467.363 297.34 467.193 297.41 466.943 297.41H456.788C456.818 298.37 456.948 299.205 457.178 299.915C457.418 300.625 457.748 301.22 458.168 301.7C458.588 302.17 459.088 302.525 459.668 302.765C460.248 302.995 460.898 303.11 461.618 303.11C462.288 303.11 462.863 303.035 463.343 302.885C463.833 302.725 464.253 302.555 464.603 302.375C464.953 302.195 465.243 302.03 465.473 301.88C465.713 301.72 465.918 301.64 466.088 301.64C466.308 301.64 466.478 301.725 466.598 301.895L467.348 302.87ZM473.102 292.85C473.582 291.81 474.172 291 474.872 290.42C475.572 289.83 476.427 289.535 477.437 289.535C477.757 289.535 478.062 289.57 478.352 289.64C478.652 289.71 478.917 289.82 479.147 289.97L478.952 291.965C478.892 292.215 478.742 292.34 478.502 292.34C478.362 292.34 478.157 292.31 477.887 292.25C477.617 292.19 477.312 292.16 476.972 292.16C476.492 292.16 476.062 292.23 475.682 292.37C475.312 292.51 474.977 292.72 474.677 293C474.387 293.27 474.122 293.61 473.882 294.02C473.652 294.42 473.442 294.88 473.252 295.4V305H470.567V289.805H472.097C472.387 289.805 472.587 289.86 472.697 289.97C472.807 290.08 472.882 290.27 472.922 290.54L473.102 292.85ZM491.466 305H488.556V283.505H491.466V305ZM498.32 292.01C498.65 291.64 499 291.305 499.37 291.005C499.74 290.705 500.13 290.45 500.54 290.24C500.96 290.02 501.4 289.855 501.86 289.745C502.33 289.625 502.835 289.565 503.375 289.565C504.205 289.565 504.935 289.705 505.565 289.985C506.205 290.255 506.735 290.645 507.155 291.155C507.585 291.655 507.91 292.26 508.13 292.97C508.35 293.68 508.46 294.465 508.46 295.325V305H505.775V295.325C505.775 294.175 505.51 293.285 504.98 292.655C504.46 292.015 503.665 291.695 502.595 291.695C501.805 291.695 501.065 291.885 500.375 292.265C499.695 292.645 499.065 293.16 498.485 293.81V305H495.8V289.805H497.405C497.785 289.805 498.02 289.99 498.11 290.36L498.32 292.01ZM516.689 305.24C515.489 305.24 514.564 304.905 513.914 304.235C513.274 303.565 512.954 302.6 512.954 301.34V292.04H511.124C510.964 292.04 510.829 291.995 510.719 291.905C510.609 291.805 510.554 291.655 510.554 291.455V290.39L513.044 290.075L513.659 285.38C513.689 285.23 513.754 285.11 513.854 285.02C513.964 284.92 514.104 284.87 514.274 284.87H515.624V290.105H520.019V292.04H515.624V301.16C515.624 301.8 515.779 302.275 516.089 302.585C516.399 302.895 516.799 303.05 517.289 303.05C517.569 303.05 517.809 303.015 518.009 302.945C518.219 302.865 518.399 302.78 518.549 302.69C518.699 302.6 518.824 302.52 518.924 302.45C519.034 302.37 519.129 302.33 519.209 302.33C519.349 302.33 519.474 302.415 519.584 302.585L520.364 303.86C519.904 304.29 519.349 304.63 518.699 304.88C518.049 305.12 517.379 305.24 516.689 305.24ZM532.558 295.745C532.558 295.125 532.468 294.56 532.288 294.05C532.118 293.53 531.863 293.085 531.523 292.715C531.193 292.335 530.788 292.045 530.308 291.845C529.828 291.635 529.283 291.53 528.673 291.53C527.393 291.53 526.378 291.905 525.628 292.655C524.888 293.395 524.428 294.425 524.248 295.745H532.558ZM534.718 302.87C534.388 303.27 533.993 303.62 533.533 303.92C533.073 304.21 532.578 304.45 532.048 304.64C531.528 304.83 530.988 304.97 530.428 305.06C529.868 305.16 529.313 305.21 528.763 305.21C527.713 305.21 526.743 305.035 525.853 304.685C524.973 304.325 524.208 303.805 523.558 303.125C522.918 302.435 522.418 301.585 522.058 300.575C521.698 299.565 521.518 298.405 521.518 297.095C521.518 296.035 521.678 295.045 521.998 294.125C522.328 293.205 522.798 292.41 523.408 291.74C524.018 291.06 524.763 290.53 525.643 290.15C526.523 289.76 527.513 289.565 528.613 289.565C529.523 289.565 530.363 289.72 531.133 290.03C531.913 290.33 532.583 290.77 533.143 291.35C533.713 291.92 534.158 292.63 534.478 293.48C534.798 294.32 534.958 295.28 534.958 296.36C534.958 296.78 534.913 297.06 534.823 297.2C534.733 297.34 534.563 297.41 534.313 297.41H524.158C524.188 298.37 524.318 299.205 524.548 299.915C524.788 300.625 525.118 301.22 525.538 301.7C525.958 302.17 526.458 302.525 527.038 302.765C527.618 302.995 528.268 303.11 528.988 303.11C529.658 303.11 530.233 303.035 530.713 302.885C531.203 302.725 531.623 302.555 531.973 302.375C532.323 302.195 532.613 302.03 532.843 301.88C533.083 301.72 533.288 301.64 533.458 301.64C533.678 301.64 533.848 301.725 533.968 301.895L534.718 302.87ZM540.472 292.85C540.952 291.81 541.542 291 542.242 290.42C542.942 289.83 543.797 289.535 544.807 289.535C545.127 289.535 545.432 289.57 545.722 289.64C546.022 289.71 546.287 289.82 546.517 289.97L546.322 291.965C546.262 292.215 546.112 292.34 545.872 292.34C545.732 292.34 545.527 292.31 545.257 292.25C544.987 292.19 544.682 292.16 544.342 292.16C543.862 292.16 543.432 292.23 543.052 292.37C542.682 292.51 542.347 292.72 542.047 293C541.757 293.27 541.492 293.61 541.252 294.02C541.022 294.42 540.812 294.88 540.622 295.4V305H537.937V289.805H539.467C539.757 289.805 539.957 289.86 540.067 289.97C540.177 290.08 540.252 290.27 540.292 290.54L540.472 292.85ZM549.555 305V292.085L547.875 291.89C547.665 291.84 547.49 291.765 547.35 291.665C547.22 291.555 547.155 291.4 547.155 291.2V290.105H549.555V288.635C549.555 287.765 549.675 286.995 549.915 286.325C550.165 285.645 550.515 285.075 550.965 284.615C551.425 284.145 551.975 283.79 552.615 283.55C553.255 283.31 553.975 283.19 554.775 283.19C555.455 283.19 556.08 283.29 556.65 283.49L556.59 284.825C556.57 285.065 556.435 285.195 556.185 285.215C555.945 285.235 555.62 285.245 555.21 285.245C554.75 285.245 554.33 285.305 553.95 285.425C553.58 285.545 553.26 285.74 552.99 286.01C552.72 286.28 552.51 286.635 552.36 287.075C552.22 287.515 552.15 288.06 552.15 288.71V290.105H556.53V292.04H552.24V305H549.555ZM566.93 298.16C565.7 298.2 564.65 298.3 563.78 298.46C562.92 298.61 562.215 298.81 561.665 299.06C561.125 299.31 560.73 299.605 560.48 299.945C560.24 300.285 560.12 300.665 560.12 301.085C560.12 301.485 560.185 301.83 560.315 302.12C560.445 302.41 560.62 302.65 560.84 302.84C561.07 303.02 561.335 303.155 561.635 303.245C561.945 303.325 562.275 303.365 562.625 303.365C563.095 303.365 563.525 303.32 563.915 303.23C564.305 303.13 564.67 302.99 565.01 302.81C565.36 302.63 565.69 302.415 566 302.165C566.32 301.915 566.63 301.63 566.93 301.31V298.16ZM558.305 291.95C559.145 291.14 560.05 290.535 561.02 290.135C561.99 289.735 563.065 289.535 564.245 289.535C565.095 289.535 565.85 289.675 566.51 289.955C567.17 290.235 567.725 290.625 568.175 291.125C568.625 291.625 568.965 292.23 569.195 292.94C569.425 293.65 569.54 294.43 569.54 295.28V305H568.355C568.095 305 567.895 304.96 567.755 304.88C567.615 304.79 567.505 304.62 567.425 304.37L567.125 302.93C566.725 303.3 566.335 303.63 565.955 303.92C565.575 304.2 565.175 304.44 564.755 304.64C564.335 304.83 563.885 304.975 563.405 305.075C562.935 305.185 562.41 305.24 561.83 305.24C561.24 305.24 560.685 305.16 560.165 305C559.645 304.83 559.19 304.58 558.8 304.25C558.42 303.92 558.115 303.505 557.885 303.005C557.665 302.495 557.555 301.895 557.555 301.205C557.555 300.605 557.72 300.03 558.05 299.48C558.38 298.92 558.915 298.425 559.655 297.995C560.395 297.565 561.36 297.215 562.55 296.945C563.74 296.665 565.2 296.505 566.93 296.465V295.28C566.93 294.1 566.675 293.21 566.165 292.61C565.655 292 564.91 291.695 563.93 291.695C563.27 291.695 562.715 291.78 562.265 291.95C561.825 292.11 561.44 292.295 561.11 292.505C560.79 292.705 560.51 292.89 560.27 293.06C560.04 293.22 559.81 293.3 559.58 293.3C559.4 293.3 559.245 293.255 559.115 293.165C558.985 293.065 558.875 292.945 558.785 292.805L558.305 291.95ZM583.882 292.505C583.802 292.615 583.722 292.7 583.642 292.76C583.562 292.82 583.452 292.85 583.312 292.85C583.162 292.85 582.997 292.79 582.817 292.67C582.637 292.54 582.412 292.4 582.142 292.25C581.882 292.1 581.557 291.965 581.167 291.845C580.787 291.715 580.317 291.65 579.757 291.65C579.007 291.65 578.347 291.785 577.777 292.055C577.207 292.315 576.727 292.695 576.337 293.195C575.957 293.695 575.667 294.3 575.467 295.01C575.277 295.72 575.182 296.515 575.182 297.395C575.182 298.315 575.287 299.135 575.497 299.855C575.707 300.565 576.002 301.165 576.382 301.655C576.772 302.135 577.237 302.505 577.777 302.765C578.327 303.015 578.942 303.14 579.622 303.14C580.272 303.14 580.807 303.065 581.227 302.915C581.647 302.755 581.992 302.58 582.262 302.39C582.542 302.2 582.772 302.03 582.952 301.88C583.142 301.72 583.327 301.64 583.507 301.64C583.727 301.64 583.897 301.725 584.017 301.895L584.767 302.87C584.437 303.28 584.062 303.63 583.642 303.92C583.222 304.21 582.767 304.455 582.277 304.655C581.797 304.845 581.292 304.985 580.762 305.075C580.232 305.165 579.692 305.21 579.142 305.21C578.192 305.21 577.307 305.035 576.487 304.685C575.677 304.335 574.972 303.83 574.372 303.17C573.772 302.5 573.302 301.68 572.962 300.71C572.622 299.74 572.452 298.635 572.452 297.395C572.452 296.265 572.607 295.22 572.917 294.26C573.237 293.3 573.697 292.475 574.297 291.785C574.907 291.085 575.652 290.54 576.532 290.15C577.422 289.76 578.442 289.565 579.592 289.565C580.662 289.565 581.602 289.74 582.412 290.09C583.232 290.43 583.957 290.915 584.587 291.545L583.882 292.505ZM597.239 295.745C597.239 295.125 597.149 294.56 596.969 294.05C596.799 293.53 596.544 293.085 596.204 292.715C595.874 292.335 595.469 292.045 594.989 291.845C594.509 291.635 593.964 291.53 593.354 291.53C592.074 291.53 591.059 291.905 590.309 292.655C589.569 293.395 589.109 294.425 588.929 295.745H597.239ZM599.399 302.87C599.069 303.27 598.674 303.62 598.214 303.92C597.754 304.21 597.259 304.45 596.729 304.64C596.209 304.83 595.669 304.97 595.109 305.06C594.549 305.16 593.994 305.21 593.444 305.21C592.394 305.21 591.424 305.035 590.534 304.685C589.654 304.325 588.889 303.805 588.239 303.125C587.599 302.435 587.099 301.585 586.739 300.575C586.379 299.565 586.199 298.405 586.199 297.095C586.199 296.035 586.359 295.045 586.679 294.125C587.009 293.205 587.479 292.41 588.089 291.74C588.699 291.06 589.444 290.53 590.324 290.15C591.204 289.76 592.194 289.565 593.294 289.565C594.204 289.565 595.044 289.72 595.814 290.03C596.594 290.33 597.264 290.77 597.824 291.35C598.394 291.92 598.839 292.63 599.159 293.48C599.479 294.32 599.639 295.28 599.639 296.36C599.639 296.78 599.594 297.06 599.504 297.2C599.414 297.34 599.244 297.41 598.994 297.41H588.839C588.869 298.37 588.999 299.205 589.229 299.915C589.469 300.625 589.799 301.22 590.219 301.7C590.639 302.17 591.139 302.525 591.719 302.765C592.299 302.995 592.949 303.11 593.669 303.11C594.339 303.11 594.914 303.035 595.394 302.885C595.884 302.725 596.304 302.555 596.654 302.375C597.004 302.195 597.294 302.03 597.524 301.88C597.764 301.72 597.969 301.64 598.139 301.64C598.359 301.64 598.529 301.725 598.649 301.895L599.399 302.87Z" fill="#353535"/>
<rect x="360.5" y="0.5" width="299" height="359" rx="7.5" stroke="#C0C0C0"/>
<rect x="2.5" y="420.5" width="299" height="359" rx="7.5" fill="white" fill-opacity="0.9"/>
<g opacity="0.4" clip-path="url(#clip2_220_598)">
<path opacity="0.3" d="M130.462 549.923C120.877 549.923 111.507 547.081 103.538 541.756C95.5683 536.431 89.3569 528.862 85.6889 520.007C82.021 511.152 81.0613 501.408 82.9312 492.007C84.8011 482.607 89.4166 473.972 96.1941 467.194C102.972 460.417 111.607 455.801 121.007 453.931C130.408 452.061 140.152 453.021 149.007 456.689C157.862 460.357 165.431 466.568 170.756 474.538C176.081 482.507 178.923 491.877 178.923 501.462C178.909 514.31 173.798 526.628 164.713 535.713C155.628 544.798 143.31 549.909 130.462 549.923ZM130.462 459.923C122.246 459.923 114.215 462.359 107.384 466.924C100.553 471.488 95.229 477.975 92.085 485.565C88.9411 493.156 88.1185 501.508 89.7212 509.565C91.324 517.623 95.2802 525.024 101.089 530.834C106.899 536.643 114.3 540.599 122.358 542.202C130.415 543.805 138.767 542.982 146.358 539.838C153.948 536.694 160.435 531.37 165 524.539C169.564 517.708 172 509.677 172 501.462C171.987 490.449 167.607 479.891 159.82 472.103C152.033 464.316 141.474 459.936 130.462 459.923Z" fill="#094B87"/>
<path opacity="0.6" d="M152 571.462C142.415 571.462 133.046 568.619 125.076 563.294C117.107 557.969 110.895 550.401 107.228 541.545C103.56 532.69 102.6 522.946 104.47 513.546C106.34 504.145 110.955 495.51 117.733 488.733C124.51 481.955 133.145 477.34 142.546 475.47C151.946 473.6 161.69 474.559 170.546 478.227C179.401 481.895 186.969 488.107 192.294 496.076C197.619 504.046 200.462 513.415 200.462 523C200.447 535.848 195.337 548.166 186.252 557.251C177.166 566.337 164.848 571.447 152 571.462ZM152 481.462C143.785 481.462 135.754 483.898 128.923 488.462C122.092 493.026 116.768 499.514 113.624 507.104C110.48 514.694 109.657 523.046 111.26 531.104C112.863 539.161 116.819 546.563 122.628 552.372C128.437 558.181 135.839 562.138 143.896 563.74C151.954 565.343 160.306 564.52 167.896 561.377C175.486 558.233 181.974 552.908 186.538 546.078C191.102 539.247 193.539 531.216 193.539 523C193.526 511.987 189.146 501.429 181.358 493.642C173.571 485.854 163.013 481.474 152 481.462Z" fill="#094B87"/>
<path d="M173.538 593C163.954 593 154.584 590.158 146.615 584.833C138.645 579.508 132.434 571.939 128.766 563.084C125.098 554.229 124.138 544.485 126.008 535.084C127.878 525.683 132.494 517.048 139.271 510.271C146.048 503.494 154.683 498.878 164.084 497.008C173.485 495.138 183.229 496.098 192.084 499.766C200.939 503.434 208.508 509.645 213.833 517.615C219.158 525.584 222 534.954 222 544.538C221.986 557.387 216.875 569.705 207.79 578.79C198.705 587.875 186.387 592.986 173.538 593ZM173.538 503C165.323 503 157.292 505.436 150.461 510C143.63 514.565 138.306 521.052 135.162 528.642C132.018 536.233 131.195 544.585 132.798 552.642C134.401 560.7 138.357 568.101 144.166 573.911C149.976 579.72 157.377 583.676 165.435 585.279C173.492 586.882 181.844 586.059 189.435 582.915C197.025 579.771 203.512 574.447 208.076 567.616C212.641 560.785 215.077 552.754 215.077 544.538C215.064 533.526 210.684 522.967 202.897 515.18C195.109 507.393 184.551 503.013 173.538 503Z" fill="#094B87"/>
</g>
<path d="M126.45 666H121.05V637.08H126.45V666ZM156.025 666H150.665C150.291 666 149.991 665.907 149.765 665.72C149.551 665.533 149.378 665.32 149.245 665.08L142.545 653.98C142.438 654.313 142.311 654.6 142.165 654.84L135.745 665.08C135.585 665.307 135.398 665.52 135.185 665.72C134.985 665.907 134.718 666 134.385 666H129.365L138.965 651.12L129.745 637.08H135.105C135.478 637.08 135.745 637.133 135.905 637.24C136.078 637.333 136.238 637.493 136.385 637.72L142.965 648.32C143.098 647.987 143.258 647.653 143.445 647.32L149.485 637.82C149.631 637.567 149.791 637.38 149.965 637.26C150.138 637.14 150.358 637.08 150.625 637.08H155.765L146.465 650.9L156.025 666ZM184.641 651.54C184.641 653.66 184.287 655.607 183.581 657.38C182.874 659.153 181.881 660.68 180.601 661.96C179.321 663.24 177.781 664.233 175.981 664.94C174.181 665.647 172.181 666 169.981 666H158.961V637.08H169.981C172.181 637.08 174.181 637.44 175.981 638.16C177.781 638.867 179.321 639.86 180.601 641.14C181.881 642.407 182.874 643.927 183.581 645.7C184.287 647.473 184.641 649.42 184.641 651.54ZM179.121 651.54C179.121 649.953 178.907 648.533 178.481 647.28C178.067 646.013 177.461 644.947 176.661 644.08C175.874 643.2 174.914 642.527 173.781 642.06C172.661 641.593 171.394 641.36 169.981 641.36H164.361V661.72H169.981C171.394 661.72 172.661 661.487 173.781 661.02C174.914 660.553 175.874 659.887 176.661 659.02C177.461 658.14 178.067 657.073 178.481 655.82C178.907 654.553 179.121 653.127 179.121 651.54Z" fill="#333333"/>
<path d="M87.3155 708H84.4055V686.505H87.3155V708ZM94.1694 695.01C94.4994 694.64 94.8494 694.305 95.2194 694.005C95.5894 693.705 95.9794 693.45 96.3894 693.24C96.8094 693.02 97.2494 692.855 97.7094 692.745C98.1794 692.625 98.6844 692.565 99.2244 692.565C100.054 692.565 100.784 692.705 101.414 692.985C102.054 693.255 102.584 693.645 103.004 694.155C103.434 694.655 103.759 695.26 103.979 695.97C104.199 696.68 104.309 697.465 104.309 698.325V708H101.624V698.325C101.624 697.175 101.359 696.285 100.829 695.655C100.309 695.015 99.5144 694.695 98.4444 694.695C97.6544 694.695 96.9144 694.885 96.2244 695.265C95.5444 695.645 94.9144 696.16 94.3344 696.81V708H91.6494V692.805H93.2544C93.6344 692.805 93.8694 692.99 93.9594 693.36L94.1694 695.01ZM112.538 708.24C111.338 708.24 110.413 707.905 109.763 707.235C109.123 706.565 108.803 705.6 108.803 704.34V695.04H106.973C106.813 695.04 106.678 694.995 106.568 694.905C106.458 694.805 106.403 694.655 106.403 694.455V693.39L108.893 693.075L109.508 688.38C109.538 688.23 109.603 688.11 109.703 688.02C109.813 687.92 109.953 687.87 110.123 687.87H111.473V693.105H115.868V695.04H111.473V704.16C111.473 704.8 111.628 705.275 111.938 705.585C112.248 705.895 112.648 706.05 113.138 706.05C113.418 706.05 113.658 706.015 113.858 705.945C114.068 705.865 114.248 705.78 114.398 705.69C114.548 705.6 114.673 705.52 114.773 705.45C114.883 705.37 114.978 705.33 115.058 705.33C115.198 705.33 115.323 705.415 115.433 705.585L116.213 706.86C115.753 707.29 115.198 707.63 114.548 707.88C113.898 708.12 113.228 708.24 112.538 708.24ZM128.407 698.745C128.407 698.125 128.317 697.56 128.137 697.05C127.967 696.53 127.712 696.085 127.372 695.715C127.042 695.335 126.637 695.045 126.157 694.845C125.677 694.635 125.132 694.53 124.522 694.53C123.242 694.53 122.227 694.905 121.477 695.655C120.737 696.395 120.277 697.425 120.097 698.745H128.407ZM130.567 705.87C130.237 706.27 129.842 706.62 129.382 706.92C128.922 707.21 128.427 707.45 127.897 707.64C127.377 707.83 126.837 707.97 126.277 708.06C125.717 708.16 125.162 708.21 124.612 708.21C123.562 708.21 122.592 708.035 121.702 707.685C120.822 707.325 120.057 706.805 119.407 706.125C118.767 705.435 118.267 704.585 117.907 703.575C117.547 702.565 117.367 701.405 117.367 700.095C117.367 699.035 117.527 698.045 117.847 697.125C118.177 696.205 118.647 695.41 119.257 694.74C119.867 694.06 120.612 693.53 121.492 693.15C122.372 692.76 123.362 692.565 124.462 692.565C125.372 692.565 126.212 692.72 126.982 693.03C127.762 693.33 128.432 693.77 128.992 694.35C129.562 694.92 130.007 695.63 130.327 696.48C130.647 697.32 130.807 698.28 130.807 699.36C130.807 699.78 130.762 700.06 130.672 700.2C130.582 700.34 130.412 700.41 130.162 700.41H120.007C120.037 701.37 120.167 702.205 120.397 702.915C120.637 703.625 120.967 704.22 121.387 704.7C121.807 705.17 122.307 705.525 122.887 705.765C123.467 705.995 124.117 706.11 124.837 706.11C125.507 706.11 126.082 706.035 126.562 705.885C127.052 705.725 127.472 705.555 127.822 705.375C128.172 705.195 128.462 705.03 128.692 704.88C128.932 704.72 129.137 704.64 129.307 704.64C129.527 704.64 129.697 704.725 129.817 704.895L130.567 705.87ZM136.321 695.85C136.801 694.81 137.391 694 138.091 693.42C138.791 692.83 139.646 692.535 140.656 692.535C140.976 692.535 141.281 692.57 141.571 692.64C141.871 692.71 142.136 692.82 142.366 692.97L142.171 694.965C142.111 695.215 141.961 695.34 141.721 695.34C141.581 695.34 141.376 695.31 141.106 695.25C140.836 695.19 140.531 695.16 140.191 695.16C139.711 695.16 139.281 695.23 138.901 695.37C138.531 695.51 138.196 695.72 137.896 696C137.606 696.27 137.341 696.61 137.101 697.02C136.871 697.42 136.661 697.88 136.471 698.4V708H133.786V692.805H135.316C135.606 692.805 135.806 692.86 135.916 692.97C136.026 693.08 136.101 693.27 136.141 693.54L136.321 695.85ZM152.415 701.16C151.185 701.2 150.135 701.3 149.265 701.46C148.405 701.61 147.7 701.81 147.15 702.06C146.61 702.31 146.215 702.605 145.965 702.945C145.725 703.285 145.605 703.665 145.605 704.085C145.605 704.485 145.67 704.83 145.8 705.12C145.93 705.41 146.105 705.65 146.325 705.84C146.555 706.02 146.82 706.155 147.12 706.245C147.43 706.325 147.76 706.365 148.11 706.365C148.58 706.365 149.01 706.32 149.4 706.23C149.79 706.13 150.155 705.99 150.495 705.81C150.845 705.63 151.175 705.415 151.485 705.165C151.805 704.915 152.115 704.63 152.415 704.31V701.16ZM143.79 694.95C144.63 694.14 145.535 693.535 146.505 693.135C147.475 692.735 148.55 692.535 149.73 692.535C150.58 692.535 151.335 692.675 151.995 692.955C152.655 693.235 153.21 693.625 153.66 694.125C154.11 694.625 154.45 695.23 154.68 695.94C154.91 696.65 155.025 697.43 155.025 698.28V708H153.84C153.58 708 153.38 707.96 153.24 707.88C153.1 707.79 152.99 707.62 152.91 707.37L152.61 705.93C152.21 706.3 151.82 706.63 151.44 706.92C151.06 707.2 150.66 707.44 150.24 707.64C149.82 707.83 149.37 707.975 148.89 708.075C148.42 708.185 147.895 708.24 147.315 708.24C146.725 708.24 146.17 708.16 145.65 708C145.13 707.83 144.675 707.58 144.285 707.25C143.905 706.92 143.6 706.505 143.37 706.005C143.15 705.495 143.04 704.895 143.04 704.205C143.04 703.605 143.205 703.03 143.535 702.48C143.865 701.92 144.4 701.425 145.14 700.995C145.88 700.565 146.845 700.215 148.035 699.945C149.225 699.665 150.685 699.505 152.415 699.465V698.28C152.415 697.1 152.16 696.21 151.65 695.61C151.14 695 150.395 694.695 149.415 694.695C148.755 694.695 148.2 694.78 147.75 694.95C147.31 695.11 146.925 695.295 146.595 695.505C146.275 695.705 145.995 695.89 145.755 696.06C145.525 696.22 145.295 696.3 145.065 696.3C144.885 696.3 144.73 696.255 144.6 696.165C144.47 696.065 144.36 695.945 144.27 695.805L143.79 694.95ZM169.367 695.505C169.287 695.615 169.207 695.7 169.127 695.76C169.047 695.82 168.937 695.85 168.797 695.85C168.647 695.85 168.482 695.79 168.302 695.67C168.122 695.54 167.897 695.4 167.627 695.25C167.367 695.1 167.042 694.965 166.652 694.845C166.272 694.715 165.802 694.65 165.242 694.65C164.492 694.65 163.832 694.785 163.262 695.055C162.692 695.315 162.212 695.695 161.822 696.195C161.442 696.695 161.152 697.3 160.952 698.01C160.762 698.72 160.667 699.515 160.667 700.395C160.667 701.315 160.772 702.135 160.982 702.855C161.192 703.565 161.487 704.165 161.867 704.655C162.257 705.135 162.722 705.505 163.262 705.765C163.812 706.015 164.427 706.14 165.107 706.14C165.757 706.14 166.292 706.065 166.712 705.915C167.132 705.755 167.477 705.58 167.747 705.39C168.027 705.2 168.257 705.03 168.437 704.88C168.627 704.72 168.812 704.64 168.992 704.64C169.212 704.64 169.382 704.725 169.502 704.895L170.252 705.87C169.922 706.28 169.547 706.63 169.127 706.92C168.707 707.21 168.252 707.455 167.762 707.655C167.282 707.845 166.777 707.985 166.247 708.075C165.717 708.165 165.177 708.21 164.627 708.21C163.677 708.21 162.792 708.035 161.972 707.685C161.162 707.335 160.457 706.83 159.857 706.17C159.257 705.5 158.787 704.68 158.447 703.71C158.107 702.74 157.937 701.635 157.937 700.395C157.937 699.265 158.092 698.22 158.402 697.26C158.722 696.3 159.182 695.475 159.782 694.785C160.392 694.085 161.137 693.54 162.017 693.15C162.907 692.76 163.927 692.565 165.077 692.565C166.147 692.565 167.087 692.74 167.897 693.09C168.717 693.43 169.442 693.915 170.072 694.545L169.367 695.505ZM186.918 708H184.248V695.04H176.418V704.16C176.418 704.8 176.573 705.275 176.883 705.585C177.193 705.895 177.593 706.05 178.083 706.05C178.363 706.05 178.603 706.015 178.803 705.945C179.013 705.865 179.193 705.78 179.343 705.69C179.493 705.6 179.618 705.52 179.718 705.45C179.828 705.37 179.923 705.33 180.003 705.33C180.143 705.33 180.268 705.415 180.378 705.585L181.158 706.86C180.698 707.29 180.143 707.63 179.493 707.88C178.843 708.12 178.173 708.24 177.483 708.24C176.283 708.24 175.358 707.905 174.708 707.235C174.068 706.565 173.748 705.6 173.748 704.34V695.04H171.918C171.758 695.04 171.623 694.995 171.513 694.905C171.403 694.805 171.348 694.655 171.348 694.455V693.39L173.838 693.06L174.453 688.38C174.483 688.23 174.548 688.11 174.648 688.02C174.758 687.92 174.898 687.87 175.068 687.87H176.418V693.105H186.918V708ZM187.578 687.93C187.578 688.19 187.523 688.435 187.413 688.665C187.313 688.885 187.173 689.08 186.993 689.25C186.823 689.42 186.623 689.555 186.393 689.655C186.163 689.755 185.918 689.805 185.658 689.805C185.398 689.805 185.153 689.755 184.923 689.655C184.703 689.555 184.508 689.42 184.338 689.25C184.168 689.08 184.033 688.885 183.933 688.665C183.833 688.435 183.783 688.19 183.783 687.93C183.783 687.67 183.833 687.425 183.933 687.195C184.033 686.955 184.168 686.75 184.338 686.58C184.508 686.4 184.703 686.26 184.923 686.16C185.153 686.06 185.398 686.01 185.658 686.01C185.918 686.01 186.163 686.06 186.393 686.16C186.623 686.26 186.823 686.4 186.993 686.58C187.173 686.75 187.313 686.955 187.413 687.195C187.523 687.425 187.578 687.67 187.578 687.93ZM197.409 692.565C198.519 692.565 199.519 692.75 200.409 693.12C201.299 693.49 202.059 694.015 202.689 694.695C203.319 695.375 203.799 696.2 204.129 697.17C204.469 698.13 204.639 699.205 204.639 700.395C204.639 701.595 204.469 702.675 204.129 703.635C203.799 704.595 203.319 705.415 202.689 706.095C202.059 706.775 201.299 707.3 200.409 707.67C199.519 708.03 198.519 708.21 197.409 708.21C196.289 708.21 195.279 708.03 194.379 707.67C193.489 707.3 192.729 706.775 192.099 706.095C191.469 705.415 190.984 704.595 190.644 703.635C190.314 702.675 190.149 701.595 190.149 700.395C190.149 699.205 190.314 698.13 190.644 697.17C190.984 696.2 191.469 695.375 192.099 694.695C192.729 694.015 193.489 693.49 194.379 693.12C195.279 692.75 196.289 692.565 197.409 692.565ZM197.409 706.125C198.909 706.125 200.029 705.625 200.769 704.625C201.509 703.615 201.879 702.21 201.879 700.41C201.879 698.6 201.509 697.19 200.769 696.18C200.029 695.17 198.909 694.665 197.409 694.665C196.649 694.665 195.984 694.795 195.414 695.055C194.854 695.315 194.384 695.69 194.004 696.18C193.634 696.67 193.354 697.275 193.164 697.995C192.984 698.705 192.894 699.51 192.894 700.41C192.894 702.21 193.264 703.615 194.004 704.625C194.754 705.625 195.889 706.125 197.409 706.125ZM210.246 695.01C210.576 694.64 210.926 694.305 211.296 694.005C211.666 693.705 212.056 693.45 212.466 693.24C212.886 693.02 213.326 692.855 213.786 692.745C214.256 692.625 214.761 692.565 215.301 692.565C216.131 692.565 216.861 692.705 217.491 692.985C218.131 693.255 218.661 693.645 219.081 694.155C219.511 694.655 219.836 695.26 220.056 695.97C220.276 696.68 220.386 697.465 220.386 698.325V708H217.701V698.325C217.701 697.175 217.436 696.285 216.906 695.655C216.386 695.015 215.591 694.695 214.521 694.695C213.731 694.695 212.991 694.885 212.301 695.265C211.621 695.645 210.991 696.16 210.411 696.81V708H207.726V692.805H209.331C209.711 692.805 209.946 692.99 210.036 693.36L210.246 695.01ZM63.2937 731.26C63.2937 732.87 63.0387 734.335 62.5287 735.655C62.0187 736.975 61.2987 738.105 60.3687 739.045C59.4387 739.985 58.3187 740.715 57.0087 741.235C55.7087 741.745 54.2687 742 52.6887 742H44.6637V720.505H52.6887C54.2687 720.505 55.7087 720.765 57.0087 721.285C58.3187 721.795 59.4387 722.525 60.3687 723.475C61.2987 724.415 62.0187 725.545 62.5287 726.865C63.0387 728.185 63.2937 729.65 63.2937 731.26ZM60.3087 731.26C60.3087 729.94 60.1287 728.76 59.7687 727.72C59.4087 726.68 58.8987 725.8 58.2387 725.08C57.5787 724.36 56.7787 723.81 55.8387 723.43C54.8987 723.05 53.8487 722.86 52.6887 722.86H47.5737V739.645H52.6887C53.8487 739.645 54.8987 739.455 55.8387 739.075C56.7787 738.695 57.5787 738.15 58.2387 737.44C58.8987 736.72 59.4087 735.84 59.7687 734.8C60.1287 733.76 60.3087 732.58 60.3087 731.26ZM76.5209 732.745C76.5209 732.125 76.4309 731.56 76.2509 731.05C76.0809 730.53 75.8259 730.085 75.4859 729.715C75.1559 729.335 74.7509 729.045 74.2709 728.845C73.7909 728.635 73.2459 728.53 72.6359 728.53C71.3559 728.53 70.3409 728.905 69.5909 729.655C68.8509 730.395 68.3909 731.425 68.2109 732.745H76.5209ZM78.6809 739.87C78.3509 740.27 77.9559 740.62 77.4959 740.92C77.0359 741.21 76.5409 741.45 76.0109 741.64C75.4909 741.83 74.9509 741.97 74.3909 742.06C73.8309 742.16 73.2759 742.21 72.7259 742.21C71.6759 742.21 70.7059 742.035 69.8159 741.685C68.9359 741.325 68.1709 740.805 67.5209 740.125C66.8809 739.435 66.3809 738.585 66.0209 737.575C65.6609 736.565 65.4809 735.405 65.4809 734.095C65.4809 733.035 65.6409 732.045 65.9609 731.125C66.2909 730.205 66.7609 729.41 67.3709 728.74C67.9809 728.06 68.7259 727.53 69.6059 727.15C70.4859 726.76 71.4759 726.565 72.5759 726.565C73.4859 726.565 74.3259 726.72 75.0959 727.03C75.8759 727.33 76.5459 727.77 77.1059 728.35C77.6759 728.92 78.1209 729.63 78.4409 730.48C78.7609 731.32 78.9209 732.28 78.9209 733.36C78.9209 733.78 78.8759 734.06 78.7859 734.2C78.6959 734.34 78.5259 734.41 78.2759 734.41H68.1209C68.1509 735.37 68.2809 736.205 68.5109 736.915C68.7509 737.625 69.0809 738.22 69.5009 738.7C69.9209 739.17 70.4209 739.525 71.0009 739.765C71.5809 739.995 72.2309 740.11 72.9509 740.11C73.6209 740.11 74.1959 740.035 74.6759 739.885C75.1659 739.725 75.5859 739.555 75.9359 739.375C76.2859 739.195 76.5759 739.03 76.8059 738.88C77.0459 738.72 77.2509 738.64 77.4209 738.64C77.6409 738.64 77.8109 738.725 77.9309 738.895L78.6809 739.87ZM90.7505 729.31C90.6305 729.53 90.4455 729.64 90.1955 729.64C90.0455 729.64 89.8755 729.585 89.6855 729.475C89.4955 729.365 89.2605 729.245 88.9805 729.115C88.7105 728.975 88.3855 728.85 88.0055 728.74C87.6255 728.62 87.1755 728.56 86.6555 728.56C86.2055 728.56 85.8005 728.62 85.4405 728.74C85.0805 728.85 84.7705 729.005 84.5105 729.205C84.2605 729.405 84.0655 729.64 83.9255 729.91C83.7955 730.17 83.7305 730.455 83.7305 730.765C83.7305 731.155 83.8405 731.48 84.0605 731.74C84.2905 732 84.5905 732.225 84.9605 732.415C85.3305 732.605 85.7505 732.775 86.2205 732.925C86.6905 733.065 87.1705 733.22 87.6605 733.39C88.1605 733.55 88.6455 733.73 89.1155 733.93C89.5855 734.13 90.0055 734.38 90.3755 734.68C90.7455 734.98 91.0405 735.35 91.2605 735.79C91.4905 736.22 91.6055 736.74 91.6055 737.35C91.6055 738.05 91.4805 738.7 91.2305 739.3C90.9805 739.89 90.6105 740.405 90.1205 740.845C89.6305 741.275 89.0305 741.615 88.3205 741.865C87.6105 742.115 86.7905 742.24 85.8605 742.24C84.8005 742.24 83.8405 742.07 82.9805 741.73C82.1205 741.38 81.3905 740.935 80.7905 740.395L81.4205 739.375C81.5005 739.245 81.5955 739.145 81.7055 739.075C81.8155 739.005 81.9555 738.97 82.1255 738.97C82.3055 738.97 82.4955 739.04 82.6955 739.18C82.8955 739.32 83.1355 739.475 83.4155 739.645C83.7055 739.815 84.0555 739.97 84.4655 740.11C84.8755 740.25 85.3855 740.32 85.9955 740.32C86.5155 740.32 86.9705 740.255 87.3605 740.125C87.7505 739.985 88.0755 739.8 88.3355 739.57C88.5955 739.34 88.7855 739.075 88.9055 738.775C89.0355 738.475 89.1005 738.155 89.1005 737.815C89.1005 737.395 88.9855 737.05 88.7555 736.78C88.5355 736.5 88.2405 736.265 87.8705 736.075C87.5005 735.875 87.0755 735.705 86.5955 735.565C86.1255 735.415 85.6405 735.26 85.1405 735.1C84.6505 734.94 84.1655 734.76 83.6855 734.56C83.2155 734.35 82.7955 734.09 82.4255 733.78C82.0555 733.47 81.7555 733.09 81.5255 732.64C81.3055 732.18 81.1955 731.625 81.1955 730.975C81.1955 730.395 81.3155 729.84 81.5555 729.31C81.7955 728.77 82.1455 728.3 82.6055 727.9C83.0655 727.49 83.6305 727.165 84.3005 726.925C84.9705 726.685 85.7355 726.565 86.5955 726.565C87.5955 726.565 88.4905 726.725 89.2805 727.045C90.0805 727.355 90.7705 727.785 91.3505 728.335L90.7505 729.31ZM97.3991 726.805V742H94.7291V726.805H97.3991ZM97.9691 722.035C97.9691 722.295 97.9141 722.54 97.8041 722.77C97.7041 722.99 97.5641 723.19 97.3841 723.37C97.2141 723.54 97.0091 723.675 96.7691 723.775C96.5391 723.875 96.2941 723.925 96.0341 723.925C95.7741 723.925 95.5291 723.875 95.2991 723.775C95.0791 723.675 94.8841 723.54 94.7141 723.37C94.5441 723.19 94.4091 722.99 94.3091 722.77C94.2091 722.54 94.1591 722.295 94.1591 722.035C94.1591 721.775 94.2091 721.53 94.3091 721.3C94.4091 721.06 94.5441 720.855 94.7141 720.685C94.8841 720.505 95.0791 720.365 95.2991 720.265C95.5291 720.165 95.7741 720.115 96.0341 720.115C96.2941 720.115 96.5391 720.165 96.7691 720.265C97.0091 720.365 97.2141 720.505 97.3841 720.685C97.5641 720.855 97.7041 721.06 97.8041 721.3C97.9141 721.53 97.9691 721.775 97.9691 722.035ZM106.781 734.575C107.321 734.575 107.796 734.5 108.206 734.35C108.616 734.2 108.961 733.99 109.241 733.72C109.521 733.45 109.731 733.13 109.871 732.76C110.011 732.38 110.081 731.965 110.081 731.515C110.081 730.585 109.796 729.845 109.226 729.295C108.666 728.745 107.851 728.47 106.781 728.47C105.701 728.47 104.876 728.745 104.306 729.295C103.746 729.845 103.466 730.585 103.466 731.515C103.466 731.965 103.536 732.38 103.676 732.76C103.826 733.13 104.041 733.45 104.321 733.72C104.601 733.99 104.946 734.2 105.356 734.35C105.766 734.5 106.241 734.575 106.781 734.575ZM111.596 742.825C111.596 742.455 111.491 742.155 111.281 741.925C111.071 741.695 110.786 741.515 110.426 741.385C110.076 741.255 109.666 741.165 109.196 741.115C108.726 741.055 108.226 741.01 107.696 740.98C107.176 740.95 106.646 740.92 106.106 740.89C105.566 740.86 105.046 740.81 104.546 740.74C103.986 741 103.526 741.33 103.166 741.73C102.816 742.12 102.641 742.58 102.641 743.11C102.641 743.45 102.726 743.765 102.896 744.055C103.076 744.355 103.346 744.61 103.706 744.82C104.066 745.04 104.516 745.21 105.056 745.33C105.606 745.46 106.251 745.525 106.991 745.525C107.711 745.525 108.356 745.46 108.926 745.33C109.496 745.2 109.976 745.015 110.366 744.775C110.766 744.535 111.071 744.25 111.281 743.92C111.491 743.59 111.596 743.225 111.596 742.825ZM114.311 727.405V728.395C114.311 728.725 114.101 728.935 113.681 729.025L111.956 729.25C112.296 729.91 112.466 730.64 112.466 731.44C112.466 732.18 112.321 732.855 112.031 733.465C111.751 734.065 111.361 734.58 110.861 735.01C110.361 735.44 109.761 735.77 109.061 736C108.361 736.23 107.601 736.345 106.781 736.345C106.071 736.345 105.401 736.26 104.771 736.09C104.451 736.29 104.206 736.505 104.036 736.735C103.866 736.955 103.781 737.18 103.781 737.41C103.781 737.77 103.926 738.045 104.216 738.235C104.516 738.415 104.906 738.545 105.386 738.625C105.866 738.705 106.411 738.755 107.021 738.775C107.641 738.795 108.271 738.83 108.911 738.88C109.561 738.92 110.191 738.995 110.801 739.105C111.421 739.215 111.971 739.395 112.451 739.645C112.931 739.895 113.316 740.24 113.606 740.68C113.906 741.12 114.056 741.69 114.056 742.39C114.056 743.04 113.891 743.67 113.561 744.28C113.241 744.89 112.776 745.43 112.166 745.9C111.556 746.38 110.806 746.76 109.916 747.04C109.036 747.33 108.041 747.475 106.931 747.475C105.821 747.475 104.851 747.365 104.021 747.145C103.191 746.925 102.501 746.63 101.951 746.26C101.401 745.89 100.986 745.46 100.706 744.97C100.436 744.49 100.301 743.985 100.301 743.455C100.301 742.705 100.536 742.07 101.006 741.55C101.476 741.03 102.121 740.615 102.941 740.305C102.491 740.105 102.131 739.84 101.861 739.51C101.601 739.17 101.471 738.715 101.471 738.145C101.471 737.925 101.511 737.7 101.591 737.47C101.671 737.23 101.791 736.995 101.951 736.765C102.121 736.525 102.326 736.3 102.566 736.09C102.806 735.88 103.086 735.695 103.406 735.535C102.656 735.115 102.071 734.56 101.651 733.87C101.231 733.17 101.021 732.36 101.021 731.44C101.021 730.7 101.161 730.03 101.441 729.43C101.731 728.82 102.131 728.305 102.641 727.885C103.151 727.455 103.756 727.125 104.456 726.895C105.166 726.665 105.941 726.55 106.781 726.55C107.441 726.55 108.056 726.625 108.626 726.775C109.196 726.915 109.716 727.125 110.186 727.405H114.311ZM119.292 729.01C119.622 728.64 119.972 728.305 120.342 728.005C120.712 727.705 121.102 727.45 121.512 727.24C121.932 727.02 122.372 726.855 122.832 726.745C123.302 726.625 123.807 726.565 124.347 726.565C125.177 726.565 125.907 726.705 126.537 726.985C127.177 727.255 127.707 727.645 128.127 728.155C128.557 728.655 128.882 729.26 129.102 729.97C129.322 730.68 129.432 731.465 129.432 732.325V742H126.747V732.325C126.747 731.175 126.482 730.285 125.952 729.655C125.432 729.015 124.637 728.695 123.567 728.695C122.777 728.695 122.037 728.885 121.347 729.265C120.667 729.645 120.037 730.16 119.457 730.81V742H116.772V726.805H118.377C118.757 726.805 118.992 726.99 119.082 727.36L119.292 729.01ZM145.706 731.41C144.646 731.97 143.846 732.65 143.306 733.45C142.776 734.25 142.511 735.12 142.511 736.06C142.511 736.71 142.631 737.285 142.871 737.785C143.111 738.275 143.426 738.69 143.816 739.03C144.206 739.37 144.651 739.63 145.151 739.81C145.651 739.98 146.161 740.065 146.681 740.065C147.801 740.065 148.806 739.86 149.696 739.45C150.596 739.04 151.381 738.49 152.051 737.8L145.706 731.41ZM159.566 742H156.971C156.681 742 156.446 741.965 156.266 741.895C156.086 741.825 155.891 741.68 155.681 741.46L153.506 739.27C152.566 740.18 151.481 740.905 150.251 741.445C149.031 741.975 147.686 742.24 146.216 742.24C145.416 742.24 144.631 742.105 143.861 741.835C143.101 741.565 142.416 741.175 141.806 740.665C141.196 740.145 140.706 739.515 140.336 738.775C139.966 738.035 139.781 737.2 139.781 736.27C139.781 735.57 139.896 734.91 140.126 734.29C140.366 733.66 140.696 733.08 141.116 732.55C141.536 732.02 142.031 731.545 142.601 731.125C143.171 730.705 143.796 730.345 144.476 730.045C143.866 729.265 143.416 728.515 143.126 727.795C142.836 727.065 142.691 726.31 142.691 725.53C142.691 724.8 142.821 724.115 143.081 723.475C143.351 722.835 143.736 722.28 144.236 721.81C144.736 721.33 145.341 720.955 146.051 720.685C146.771 720.405 147.576 720.265 148.466 720.265C149.256 720.265 149.976 720.395 150.626 720.655C151.276 720.905 151.836 721.24 152.306 721.66C152.776 722.08 153.146 722.57 153.416 723.13C153.696 723.68 153.856 724.255 153.896 724.855L152.231 725.185C151.901 725.265 151.656 725.11 151.496 724.72C151.426 724.46 151.311 724.19 151.151 723.91C151.001 723.63 150.801 723.375 150.551 723.145C150.311 722.915 150.016 722.725 149.666 722.575C149.326 722.425 148.926 722.35 148.466 722.35C147.966 722.35 147.511 722.43 147.101 722.59C146.701 722.75 146.356 722.975 146.066 723.265C145.786 723.545 145.571 723.88 145.421 724.27C145.271 724.65 145.196 725.065 145.196 725.515C145.196 725.865 145.236 726.2 145.316 726.52C145.396 726.84 145.521 727.165 145.691 727.495C145.871 727.825 146.096 728.16 146.366 728.5C146.636 728.84 146.961 729.2 147.341 729.58L153.521 735.865C153.901 735.185 154.206 734.48 154.436 733.75C154.666 733.01 154.816 732.275 154.886 731.545C154.906 731.355 154.966 731.205 155.066 731.095C155.166 730.985 155.306 730.93 155.486 730.93H157.121C157.111 732.08 156.931 733.21 156.581 734.32C156.231 735.42 155.726 736.455 155.066 737.425L159.566 742ZM192.005 720.505V742H189.455V726.205C189.455 725.995 189.46 725.77 189.47 725.53C189.49 725.29 189.51 725.045 189.53 724.795L182.15 738.235C181.92 738.685 181.57 738.91 181.1 738.91H180.68C180.21 738.91 179.86 738.685 179.63 738.235L172.1 724.735C172.16 725.265 172.19 725.755 172.19 726.205V742H169.64V720.505H171.785C172.045 720.505 172.245 720.53 172.385 720.58C172.525 720.63 172.66 720.77 172.79 721L180.215 734.23C180.335 734.47 180.45 734.72 180.56 734.98C180.68 735.24 180.79 735.505 180.89 735.775C180.99 735.505 181.095 735.24 181.205 734.98C181.315 734.71 181.435 734.455 181.565 734.215L188.855 721C188.975 720.77 189.105 720.63 189.245 720.58C189.395 720.53 189.6 720.505 189.86 720.505H192.005ZM202.507 726.565C203.617 726.565 204.617 726.75 205.507 727.12C206.397 727.49 207.157 728.015 207.787 728.695C208.417 729.375 208.897 730.2 209.227 731.17C209.567 732.13 209.737 733.205 209.737 734.395C209.737 735.595 209.567 736.675 209.227 737.635C208.897 738.595 208.417 739.415 207.787 740.095C207.157 740.775 206.397 741.3 205.507 741.67C204.617 742.03 203.617 742.21 202.507 742.21C201.387 742.21 200.377 742.03 199.477 741.67C198.587 741.3 197.827 740.775 197.197 740.095C196.567 739.415 196.082 738.595 195.742 737.635C195.412 736.675 195.247 735.595 195.247 734.395C195.247 733.205 195.412 732.13 195.742 731.17C196.082 730.2 196.567 729.375 197.197 728.695C197.827 728.015 198.587 727.49 199.477 727.12C200.377 726.75 201.387 726.565 202.507 726.565ZM202.507 740.125C204.007 740.125 205.127 739.625 205.867 738.625C206.607 737.615 206.977 736.21 206.977 734.41C206.977 732.6 206.607 731.19 205.867 730.18C205.127 729.17 204.007 728.665 202.507 728.665C201.747 728.665 201.082 728.795 200.512 729.055C199.952 729.315 199.482 729.69 199.102 730.18C198.732 730.67 198.452 731.275 198.262 731.995C198.082 732.705 197.992 733.51 197.992 734.41C197.992 736.21 198.362 737.615 199.102 738.625C199.852 739.625 200.987 740.125 202.507 740.125ZM226.66 742H223.99V729.04H216.16V738.16C216.16 738.8 216.315 739.275 216.625 739.585C216.935 739.895 217.335 740.05 217.825 740.05C218.105 740.05 218.345 740.015 218.545 739.945C218.755 739.865 218.935 739.78 219.085 739.69C219.235 739.6 219.36 739.52 219.46 739.45C219.57 739.37 219.665 739.33 219.745 739.33C219.885 739.33 220.01 739.415 220.12 739.585L220.9 740.86C220.44 741.29 219.885 741.63 219.235 741.88C218.585 742.12 217.915 742.24 217.225 742.24C216.025 742.24 215.1 741.905 214.45 741.235C213.81 740.565 213.49 739.6 213.49 738.34V729.04H211.66C211.5 729.04 211.365 728.995 211.255 728.905C211.145 728.805 211.09 728.655 211.09 728.455V727.39L213.58 727.06L214.195 722.38C214.225 722.23 214.29 722.11 214.39 722.02C214.5 721.92 214.64 721.87 214.81 721.87H216.16V727.105H226.66V742ZM227.32 721.93C227.32 722.19 227.265 722.435 227.155 722.665C227.055 722.885 226.915 723.08 226.735 723.25C226.565 723.42 226.365 723.555 226.135 723.655C225.905 723.755 225.66 723.805 225.4 723.805C225.14 723.805 224.895 723.755 224.665 723.655C224.445 723.555 224.25 723.42 224.08 723.25C223.91 723.08 223.775 722.885 223.675 722.665C223.575 722.435 223.525 722.19 223.525 721.93C223.525 721.67 223.575 721.425 223.675 721.195C223.775 720.955 223.91 720.75 224.08 720.58C224.25 720.4 224.445 720.26 224.665 720.16C224.895 720.06 225.14 720.01 225.4 720.01C225.66 720.01 225.905 720.06 226.135 720.16C226.365 720.26 226.565 720.4 226.735 720.58C226.915 720.75 227.055 720.955 227.155 721.195C227.265 721.425 227.32 721.67 227.32 721.93ZM237.151 726.565C238.261 726.565 239.261 726.75 240.151 727.12C241.041 727.49 241.801 728.015 242.431 728.695C243.061 729.375 243.541 730.2 243.871 731.17C244.211 732.13 244.381 733.205 244.381 734.395C244.381 735.595 244.211 736.675 243.871 737.635C243.541 738.595 243.061 739.415 242.431 740.095C241.801 740.775 241.041 741.3 240.151 741.67C239.261 742.03 238.261 742.21 237.151 742.21C236.031 742.21 235.021 742.03 234.121 741.67C233.231 741.3 232.471 740.775 231.841 740.095C231.211 739.415 230.726 738.595 230.386 737.635C230.056 736.675 229.891 735.595 229.891 734.395C229.891 733.205 230.056 732.13 230.386 731.17C230.726 730.2 231.211 729.375 231.841 728.695C232.471 728.015 233.231 727.49 234.121 727.12C235.021 726.75 236.031 726.565 237.151 726.565ZM237.151 740.125C238.651 740.125 239.771 739.625 240.511 738.625C241.251 737.615 241.621 736.21 241.621 734.41C241.621 732.6 241.251 731.19 240.511 730.18C239.771 729.17 238.651 728.665 237.151 728.665C236.391 728.665 235.726 728.795 235.156 729.055C234.596 729.315 234.126 729.69 233.746 730.18C233.376 730.67 233.096 731.275 232.906 731.995C232.726 732.705 232.636 733.51 232.636 734.41C232.636 736.21 233.006 737.615 233.746 738.625C234.496 739.625 235.631 740.125 237.151 740.125ZM249.988 729.01C250.318 728.64 250.668 728.305 251.038 728.005C251.408 727.705 251.798 727.45 252.208 727.24C252.628 727.02 253.068 726.855 253.528 726.745C253.998 726.625 254.503 726.565 255.043 726.565C255.873 726.565 256.603 726.705 257.233 726.985C257.873 727.255 258.403 727.645 258.823 728.155C259.253 728.655 259.578 729.26 259.798 729.97C260.018 730.68 260.128 731.465 260.128 732.325V742H257.443V732.325C257.443 731.175 257.178 730.285 256.648 729.655C256.128 729.015 255.333 728.695 254.263 728.695C253.473 728.695 252.733 728.885 252.043 729.265C251.363 729.645 250.733 730.16 250.153 730.81V742H247.468V726.805H249.073C249.453 726.805 249.688 726.99 249.778 727.36L249.988 729.01Z" fill="#353535"/>
<rect x="2.5" y="420.5" width="299" height="359" rx="7.5" stroke="#C0C0C0"/>
<rect x="362.5" y="420.5" width="299" height="359" rx="7.5" fill="white" fill-opacity="0.9"/>
<g opacity="0.4" clip-path="url(#clip3_220_598)">
<path d="M582 540L544.685 577.692L539.461 572.415L571.552 540L539.461 507.585L544.685 502.308L582 540Z" fill="#094B87"/>
<path d="M442 540L479.315 577.692L484.539 572.415L452.448 540L484.539 507.585L479.315 502.308L442 540Z" fill="#094B87"/>
<path d="M515.601 489.751L521.866 491.224L498.718 589.687L492.452 588.214L515.601 489.751Z" fill="#094B87"/>
</g>
<path d="M489.157 676.18C489.45 676.18 489.71 676.293 489.937 676.52L492.057 678.82C490.883 680.273 489.437 681.387 487.717 682.16C486.01 682.933 483.957 683.32 481.557 683.32C479.41 683.32 477.477 682.953 475.757 682.22C474.05 681.487 472.59 680.467 471.377 679.16C470.163 677.853 469.23 676.293 468.577 674.48C467.937 672.667 467.617 670.687 467.617 668.54C467.617 666.367 467.963 664.38 468.657 662.58C469.35 660.767 470.323 659.207 471.577 657.9C472.843 656.593 474.35 655.58 476.097 654.86C477.843 654.127 479.777 653.76 481.897 653.76C484.003 653.76 485.87 654.107 487.497 654.8C489.137 655.493 490.53 656.4 491.677 657.52L489.877 660.02C489.77 660.18 489.63 660.32 489.457 660.44C489.297 660.56 489.07 660.62 488.777 660.62C488.577 660.62 488.37 660.567 488.157 660.46C487.943 660.34 487.71 660.2 487.457 660.04C487.203 659.867 486.91 659.68 486.577 659.48C486.243 659.28 485.857 659.1 485.417 658.94C484.977 658.767 484.463 658.627 483.877 658.52C483.303 658.4 482.637 658.34 481.877 658.34C480.583 658.34 479.397 658.573 478.317 659.04C477.25 659.493 476.33 660.16 475.557 661.04C474.783 661.907 474.183 662.973 473.757 664.24C473.33 665.493 473.117 666.927 473.117 668.54C473.117 670.167 473.343 671.613 473.797 672.88C474.263 674.147 474.89 675.213 475.677 676.08C476.463 676.947 477.39 677.613 478.457 678.08C479.523 678.533 480.67 678.76 481.897 678.76C482.63 678.76 483.29 678.72 483.877 678.64C484.477 678.56 485.023 678.433 485.517 678.26C486.023 678.087 486.497 677.867 486.937 677.6C487.39 677.32 487.837 676.98 488.277 676.58C488.41 676.46 488.55 676.367 488.697 676.3C488.843 676.22 488.997 676.18 489.157 676.18ZM503.212 662.16C504.732 662.16 506.112 662.407 507.352 662.9C508.606 663.393 509.672 664.093 510.552 665C511.446 665.907 512.132 667.013 512.612 668.32C513.092 669.627 513.332 671.087 513.332 672.7C513.332 674.327 513.092 675.793 512.612 677.1C512.132 678.407 511.446 679.52 510.552 680.44C509.672 681.36 508.606 682.067 507.352 682.56C506.112 683.053 504.732 683.3 503.212 683.3C501.679 683.3 500.286 683.053 499.032 682.56C497.779 682.067 496.706 681.36 495.812 680.44C494.932 679.52 494.246 678.407 493.752 677.1C493.272 675.793 493.032 674.327 493.032 672.7C493.032 671.087 493.272 669.627 493.752 668.32C494.246 667.013 494.932 665.907 495.812 665C496.706 664.093 497.779 663.393 499.032 662.9C500.286 662.407 501.679 662.16 503.212 662.16ZM503.212 679.5C504.919 679.5 506.179 678.927 506.992 677.78C507.819 676.633 508.232 674.953 508.232 672.74C508.232 670.527 507.819 668.84 506.992 667.68C506.179 666.52 504.919 665.94 503.212 665.94C501.479 665.94 500.192 666.527 499.352 667.7C498.526 668.86 498.112 670.54 498.112 672.74C498.112 674.94 498.526 676.62 499.352 677.78C500.192 678.927 501.479 679.5 503.212 679.5ZM529.581 667.72C529.021 667.04 528.408 666.56 527.741 666.28C527.088 666 526.381 665.86 525.621 665.86C524.874 665.86 524.201 666 523.601 666.28C523.001 666.56 522.488 666.987 522.061 667.56C521.634 668.12 521.308 668.84 521.081 669.72C520.854 670.587 520.741 671.613 520.741 672.8C520.741 674 520.834 675.02 521.021 675.86C521.221 676.687 521.501 677.367 521.861 677.9C522.221 678.42 522.661 678.8 523.181 679.04C523.701 679.267 524.281 679.38 524.921 679.38C525.948 679.38 526.821 679.167 527.541 678.74C528.261 678.313 528.941 677.707 529.581 676.92V667.72ZM534.521 653.28V683H531.501C530.848 683 530.434 682.7 530.261 682.1L529.841 680.12C529.014 681.067 528.061 681.833 526.981 682.42C525.914 683.007 524.668 683.3 523.241 683.3C522.121 683.3 521.094 683.067 520.161 682.6C519.228 682.133 518.421 681.46 517.741 680.58C517.074 679.687 516.554 678.587 516.181 677.28C515.821 675.973 515.641 674.48 515.641 672.8C515.641 671.28 515.848 669.867 516.261 668.56C516.674 667.253 517.268 666.12 518.041 665.16C518.814 664.2 519.741 663.453 520.821 662.92C521.901 662.373 523.114 662.1 524.461 662.1C525.608 662.1 526.588 662.28 527.401 662.64C528.214 663 528.941 663.487 529.581 664.1V653.28H534.521ZM552.216 670.38C552.216 669.74 552.123 669.14 551.936 668.58C551.763 668.007 551.496 667.507 551.136 667.08C550.776 666.653 550.316 666.32 549.756 666.08C549.21 665.827 548.57 665.7 547.836 665.7C546.41 665.7 545.283 666.107 544.456 666.92C543.643 667.733 543.123 668.887 542.896 670.38H552.216ZM542.796 673.36C542.876 674.413 543.063 675.327 543.356 676.1C543.65 676.86 544.036 677.493 544.516 678C544.996 678.493 545.563 678.867 546.216 679.12C546.883 679.36 547.616 679.48 548.416 679.48C549.216 679.48 549.903 679.387 550.476 679.2C551.063 679.013 551.57 678.807 551.996 678.58C552.436 678.353 552.816 678.147 553.136 677.96C553.47 677.773 553.79 677.68 554.096 677.68C554.51 677.68 554.816 677.833 555.016 678.14L556.436 679.94C555.89 680.58 555.276 681.12 554.596 681.56C553.916 681.987 553.203 682.333 552.456 682.6C551.723 682.853 550.97 683.033 550.196 683.14C549.436 683.247 548.696 683.3 547.976 683.3C546.55 683.3 545.223 683.067 543.996 682.6C542.77 682.12 541.703 681.42 540.796 680.5C539.89 679.567 539.176 678.42 538.656 677.06C538.136 675.687 537.876 674.1 537.876 672.3C537.876 670.9 538.103 669.587 538.556 668.36C539.01 667.12 539.656 666.047 540.496 665.14C541.35 664.22 542.383 663.493 543.596 662.96C544.823 662.427 546.203 662.16 547.736 662.16C549.03 662.16 550.223 662.367 551.316 662.78C552.41 663.193 553.35 663.8 554.136 664.6C554.923 665.387 555.536 666.36 555.976 667.52C556.43 668.667 556.656 669.98 556.656 671.46C556.656 672.207 556.576 672.713 556.416 672.98C556.256 673.233 555.95 673.36 555.496 673.36H542.796Z" fill="#333333"/>
<path d="M448.447 720.56C448.607 720.56 448.747 720.625 448.867 720.755L450.022 722C449.142 723.02 448.072 723.815 446.812 724.385C445.562 724.955 444.047 725.24 442.267 725.24C440.727 725.24 439.327 724.975 438.067 724.445C436.807 723.905 435.732 723.155 434.842 722.195C433.952 721.225 433.262 720.065 432.772 718.715C432.282 717.365 432.037 715.88 432.037 714.26C432.037 712.64 432.292 711.155 432.802 709.805C433.312 708.455 434.027 707.295 434.947 706.325C435.877 705.355 436.987 704.605 438.277 704.075C439.567 703.535 440.992 703.265 442.552 703.265C444.082 703.265 445.432 703.51 446.602 704C447.772 704.49 448.802 705.155 449.692 705.995L448.732 707.33C448.672 707.43 448.592 707.515 448.492 707.585C448.402 707.645 448.277 707.675 448.117 707.675C447.937 707.675 447.717 707.58 447.457 707.39C447.197 707.19 446.857 706.97 446.437 706.73C446.017 706.49 445.492 706.275 444.862 706.085C444.232 705.885 443.457 705.785 442.537 705.785C441.427 705.785 440.412 705.98 439.492 706.37C438.572 706.75 437.777 707.305 437.107 708.035C436.447 708.765 435.932 709.655 435.562 710.705C435.192 711.755 435.007 712.94 435.007 714.26C435.007 715.6 435.197 716.795 435.577 717.845C435.967 718.895 436.492 719.785 437.152 720.515C437.822 721.235 438.607 721.785 439.507 722.165C440.417 722.545 441.397 722.735 442.447 722.735C443.087 722.735 443.662 722.7 444.172 722.63C444.692 722.55 445.167 722.43 445.597 722.27C446.037 722.11 446.442 721.91 446.812 721.67C447.192 721.42 447.567 721.125 447.937 720.785C448.107 720.635 448.277 720.56 448.447 720.56ZM458.578 709.565C459.688 709.565 460.688 709.75 461.578 710.12C462.468 710.49 463.228 711.015 463.858 711.695C464.488 712.375 464.968 713.2 465.298 714.17C465.638 715.13 465.808 716.205 465.808 717.395C465.808 718.595 465.638 719.675 465.298 720.635C464.968 721.595 464.488 722.415 463.858 723.095C463.228 723.775 462.468 724.3 461.578 724.67C460.688 725.03 459.688 725.21 458.578 725.21C457.458 725.21 456.448 725.03 455.548 724.67C454.658 724.3 453.898 723.775 453.268 723.095C452.638 722.415 452.153 721.595 451.813 720.635C451.483 719.675 451.318 718.595 451.318 717.395C451.318 716.205 451.483 715.13 451.813 714.17C452.153 713.2 452.638 712.375 453.268 711.695C453.898 711.015 454.658 710.49 455.548 710.12C456.448 709.75 457.458 709.565 458.578 709.565ZM458.578 723.125C460.078 723.125 461.198 722.625 461.938 721.625C462.678 720.615 463.048 719.21 463.048 717.41C463.048 715.6 462.678 714.19 461.938 713.18C461.198 712.17 460.078 711.665 458.578 711.665C457.818 711.665 457.153 711.795 456.583 712.055C456.023 712.315 455.553 712.69 455.173 713.18C454.803 713.67 454.523 714.275 454.333 714.995C454.153 715.705 454.063 716.51 454.063 717.41C454.063 719.21 454.433 720.615 455.173 721.625C455.923 722.625 457.058 723.125 458.578 723.125ZM478.794 713.42C478.294 712.75 477.754 712.285 477.174 712.025C476.594 711.755 475.944 711.62 475.224 711.62C473.814 711.62 472.729 712.125 471.969 713.135C471.209 714.145 470.829 715.585 470.829 717.455C470.829 718.445 470.914 719.295 471.084 720.005C471.254 720.705 471.504 721.285 471.834 721.745C472.164 722.195 472.569 722.525 473.049 722.735C473.529 722.945 474.074 723.05 474.684 723.05C475.564 723.05 476.329 722.85 476.979 722.45C477.639 722.05 478.244 721.485 478.794 720.755V713.42ZM481.464 702.905V725H479.874C479.494 725 479.254 724.815 479.154 724.445L478.914 722.6C478.264 723.38 477.524 724.01 476.694 724.49C475.864 724.97 474.904 725.21 473.814 725.21C472.944 725.21 472.154 725.045 471.444 724.715C470.734 724.375 470.129 723.88 469.629 723.23C469.129 722.58 468.744 721.77 468.474 720.8C468.204 719.83 468.069 718.715 468.069 717.455C468.069 716.335 468.219 715.295 468.519 714.335C468.819 713.365 469.249 712.525 469.809 711.815C470.369 711.105 471.054 710.55 471.864 710.15C472.684 709.74 473.604 709.535 474.624 709.535C475.554 709.535 476.349 709.695 477.009 710.015C477.679 710.325 478.274 710.76 478.794 711.32V702.905H481.464ZM488.201 709.805V725H485.531V709.805H488.201ZM488.771 705.035C488.771 705.295 488.716 705.54 488.606 705.77C488.506 705.99 488.366 706.19 488.186 706.37C488.016 706.54 487.811 706.675 487.571 706.775C487.341 706.875 487.096 706.925 486.836 706.925C486.576 706.925 486.331 706.875 486.101 706.775C485.881 706.675 485.686 706.54 485.516 706.37C485.346 706.19 485.211 705.99 485.111 705.77C485.011 705.54 484.961 705.295 484.961 705.035C484.961 704.775 485.011 704.53 485.111 704.3C485.211 704.06 485.346 703.855 485.516 703.685C485.686 703.505 485.881 703.365 486.101 703.265C486.331 703.165 486.576 703.115 486.836 703.115C487.096 703.115 487.341 703.165 487.571 703.265C487.811 703.365 488.016 703.505 488.186 703.685C488.366 703.855 488.506 704.06 488.606 704.3C488.716 704.53 488.771 704.775 488.771 705.035ZM494.808 712.01C495.138 711.64 495.488 711.305 495.858 711.005C496.228 710.705 496.618 710.45 497.028 710.24C497.448 710.02 497.888 709.855 498.348 709.745C498.818 709.625 499.323 709.565 499.863 709.565C500.693 709.565 501.423 709.705 502.053 709.985C502.693 710.255 503.223 710.645 503.643 711.155C504.073 711.655 504.398 712.26 504.618 712.97C504.838 713.68 504.948 714.465 504.948 715.325V725H502.263V715.325C502.263 714.175 501.998 713.285 501.468 712.655C500.948 712.015 500.153 711.695 499.083 711.695C498.293 711.695 497.553 711.885 496.863 712.265C496.183 712.645 495.553 713.16 494.973 713.81V725H492.288V709.805H493.893C494.273 709.805 494.508 709.99 494.598 710.36L494.808 712.01ZM514.012 717.575C514.552 717.575 515.027 717.5 515.437 717.35C515.847 717.2 516.192 716.99 516.472 716.72C516.752 716.45 516.962 716.13 517.102 715.76C517.242 715.38 517.312 714.965 517.312 714.515C517.312 713.585 517.027 712.845 516.457 712.295C515.897 711.745 515.082 711.47 514.012 711.47C512.932 711.47 512.107 711.745 511.537 712.295C510.977 712.845 510.697 713.585 510.697 714.515C510.697 714.965 510.767 715.38 510.907 715.76C511.057 716.13 511.272 716.45 511.552 716.72C511.832 716.99 512.177 717.2 512.587 717.35C512.997 717.5 513.472 717.575 514.012 717.575ZM518.827 725.825C518.827 725.455 518.722 725.155 518.512 724.925C518.302 724.695 518.017 724.515 517.657 724.385C517.307 724.255 516.897 724.165 516.427 724.115C515.957 724.055 515.457 724.01 514.927 723.98C514.407 723.95 513.877 723.92 513.337 723.89C512.797 723.86 512.277 723.81 511.777 723.74C511.217 724 510.757 724.33 510.397 724.73C510.047 725.12 509.872 725.58 509.872 726.11C509.872 726.45 509.957 726.765 510.127 727.055C510.307 727.355 510.577 727.61 510.937 727.82C511.297 728.04 511.747 728.21 512.287 728.33C512.837 728.46 513.482 728.525 514.222 728.525C514.942 728.525 515.587 728.46 516.157 728.33C516.727 728.2 517.207 728.015 517.597 727.775C517.997 727.535 518.302 727.25 518.512 726.92C518.722 726.59 518.827 726.225 518.827 725.825ZM521.542 710.405V711.395C521.542 711.725 521.332 711.935 520.912 712.025L519.187 712.25C519.527 712.91 519.697 713.64 519.697 714.44C519.697 715.18 519.552 715.855 519.262 716.465C518.982 717.065 518.592 717.58 518.092 718.01C517.592 718.44 516.992 718.77 516.292 719C515.592 719.23 514.832 719.345 514.012 719.345C513.302 719.345 512.632 719.26 512.002 719.09C511.682 719.29 511.437 719.505 511.267 719.735C511.097 719.955 511.012 720.18 511.012 720.41C511.012 720.77 511.157 721.045 511.447 721.235C511.747 721.415 512.137 721.545 512.617 721.625C513.097 721.705 513.642 721.755 514.252 721.775C514.872 721.795 515.502 721.83 516.142 721.88C516.792 721.92 517.422 721.995 518.032 722.105C518.652 722.215 519.202 722.395 519.682 722.645C520.162 722.895 520.547 723.24 520.837 723.68C521.137 724.12 521.287 724.69 521.287 725.39C521.287 726.04 521.122 726.67 520.792 727.28C520.472 727.89 520.007 728.43 519.397 728.9C518.787 729.38 518.037 729.76 517.147 730.04C516.267 730.33 515.272 730.475 514.162 730.475C513.052 730.475 512.082 730.365 511.252 730.145C510.422 729.925 509.732 729.63 509.182 729.26C508.632 728.89 508.217 728.46 507.937 727.97C507.667 727.49 507.532 726.985 507.532 726.455C507.532 725.705 507.767 725.07 508.237 724.55C508.707 724.03 509.352 723.615 510.172 723.305C509.722 723.105 509.362 722.84 509.092 722.51C508.832 722.17 508.702 721.715 508.702 721.145C508.702 720.925 508.742 720.7 508.822 720.47C508.902 720.23 509.022 719.995 509.182 719.765C509.352 719.525 509.557 719.3 509.797 719.09C510.037 718.88 510.317 718.695 510.637 718.535C509.887 718.115 509.302 717.56 508.882 716.87C508.462 716.17 508.252 715.36 508.252 714.44C508.252 713.7 508.392 713.03 508.672 712.43C508.962 711.82 509.362 711.305 509.872 710.885C510.382 710.455 510.987 710.125 511.687 709.895C512.397 709.665 513.172 709.55 514.012 709.55C514.672 709.55 515.287 709.625 515.857 709.775C516.427 709.915 516.947 710.125 517.417 710.405H521.542ZM543.003 706.865C542.913 707.015 542.813 707.13 542.703 707.21C542.603 707.28 542.478 707.315 542.328 707.315C542.158 707.315 541.958 707.23 541.728 707.06C541.498 706.89 541.208 706.705 540.858 706.505C540.518 706.295 540.103 706.105 539.613 705.935C539.133 705.765 538.548 705.68 537.858 705.68C537.208 705.68 536.633 705.77 536.133 705.95C535.643 706.12 535.228 706.355 534.888 706.655C534.558 706.955 534.308 707.31 534.138 707.72C533.968 708.12 533.883 708.555 533.883 709.025C533.883 709.625 534.028 710.125 534.318 710.525C534.618 710.915 535.008 711.25 535.488 711.53C535.978 711.81 536.528 712.055 537.138 712.265C537.758 712.465 538.388 712.675 539.028 712.895C539.678 713.115 540.308 713.365 540.918 713.645C541.538 713.915 542.088 714.26 542.568 714.68C543.058 715.1 543.448 715.615 543.738 716.225C544.038 716.835 544.188 717.585 544.188 718.475C544.188 719.415 544.028 720.3 543.708 721.13C543.388 721.95 542.918 722.665 542.298 723.275C541.688 723.885 540.933 724.365 540.033 724.715C539.143 725.065 538.128 725.24 536.988 725.24C535.588 725.24 534.318 724.99 533.178 724.49C532.038 723.98 531.063 723.295 530.253 722.435L531.093 721.055C531.173 720.945 531.268 720.855 531.378 720.785C531.498 720.705 531.628 720.665 531.768 720.665C531.898 720.665 532.043 720.72 532.203 720.83C532.373 720.93 532.563 721.06 532.773 721.22C532.983 721.38 533.223 721.555 533.493 721.745C533.763 721.935 534.068 722.11 534.408 722.27C534.758 722.43 535.153 722.565 535.593 722.675C536.033 722.775 536.528 722.825 537.078 722.825C537.768 722.825 538.383 722.73 538.923 722.54C539.463 722.35 539.918 722.085 540.288 721.745C540.668 721.395 540.958 720.98 541.158 720.5C541.358 720.02 541.458 719.485 541.458 718.895C541.458 718.245 541.308 717.715 541.008 717.305C540.718 716.885 540.333 716.535 539.853 716.255C539.373 715.975 538.823 715.74 538.203 715.55C537.583 715.35 536.953 715.15 536.313 714.95C535.673 714.74 535.043 714.5 534.423 714.23C533.803 713.96 533.253 713.61 532.773 713.18C532.293 712.75 531.903 712.215 531.603 711.575C531.313 710.925 531.168 710.125 531.168 709.175C531.168 708.415 531.313 707.68 531.603 706.97C531.903 706.26 532.333 705.63 532.893 705.08C533.463 704.53 534.158 704.09 534.978 703.76C535.808 703.43 536.758 703.265 537.828 703.265C539.028 703.265 540.118 703.455 541.098 703.835C542.088 704.215 542.958 704.765 543.708 705.485L543.003 706.865ZM549.789 702.905V715.91H550.479C550.679 715.91 550.844 715.885 550.974 715.835C551.114 715.775 551.259 715.66 551.409 715.49L556.209 710.345C556.349 710.175 556.494 710.045 556.644 709.955C556.804 709.855 557.014 709.805 557.274 709.805H559.689L554.094 715.76C553.824 716.1 553.534 716.365 553.224 716.555C553.404 716.675 553.564 716.815 553.704 716.975C553.854 717.125 553.994 717.3 554.124 717.5L560.064 725H557.679C557.449 725 557.249 724.965 557.079 724.895C556.919 724.815 556.779 724.675 556.659 724.475L551.664 718.25C551.514 718.04 551.364 717.905 551.214 717.845C551.074 717.775 550.854 717.74 550.554 717.74H549.789V725H547.104V702.905H549.789ZM564.858 709.805V725H562.188V709.805H564.858ZM565.428 705.035C565.428 705.295 565.373 705.54 565.263 705.77C565.163 705.99 565.023 706.19 564.843 706.37C564.673 706.54 564.468 706.675 564.228 706.775C563.998 706.875 563.753 706.925 563.493 706.925C563.233 706.925 562.988 706.875 562.758 706.775C562.538 706.675 562.343 706.54 562.173 706.37C562.003 706.19 561.868 705.99 561.768 705.77C561.668 705.54 561.618 705.295 561.618 705.035C561.618 704.775 561.668 704.53 561.768 704.3C561.868 704.06 562.003 703.855 562.173 703.685C562.343 703.505 562.538 703.365 562.758 703.265C562.988 703.165 563.233 703.115 563.493 703.115C563.753 703.115 563.998 703.165 564.228 703.265C564.468 703.365 564.673 703.505 564.843 703.685C565.023 703.855 565.163 704.06 565.263 704.3C565.373 704.53 565.428 704.775 565.428 705.035ZM571.705 702.905V725H569.035V702.905H571.705ZM578.495 702.905V725H575.825V702.905H578.495ZM591.375 712.31C591.255 712.53 591.07 712.64 590.82 712.64C590.67 712.64 590.5 712.585 590.31 712.475C590.12 712.365 589.885 712.245 589.605 712.115C589.335 711.975 589.01 711.85 588.63 711.74C588.25 711.62 587.8 711.56 587.28 711.56C586.83 711.56 586.425 711.62 586.065 711.74C585.705 711.85 585.395 712.005 585.135 712.205C584.885 712.405 584.69 712.64 584.55 712.91C584.42 713.17 584.355 713.455 584.355 713.765C584.355 714.155 584.465 714.48 584.685 714.74C584.915 715 585.215 715.225 585.585 715.415C585.955 715.605 586.375 715.775 586.845 715.925C587.315 716.065 587.795 716.22 588.285 716.39C588.785 716.55 589.27 716.73 589.74 716.93C590.21 717.13 590.63 717.38 591 717.68C591.37 717.98 591.665 718.35 591.885 718.79C592.115 719.22 592.23 719.74 592.23 720.35C592.23 721.05 592.105 721.7 591.855 722.3C591.605 722.89 591.235 723.405 590.745 723.845C590.255 724.275 589.655 724.615 588.945 724.865C588.235 725.115 587.415 725.24 586.485 725.24C585.425 725.24 584.465 725.07 583.605 724.73C582.745 724.38 582.015 723.935 581.415 723.395L582.045 722.375C582.125 722.245 582.22 722.145 582.33 722.075C582.44 722.005 582.58 721.97 582.75 721.97C582.93 721.97 583.12 722.04 583.32 722.18C583.52 722.32 583.76 722.475 584.04 722.645C584.33 722.815 584.68 722.97 585.09 723.11C585.5 723.25 586.01 723.32 586.62 723.32C587.14 723.32 587.595 723.255 587.985 723.125C588.375 722.985 588.7 722.8 588.96 722.57C589.22 722.34 589.41 722.075 589.53 721.775C589.66 721.475 589.725 721.155 589.725 720.815C589.725 720.395 589.61 720.05 589.38 719.78C589.16 719.5 588.865 719.265 588.495 719.075C588.125 718.875 587.7 718.705 587.22 718.565C586.75 718.415 586.265 718.26 585.765 718.1C585.275 717.94 584.79 717.76 584.31 717.56C583.84 717.35 583.42 717.09 583.05 716.78C582.68 716.47 582.38 716.09 582.15 715.64C581.93 715.18 581.82 714.625 581.82 713.975C581.82 713.395 581.94 712.84 582.18 712.31C582.42 711.77 582.77 711.3 583.23 710.9C583.69 710.49 584.255 710.165 584.925 709.925C585.595 709.685 586.36 709.565 587.22 709.565C588.22 709.565 589.115 709.725 589.905 710.045C590.705 710.355 591.395 710.785 591.975 711.335L591.375 712.31Z" fill="#353535"/>
<rect x="362.5" y="420.5" width="299" height="359" rx="7.5" stroke="#C0C0C0"/>
<defs>
<clipPath id="clip0_220_598">
<rect width="140" height="140" fill="white" transform="translate(80 50)"/>
</clipPath>
<clipPath id="clip1_220_598">
<rect width="140" height="140" fill="white" transform="translate(440 50)"/>
</clipPath>
<clipPath id="clip2_220_598">
<rect width="140" height="140" fill="white" transform="translate(82 453)"/>
</clipPath>
<clipPath id="clip3_220_598">
<rect width="140" height="140" fill="white" transform="translate(442 470)"/>
</clipPath>
</defs>
</svg>
