<svg fill="none" height="200" viewBox="0 0 200 200" width="200" xmlns="http://www.w3.org/2000/svg"><path d="m85.7948 62.2243c15.7892-.5648 31.5952-.004 47.3572 1.0234 1.66.1462 3.341.1342 4.975.4887.884.2163 1.839.5587 2.356 1.3738.471.8873.481 1.9227.603 2.9.375 4.8006.486 9.6212.839 14.4218-.683.0841-1.365-.0221-2.048-.0441-12.157-.6389-24.324-1.1696-36.501-1.1856-6.3062.018-12.6205-.0441-18.921.2663-1.5273.2284-3.2558.7471-4.1379 2.129 4.7673.8591 9.5248 1.7864 14.2901 2.6616 15.7938 3.0001 31.5988 5.9341 47.3928 8.9302-.014 3.0402-.008 6.0806-.002 9.1206-8.881-1.492-17.747-3.102-26.623-4.6425-19.0945-3.3405-38.1835-6.7272-57.2842-10.0357.0375-3.3746.1795-6.7472.2486-10.1238.1204-2.6737.0454-5.3834.6413-8.009.4006-1.8525 1.1425-3.7151 2.5257-5.0389 2.3876-2.3993 5.8407-3.0742 9.0551-3.4127 5.0653-.4766 10.1522-.6328 15.2333-.8231zm-27.7948 31.8476c27.3567 5.123 54.704 10.3321 82.056 15.4851.598.148 1.238.16 1.812.383l.069.16c-.15 4.554-.237 9.112-.399 13.667-.104 2.809-.396 5.749-1.821 8.225-1.527 2.559-4.373 3.975-7.188 4.51-4.15.791-8.389.843-12.592 1.077-18.084.834-36.2062.373-54.2612-.889-1.4424-.102-2.9105-.128-4.3115-.535-.7261-.232-1.4759-.606-1.8864-1.287-.44-.893-.4676-1.913-.5761-2.886-.3868-5.313-.592-10.637-.8663-15.956 9.3136.601 18.643.937 27.9744 1.148 9.0097.148 18.0191.146 27.0291.236 1.944.082 4.045-.295 5.519-1.68.215-.251.564-.483.529-.858-4.061-.618-8.098-1.388-12.151-2.064-16.3068-2.83-32.6214-5.634-48.9261-8.48-.0198-3.419.0039-6.8374-.0099-10.2561z" fill="#fff"/></svg>