<svg fill="none" height="200" viewBox="0 0 200 200" width="200" xmlns="http://www.w3.org/2000/svg"><path d="m160.495 100.216c0-33.4191-27.092-60.511-60.5111-60.511-33.4194 0-60.5112 27.0919-60.5112 60.511 0 33.42 27.0918 60.511 60.5112 60.511 33.4191 0 60.5111-27.091 60.5111-60.511z" fill="#fefefe"/><path d="m52.3174 100c0 26.334 21.3489 47.683 47.6826 47.683 26.334 0 47.681-21.349 47.681-47.683 0-26.3339-21.347-47.6829-47.681-47.6829-26.3337 0-47.6826 21.349-47.6826 47.6829z" fill="#9e9e9e"/><path d="m45.2251 100c0 30.252 24.5258 54.775 54.7759 54.775 30.252 0 54.775-24.523 54.775-54.775 0-30.2497-24.523-54.7754-54.775-54.7754-30.2501 0-54.7759 24.5257-54.7759 54.7754zm54.7759-63.4386c35.035 0 63.438 28.4035 63.438 63.4386 0 35.035-28.403 63.439-63.438 63.439-35.0355 0-63.439-28.404-63.439-63.439 0-35.0351 28.4035-63.4386 63.439-63.4386z" fill="#9e9e9e"/><g fill="#231f20"><path d="m100.001 38.1249c16.527 0 32.065 6.4367 43.75 18.1222 11.688 11.6879 18.122 27.225 18.122 43.7529 0 16.528-6.434 32.065-18.122 43.753-11.685 11.688-27.223 18.122-43.75 18.122-16.5283 0-32.0654-6.434-43.7533-18.122-11.6855-11.688-18.1222-27.225-18.1222-43.753 0-34.1179 27.7571-61.8751 61.8755-61.8751zm-65.0025 61.8751c0 17.362 6.7623 33.685 19.0395 45.965 12.2771 12.277 28.6006 19.037 45.963 19.037 35.84 0 64.999-29.159 64.999-65.002 0-17.3619-6.76-33.6855-19.037-45.9626s-28.601-19.0394-45.962-19.0394c-17.3624 0-33.6859 6.7623-45.963 19.0394-12.2772 12.2771-19.0395 28.6007-19.0395 45.9626z"/><path d="m62.4067 117.431c.1592.183.5085.489.6915.639.9195.879 2.9677 1.271 3.9989 1.271 2.0624 0 2.2691-1.483 2.2691-1.998 0-1.179-.9409-1.692-1.6276-2.086l-1.1452-.604c-1.5825-.938-4.3649-2.238-4.3649-6.384 0-1.664.297-3.417 1.4684-4.869 1.0978-1.333 2.5187-1.877 4.5835-1.877 2.3356 0 3.6876.787 4.3767 1.181l-.0072 5.146c-.3207-.332-.9551-.791-1.3234-1.064-.777-.603-1.7179-.905-2.4521-.905-.8483 0-1.169.302-1.3283.454-.2756.301-.5037.845-.5037 1.39 0 1.15 1.6585 1.694 2.1622 1.967l1.2617.696c.3897.212 1.4661.725 2.4284 1.903 1.169 1.424 1.3306 3.239 1.3306 4.356 0 2.029-.7105 3.54-.9172 3.965-1.352 2.633-3.69 3.206-6.0043 3.206-2.2929 0-4.227-.666-4.8923-.998z"/><path d="m82.8721 106.529v16.768h-5.0492l-.0522-16.768h-3.4382v-4.478h12.2676l.0048 4.478z"/><path d="m92.827 111.324c.8482.031 3.7708.06 3.7708-2.692 0-1.333-.5037-2.359-1.8557-2.359-.2756 0-1.6585.031-1.9317.031zm0 4.144-.0285 7.829h-4.7712v-21.246h5.2797c2.578 0 5.0776-.164 6.4082 1.197.5968.604 1.6038 2.177 1.6038 4.869 0 1.451-.276 2.511-.527 3.207-.618 1.725-2.2363 2.267-2.9919 2.721l3.6429 9.252h-5.1778l-2.6826-7.86z"/><path d="m102.924 123.297h5.122v-21.246h-5.122z"/><path d="m115.404 112.353v10.944h-4.937v-21.246h4.937v9.364l3.852-9.364h5.339l-4.367 9.82 4.711 11.426h-5.479c-.732-2.117-4.056-10.944-4.056-10.944z"/><path d="m131.298 114.503v4.204h5.75v4.59h-10.736v-21.244h10.534l.026 4.419h-5.62v3.828h5.083l.016 4.203z"/><path d="m72.0913 76.8334v16.5136h4.8567v4.707h-9.989v-21.2206z"/><path d="m101.864 98.6433c-2.7733 0-4.4223-.9386-5.57-2.148-2.2216-2.3594-2.7491-5.99-2.7491-8.713 0-7.4704 3.3693-11.4028 8.2261-11.4028 2.017 0 4.217.9528 4.217.9528l.012 5.3652c-.458-.5156-1.684-1.3567-3.31-1.3567-1.81 0-3.9676 1.4803-3.9676 6.1706 0 4.8995 2.3166 6.1706 4.1726 6.1706 1.38 0 2.385-.7912 3.048-1.3614l.024 5.2344s-2.407 1.0883-4.103 1.0883z"/><path d="m129.013 83.9425c.689-1.9674 1.306-3.766 2.338-7.0925h5.146c-1.718 3.8397-3.711 8.9221-4.973 12.1298 0 0-.069 6.8668 0 9.0742h-5.042c.093-2.6018 0-9.0742 0-9.0742-.687-1.573-5.177-12.1298-5.177-12.1298h4.773s1.148 2.7372 2.935 7.0925z"/><path d="m112.89 87.8322v10.2218h-4.938v-21.2468h4.938v9.3641l3.849-9.3641h5.341l-4.367 9.8203 5.434 11.4265h-5.479z"/><path d="m78.0532 92.1376c0 3.5831 3.1032 6.4867 6.931 6.4867s6.931-2.9036 6.931-6.4867l-.0024-15.3042h-4.7949v15.3042c0 1.1785-.9552 2.1337-2.1337 2.1337s-2.1337-.9552-2.1337-2.1337v-15.2424h-4.7925z"/></g></svg>