<svg fill="none" height="200" viewBox="0 0 200 200" width="200" xmlns="http://www.w3.org/2000/svg" xmlns:xlink="http://www.w3.org/1999/xlink"><mask id="a" height="16" maskUnits="userSpaceOnUse" width="178" x="11" y="92"><path clip-rule="evenodd" d="m11 107.495h178v-14.9897h-178z" fill="#fff" fill-rule="evenodd"/></mask><path clip-rule="evenodd" d="m17.7862 99.4966-1.1125-2.2931c-.2781-.6712-.5562-1.2865-.5562-1.2865h-.0556l-.5563 1.2865-1.1125 2.2931zm.7232 1.5104h-4.8394l-.8344 1.79h-1.8356l4.9506-10.2358h.3338l4.9506 10.2358h-1.8913zm9.2337-6.712h-1.7244v6.991h1.78c2.5032 0 3.7825-1.3419 3.7825-3.4673-.0556-2.2372-1.2793-3.5237-3.8381-3.5237zm-3.5044-1.566h3.56c3.6157 0 5.5625 2.0694 5.5625 5.0338 0 2.9642-2.0025 5.0342-5.5625 5.0342h-3.56zm20.9707 5.0338c0-2.1254-1.3907-3.5796-3.3375-3.5796-2.0025 0-3.3932 1.4542-3.3932 3.5796 0 2.1253 1.3907 3.5792 3.3932 3.5792 1.9468 0 3.3375-1.4539 3.3375-3.5792zm1.8912 0c0 2.9642-2.1137 5.2572-5.2287 5.2572s-5.2288-2.293-5.2288-5.2572c0-2.9644 2.1138-5.2575 5.2288-5.2575 3.0593 0 5.2287 2.2931 5.2287 5.2575zm3.6713 5.0342v-10.068h1.78v8.557h5.0062l-.5006 1.566h-6.2856zm9.9012-10.068h6.7306l-.5006 1.566h-4.5056v2.6288h4.7281l-.5006 1.5661h-4.2831v4.3621h-1.78v-10.123zm18.1338 5.0338c0-2.1254-1.3907-3.5796-3.3375-3.5796-2.0025 0-3.3932 1.4542-3.3932 3.5796 0 2.1253 1.3907 3.5792 3.3932 3.5792 1.9468 0 3.3375-1.4539 3.3375-3.5792zm1.8356 0c0 2.9642-2.1138 5.2572-5.2288 5.2572s-5.2287-2.293-5.2287-5.2572c0-2.9644 2.1137-5.2575 5.2287-5.2575s5.2288 2.2931 5.2288 5.2575zm7.2312-3.4678h-1.78v6.991h1.78c2.5032 0 3.7825-1.3419 3.7825-3.4673 0-2.2372-1.2793-3.5237-3.7825-3.5237zm-3.56-1.566h3.56c3.6157 0 5.5625 2.0694 5.5625 5.0338 0 2.9642-2.0025 5.0342-5.5625 5.0342h-3.56zm21.0263 5.0338c0-2.1254-1.391-3.5796-3.338-3.5796-2.002 0-3.3926 1.4542-3.3926 3.5796 0 2.1253 1.3906 3.5792 3.3926 3.5792 1.947 0 3.338-1.4539 3.338-3.5792zm1.836 0c0 2.9642-2.114 5.2572-5.229 5.2572-3.1151 0-5.2289-2.293-5.2289-5.2572 0-2.9644 2.1138-5.2575 5.2289-5.2575 3.115 0 5.229 2.2931 5.229 5.2575zm14.295-5.2016v10.2358h-1.724v-4.2512c0-1.2305 0-2.1254 0-2.1254h-.056l-1.224 1.2305-2.336 2.4051-2.336-2.4051-1.224-1.2305h-.055v2.1254 4.2512h-1.725v-10.2358h.39l4.227 4.4185.668.7271.723-.7271 4.227-4.4185z" fill="#fff" fill-rule="evenodd"/><g mask="url(#a)"><path clip-rule="evenodd" d="m125.588 102.797h1.78v-10.068h-1.78zm14.462-10.068v10.123h-.389l-5.007-5.0333c-.834-.839-1.446-1.3983-1.446-1.3983v1.3983 5.0333h-1.78v-10.179h.39l4.95 5.0338c.779.7831 1.446 1.3983 1.446 1.3983s0-.839 0-1.3983v-4.9778zm8.844 10.291c-3.003 0-5.173-2.293-5.173-5.2572 0-2.9644 2.17-5.2575 5.173-5.2575 2.392 0 4.284 1.4542 4.951 3.5236h-2.002c-.557-1.1745-1.614-1.9016-2.949-1.9016-1.891 0-3.337 1.4542-3.337 3.5795 0 2.1813 1.446 3.5792 3.337 3.5792 1.558 0 2.67-.894 3.06-2.2928h-3.06l.501-1.566h4.561v.2796c0 2.9642-2.002 5.3132-5.062 5.3132zm17.244-10.291v6.0405c0 2.9085-1.947 4.3065-4.283 4.3065s-4.339-1.398-4.339-4.3065v-6.0405h1.78v5.9846c0 1.5664.835 2.6844 2.559 2.6844s2.503-1.174 2.503-2.6844v-5.9846zm4.061 10.068v-10.068h7.175l-.5 1.566h-4.951v2.6288h5.173l-.5 1.5661h-4.673v2.7961h5.451l-.5 1.566h-6.675zm18.801-1.567-.501 1.567h-8.399v-.056l5.729-8.5019h-5.506l.5-1.5661h8.121v.056l-5.729 8.501zm-177.9443 4.699h9.2337l.7788 1.566h-10.0125zm73.2581 0h9.2337l.7788 1.566h-9.9569v-1.566z" fill="#fff" fill-rule="evenodd"/></g></svg>