<svg fill="none" height="200" viewBox="0 0 200 200" width="200" xmlns="http://www.w3.org/2000/svg"><path d="m100 43c-31.5156 0-57 25.4844-57 57 0 31.516 25.4844 57 57 57 31.516 0 57-25.484 57-57 0-31.3458-25.145-57-57-57" fill="#2c2c2c"/><path d="m116.99 57.0164-16.905 56.0656-.0852.085-.1698-.085-16.9047-56.0656-21.8315 71.7806h4.0774s2.7184-12.487 7.2206-19.962c2.4635-4.078 6.2012-7.391 11.2131-7.306 3.5678.085 6.626 2.039 10.4486 7.391.8495 1.189 1.8689 3.143 2.8883 5.011 1.6139 3.143 2.9731 6.372 2.9731 6.372s3.5681-8.155 5.8611-11.383c3.823-5.352 6.881-7.306 10.449-7.391 5.012-.085 8.834 3.228 11.213 7.306 4.502 7.475 7.221 19.962 7.221 19.962h4.077z" fill="#fff"/></svg>