<svg fill="none" height="200" viewBox="0 0 200 200" width="200" xmlns="http://www.w3.org/2000/svg"><g clip-rule="evenodd" fill-rule="evenodd"><path d="m130.951 93.3984c-2.509-.2575-6.352 2.1204-8.556 5.2898-2.207 3.1728-1.959 5.9668.55 6.2248 2.51.257 6.352-2.118 8.556-5.287 2.205-3.1758 1.957-5.9701-.55-6.2276zm-76.5923-2.788c-1.5363-.1462-3.6579 1.1953-4.7234 2.9819-1.0656 1.7866-.6775 3.3665.8588 3.5096s3.6579-1.1953 4.7234-2.9819c1.0656-1.7866.6807-3.3697-.8588-3.5096zm-19.358.9346 52.0625-22.8251c1.2755-.5977 2.8245-.6581 4.4149-.6358l.2735 27.9083c-.0381 4.0055 2.1788 4.0466 2.9963-.9473 3.168-19.2837 53.4711-46.9346 68.0901-12.6937 14.212 33.2806-45.691 63.2556-64.6931 40.9676l-6.476-.324.1559 10.878-36.4069-.156-.0134-10.868-16.4063-.255c-1.8671-.006-3.9632-.381-3.9632-2.591l-.035-28.458z" fill="#dfdfdf"/><path d="m130.952 93.3984c-2.51-.2575-6.352 2.1204-8.556 5.2898-2.208 3.1728-1.96 5.9668.55 6.2248 2.51.257 6.352-2.118 8.556-5.287 2.204-3.1758 1.956-5.9701-.55-6.2276zm-39.346-12.4903.1463 15.0843c-.0381 4.0055 2.1788 4.0466 2.9963-.9473 1.0973-6.6727 7.8374-14.3468 16.7884-20.1103l29.129-8.7295c9.227.6136 17.513 5.2326 22.17 16.1461 14.211 33.2806-45.692 63.2556-64.6936 40.9676l-6.476-.324.1559 10.878-36.4069-.156-.0134-10.869-16.4063-.254c-1.8671-.006-3.9632-.381-3.9632-2.591l-.0286-22.135 14.7078-4.4092c-.0286.0444-.054.0889-.0795.1335-1.0623 1.7898-.6775 3.3666.8588 3.5096 1.5363.1431 3.6579-1.1953 4.7234-2.9818.5599-.9378.7157-1.8184.5217-2.4638l35.8693-10.7481z" fill="#d2d2d2"/><path d="m130.951 93.3984c-2.509-.2575-6.352 2.1204-8.556 5.2898-2.207 3.1728-1.959 5.9668.55 6.2248 2.51.257 6.352-2.118 8.556-5.287 2.205-3.1758 1.957-5.9701-.55-6.2276zm-39.1421 3.7099c.3149 2.5463 1.8384 2.4637 2.6814-.8043l65.2817-19.5603c1.142 1.6499 2.176 3.5096 3.069 5.6077 14.212 33.2806-45.691 63.2556-64.6929 40.9676l-6.476-.324.1559 10.878-36.4069-.156-.0134-10.868-16.4063-.255c-1.8671-.006-3.9632-.381-3.9632-2.591l-.006-5.881 56.7764-17.0137z" fill="#bfbfbf"/><path d="m164.829 89.7775c3.441 30.0665-49.108 54.1545-66.6845 33.5415l-6.4761-.324.1559 10.878-36.4068-.156-.0134-10.868-.9002-.014 66.4011-19.9c.115 1.103.802 1.847 2.039 1.974 2.462.254 6.206-2.028 8.429-5.1088" fill="#b0b0b0"/><path d="m91.724 126.727.105 7.146-23.6171-.101zm69.725-20.892c-11.403 20.962-47.231 33.595-62.2216 18.641z" fill="#999"/><g fill="#fff"><path d="m149.867 132.465-6.221-15.987h3.813l4.402 11.832 4.263-11.832h3.727l-6.231 15.987"/><path d="m133.458 132.465v-13.279h-5.372v-2.708h14.393v2.708h-5.36v13.279"/></g></g></svg>