<svg fill="none" height="200" viewBox="0 0 200 200" width="200" xmlns="http://www.w3.org/2000/svg"><path clip-rule="evenodd" d="m107.737 37.4674-3.093.7734 3.093.6635zm5.3 16.1445h-10.715l5.193-12.3943zm-12.633.416-.017-.7219h-.3918c-15.4229 0-29.4157 6.3251-39.5643 16.5044-10.1409 10.1917-16.4299 24.2563-16.4299 39.7456 0 1.364.0514 2.716.1481 4.06h.7116c-.0967-1.346-.1481-2.696-.1481-4.06 0-15.2903 6.215-29.1746 16.2304-39.236 10.0075-10.0606 23.8303-16.2928 39.0529-16.2928.1321.0007.2741.0007.4081.0007zm-27.7911 35.5314h59.0951c.44 1.1083 1.431 1.8802 1.431 1.8802s.887-.9959 1.224-1.8802h1.542c.212.3168.399.7633.695 1.4722v.0001.0003c.32.7666.768 1.8403 1.516 3.3891h-66.2739c.1099-.1054.8815-3.9774.7708-4.8617zm33.3011 10.9477c-1.482-.934-6.8193-4.2995-13.0846.334h-35.5659c.7328-.664 1.4221-1.9148 2.0932-3.1329v-.0001c.3367-.6111.6688-1.2139.9994-1.7299h78.5289c.55 1.4314 1.993 3.9782 2.766 4.7499h-35.344c-.043 0-.177-.084-.393-.221zm10.993-16.9185h3.978c0 1.2144.773 3.0947 1.989 4.5323h-50.1521s-.1107-.9959-.2143-1.55c-.2276-1.3261-.8839-2.4344-1.2151-2.9823h11.7028c-1.0982 1.102-1.0982 2.4281-1.0982 2.6459 0 .448.2143.448.2143.448h2.6578l.7732-3.0939h30.7036l.441.8843h.22zm-1.889-28.222-.161.7032c9.269 2.6038 17.564 7.5919 24.195 14.2496 10.019 10.0637 16.222 23.944 16.222 39.2407 0 1.366-.05 2.719-.151 4.054l.728.005c.095-1.346.149-2.693.149-4.059 0-15.4957-6.296-29.5548-16.444-39.7496-6.722-6.7466-15.139-11.8019-24.538-14.4439zm-55.0995 51.3385v-4.202h31.2558c-1.2104 1.655-2.0974 4.202-2.0974 4.202zm78.8565-4.31h-30.928c.444.439 1.775 2.767 2.324 4.311h28.603zm-50.5827 11.172s-29.3766.107-29.3766 0c.6632-.996 1.0989-3.762 1.0989-4.644h28.7204c-.332 1.432-.4427 4.644-.4427 4.644zm52.2297-.003c-1.104-1.434-1.545-4.202-1.545-4.642 0 0-28.163.113-28.163 0 .019.178.05.421.085.703v.001c.161 1.288.425 3.395.247 3.938zm-48.9154-38.1582h22.5284c.324 3.2309 1.803 6.5708 1.877 6.7392.002.0044.003.0066.003.0066h-23.8551v-5.7523zm.2187-2.3259h-1.431c.2199.4969.2477.5241.2757.5514.0279.0273.0561.0548.2762.5514h22.8658s-.439-.2177-.668-1.8825v-3.7613l-1.318-.5494v-2.3189h-8.281v2.3189l-1.443.7719v1.8826s-.44.1092-1.104-1.1029c-.55-1.1145-.773-2.2135-.773-2.2135-.657 2.6545-1.2198 3.5349-1.2198 3.5349-.7685 1.5469-1.5424 2.2174-1.7591 2.2174h-.8792s-.1114-.6705.7678-1.4424l-2.7623-5.9669h-.4395l-2.7677 5.9669c.7716.6634.6601 1.4424.6601 1.4424zm28.5137 50.6271h4.726v.001h-.003v.406c-.546.094-.952.261-1.235.501-.397.358-.75.907-1.061 1.644l-5.342 12.637h-.415l-5.736-12.802c-.296-.659-.502-1.057-.624-1.204-.186-.227-.415-.403-.694-.531-.275-.131-.643-.208-1.111-.245v-.406h6.257v.406c-.709.063-1.168.183-1.381.346-.208.169-.315.384-.315.647 0 .366.172.934.521 1.708l3.895 8.705 3.613-8.594c.357-.848.534-1.437.534-1.764 0-.212-.111-.416-.329-.61-.22-.189-.586-.325-1.106-.407l-.194-.032zm-76.1888-.004v.415h.5846c.5759 0 1.0276.146 1.3152.463.219.244.3166.836.3166 1.756v9.586c0 .834-.0682 1.385-.2435 1.634-.2814.399-.75.585-1.3883.585h-.5846v.415h7.2339c1.7264 0 3.0104-.151 3.8483-.464.8441-.31 1.492-.808 1.9729-1.488.4816-.672.7307-1.382.7307-2.121 0-.971-.3704-1.793-1.0961-2.464-.5253-.481-1.323-.83-2.3869-1.049.9072-.286 1.6011-.707 2.0703-1.292.463-.592.7063-1.253.7063-2 0-.872-.3065-1.646-.9012-2.318-.5947-.666-1.4493-1.128-2.5818-1.39-.7451-.175-1.733-.268-2.9714-.268zm6.4301.732c1.3998 0 2.4573.312 3.1907.926.7272.612 1.096 1.352 1.096 2.22 0 .564-.1445 1.092-.4384 1.561-.2868.474-.71.821-1.2665 1.049-.5503.231-1.3838.341-2.4844.341h-.0681c-.3959 0-.7655 0-1.101-.024-.3616-.024-.6929-.069-.9742-.122v-5.707c.6048-.16 1.2938-.244 2.0459-.244zm-.0487 6.853c1.0693 0 2.0015.157 2.7279.464.7272.307 1.2527.734 1.5832 1.268.3242.531.4628 1.083.4628 1.659 0 .875-.3389 1.601-1.0474 2.195-.7147.595-1.7725.902-3.142.902-.8433 0-1.708-.094-2.5817-.292v-6.098c.2018-.04.474-.058.8037-.073l.0534-.002h.001c.3238-.011.6935-.023 1.1391-.023zm14.9369-2.763h3.5276l-.0008 6.074c0 1.164.0234 1.872.081 2.131.0577.261.1497.44.2705.541.127.105.2705.153.4372.153.2362 0 .495-.058.7888-.186l.1551.384-3.0903 1.237h-.5067v-2.123c-.8916.935-1.5712 1.521-2.0373 1.761-.4661.245-.9603.362-1.4786.362-.5814 0-1.0826-.159-1.5081-.484-.4201-.326-.7194-.744-.8862-1.256-.166-.511-.2471-1.233-.2471-2.168v-4.477c0-.476-.0514-.805-.1551-.988-.1091-.183-.2642-.321-.4715-.422-.2073-.097-.5815-.143-1.1224-.134v-.407h3.6258v6.713c0 .935.1668 1.547.5004 1.838.3391.295.7428.441 1.2143.441.3282 0 .6906-.102 1.099-.295.4146-.199.9033-.575 1.4676-1.129v-5.684c0-.568-.1091-.952-.3281-1.155-.2128-.198-.6555-.305-1.3351-.321zm19.3019 1.829v-2.127h-.4871l-3.1192 1.227.1707.395c.2915-.11.5479-.164.7537-.164.2003 0 .357.049.4715.142.1154.093.2058.275.2611.538.0554.262.0803.993.0803 2.197v3.726c0 .729-.0904 1.222-.2712 1.484-.1855.256-.5479.389-1.0702.389h-.226v.392h5.1145v-.392c-.5627 0-.9345-.052-1.12-.149-.1863-.099-.3313-.254-.4373-.469-.0802-.161-.1208-.579-.1208-1.255v-5.29c.8839-.948 1.7786-1.422 2.6726-1.422.5776 0 .9945.205 1.2362.616.2455.414.3663 1.076.3663 1.989v4.108c0 .575-.0148.922-.0452 1.028-.0702.276-.2058.485-.3967.628-.191.142-.5332.217-1.0148.217h-.2159v.392h5.1183v-.392c-.4972 0-.8386-.051-1.0194-.153-.1863-.107-.3219-.246-.4022-.43-.1052-.225-.1613-.658-.1613-1.29v-4.282c0-.906-.0803-1.578-.2463-2.016-.2362-.627-.5628-1.08-.9743-1.351-.4022-.274-.8893-.411-1.4567-.411-1.0943 0-2.2494.709-3.4606 2.125zm4.4998 23.674v-2.127h-.4575l-2.9283 1.22.0001-.008c0-.315-.1279-.602-.3835-.846-.2556-.245-.5822-.368-.9704-.368-.8581 0-1.696.75-2.5136 2.258l.0008-2.255h-.4442l-2.9524 1.223.1067.398c.276-.109.5261-.164.7413-.164.1886 0 .3421.05.4645.153.1278.101.2143.264.2556.486.046.224.071.919.071 2.084v3.888c0 .587-.0203.938-.0507 1.065-.0717.254-.1941.439-.3733.556-.2448.162-.6134.245-1.1084.245v.391h4.9906v-.391c-.4388 0-.7708-.067-1.0062-.199-.2346-.132-.3983-.295-.4903-.494-.1379-.285-.2042-.707-.2042-1.259v-4.806c.3422-.687.6688-1.182.9907-1.48.148-.147.2868-.217.4138-.217.1481 0 .378.126.6898.378.3071.25.5877.377.8324.377.2603 0 .4801-.097.6641-.296.1757-.189.2675-.417.2753-.689l.1502.372c.2775-.109.516-.164.7108-.164.1848 0 .336.049.4427.143.1123.092.1949.271.244.538.0585.261.0826.993.0826 2.196v3.726c0 .729-.0873 1.221-.258 1.482-.1753.259-.5113.39-1.007.39h-.2159v.392h4.823v-.392c-.5308 0-.8807-.051-1.0561-.15-.1754-.097-.311-.252-.4138-.466-.078-.161-.1162-.58-.1162-1.256v-5.289c.8371-.949 1.6835-1.424 2.5253-1.424.5456 0 .9345.206 1.1683.618.2284.413.3453 1.075.3453 1.988v4.108c0 .575-.0148.921-.0436 1.027-.0733.277-.1996.485-.3796.629-.1801.143-.4965.217-.954.217h-.1995v.392h4.8229v-.392c-.4676 0-.7887-.051-.9586-.153-.1754-.106-.3017-.247-.3796-.432-.1021-.223-.1559-.657-.1559-1.288v-4.282c0-.905-.0725-1.577-.2284-2.015-.2236-.629-.5299-1.082-.915-1.355-.3842-.271-.8417-.408-1.3772-.408-1.0374-.002-2.127.707-3.2704 2.125zm43.6178-2.127v2.127c1.14-1.418 2.232-2.127 3.268-2.125.534 0 .991.137 1.372.408.386.273.694.726.919 1.355.157.438.232 1.11.232 2.015v4.282c0 .631.052 1.065.154 1.288.074.185.203.326.378.432.169.102.491.153.961.153v.392h-4.827v-.392h.204c.454 0 .775-.074.953-.217.181-.144.306-.352.377-.629.028-.106.043-.452.043-1.027v-4.108c0-.913-.115-1.575-.343-1.988-.233-.412-.623-.618-1.168-.618-.843 0-1.687.475-2.522 1.424v5.289c0 .676.037 1.095.115 1.256.096.214.236.369.413.466.175.099.526.15 1.055.15v.392h-4.822v-.392h.213c.492 0 .829-.131 1.008-.39.171-.261.256-.753.256-1.482v-3.726c0-1.203-.025-1.935-.08-2.196-.05-.267-.132-.446-.245-.538-.108-.094-.255-.143-.442-.143-.195 0-.437.055-.71.164l-.161-.398 2.941-1.224zm-77.528 2.127v-2.127h-.4614l-2.9391 1.224.1621.398c.2759-.109.516-.164.7077-.164.1855 0 .3359.049.4435.143.1138.092.1917.271.2455.538.0538.261.0779.993.0779 2.196v3.726c0 .729-.0841 1.221-.2579 1.482-.1739.259-.5098.39-1.007.39h-.2105v.392h4.8214v-.392c-.5339 0-.8815-.051-1.0615-.15-.1738-.097-.3118-.252-.4076-.466-.078-.161-.1138-.58-.1138-1.256v-5.289c.8339-.949 1.6796-1.424 2.5252-1.424.5394 0 .9291.206 1.1629.618.2276.413.3476 1.075.3476 1.988v4.108c0 .575-.0179.921-.0475 1.027-.0663.277-.1925.485-.378.629-.1738.143-.4981.217-.947.217h-.2104v.392h4.8338v-.392c-.4738 0-.7973-.051-.9656-.153-.1739-.106-.3001-.247-.3781-.432-.1013-.223-.1558-.657-.1558-1.288v-4.282c0-.905-.0717-1.577-.2276-2.015-.2276-.629-.5339-1.082-.9174-1.355-.3842-.271-.8394-.408-1.3733-.408-1.0374-.002-2.1286.707-3.2681 2.125zm48.165-93.5524s-1.103-.3286-1.103-1.9934l1.103.0008v-3.6496h8.289v3.8713h1.097c.065.9939-.254 1.2224-.566 1.4458-.244.1748-.483.3465-.531.8793v3.3171h-8.398zm20.393 91.4224c-.808 0-1.594.221-2.314.659-.727.433-1.31 1.115-1.754 2.024-.443.908-.658 1.807-.658 2.732 0 1.259.369 2.396 1.096 3.415.868 1.202 2.034 1.805 3.508 1.805.904 0 1.725-.239 2.46-.708.736-.468 1.307-1.152 1.729-2.073.417-.921.609-1.831.609-2.732 0-1.274-.357-2.405-1.12-3.39-.897-1.153-2.078-1.732-3.556-1.732zm-.341.708c.781 0 1.421.344 1.924 1.048.749 1.022 1.12 2.438 1.12 4.22 0 1.425-.208 2.412-.657 3-.45.582-1.019.878-1.705.878-.923 0-1.677-.528-2.241-1.585s-.853-2.32-.853-3.781c0-.903.129-1.643.366-2.219.232-.579.544-.986.925-1.22.38-.229.747-.341 1.121-.341zm24.455-23.586c.662-.524 1.578-.78 2.776-.78.914 0 1.673.139 2.266.439.443.228.762.591.974 1.073.134.316.219.954.219 1.927v3.39c0 .958.009 1.538.049 1.756.036.212.11.367.195.439.087.076.181.122.292.122.122 0 .229-.046.317-.098.155-.094.452-.345.901-.78v.61c-.842 1.094-1.643 1.634-2.412 1.634-.367 0-.655-.117-.876-.366-.221-.247-.335-.671-.341-1.268-1.064.794-1.73 1.24-1.998 1.366-.402.184-.833.292-1.291.292-.716 0-1.315-.258-1.778-.731-.464-.473-.682-1.081-.682-1.854 0-.49.115-.91.341-1.268.308-.495.845-.973 1.608-1.415.762-.438 2.02-.959 3.8-1.585v-.415c0-.998-.159-1.675-.488-2.049-.327-.371-.788-.561-1.412-.561-.475 0-.867.114-1.145.366-.283.247-.414.534-.414.854l.024.634c0 .336-.091.598-.268.78-.18.184-.423.269-.706.269-.284 0-.505-.077-.682-.269-.18-.189-.268-.452-.268-.78 0-.63.335-1.206.999-1.732zm4.36 7.39v-3.829c-1.136.439-1.858.748-2.193.927-.594.32-1.037.648-1.29 1-.258.353-.366.751-.366 1.171 0 .521.142.946.463 1.292.326.344.698.537 1.12.537.572 0 1.336-.366 2.266-1.098zm-54.804-8.17c-1.1956 0-2.1118.256-2.7766.78-.6648.526-.9986 1.102-.9986 1.732 0 .328.0879.591.2679.78.1754.192.396.269.682.269.2814 0 .5271-.085.7063-.269.1754-.182.268-.444.268-.78l-.0488-.634c0-.32.1524-.607.4385-.854.2766-.252.6685-.366 1.1447-.366.6228 0 1.0853.19 1.4127.561.3273.374.4871 1.051.4871 2.049v.415c-1.777.626-3.0381 1.147-3.7996 1.585-.7615.442-1.2989.92-1.6075 1.415-.2261.358-.341.778-.341 1.268 0 .773.2206 1.381.682 1.854s1.0586.731 1.778.731c.4567 0 .8895-.108 1.2909-.292.2767-.126.9357-.572 1.9972-1.366.0094.597.1197 1.021.341 1.268.2167.249.5121.366.8768.366.771 0 1.591-.54 2.436-1.634v-.61c-.452.435-.765.686-.926.78-.088.052-.196.098-.316.098-.112 0-.205-.046-.293-.122-.087-.072-.157-.227-.195-.439-.042-.218-.048-.798-.048-1.756v-3.39c0-.973-.061-1.611-.195-1.927-.211-.482-.556-.845-.9988-1.073-.5908-.3-1.347-.439-2.2652-.439zm1.5832 4.341v3.829c-.9283.732-1.6632 1.098-2.2408 1.098-.4185 0-.7969-.193-1.1204-.537-.3273-.346-.4871-.771-.4871-1.292 0-.42.1302-.818.3897-1.171.2502-.352.6703-.68 1.2665-1 .3321-.179 1.0589-.488 2.1921-.927zm-26.6695-50.2124c2.7653-3.5365 3.7536-6.7427 3.7536-6.7427h1.7708c1.5441 3.7604 3.8698 6.7427 3.8698 6.7427zm28.8623 69.5294c-1.129 0-2.0078.257-2.6305.781-.6275.526-.9256 1.104-.9256 1.732 0 .331.0737.59.2436.78.1652.192.3926.293.6576.293.2689 0 .468-.084.6333-.269.166-.182.2679-.444.2679-.78l-.0244-.634c0-.322.1201-.607.3897-.854.2644-.251.6224-.366 1.0714-.366.586 0 1.055.168 1.364.537.309.375.463 1.074.463 2.073v.39c-1.675.629-2.8876 1.171-3.6047 1.61-.7209.441-1.2186.899-1.5101 1.39-.2112.36-.3166.779-.3166 1.269 0 .774.1991 1.404.6332 1.878.435.474 1.0041.707 1.6806.707.4346 0 .8376-.085 1.2176-.268.256-.127.901-.596 1.9-1.39.006.597.111 1.023.317 1.268.211.252.479.39.828.39.722 0 1.472-.563 2.265-1.658v-.61c-.425.438-.704.709-.852.805-.085.05-.181.073-.293.073-.103 0-.207-.022-.292-.098-.081-.072-.135-.225-.171-.439-.035-.215-.048-.798-.048-1.756v-3.415c0-.972-.07-1.611-.195-1.926-.203-.483-.509-.845-.926-1.074-.556-.299-1.279-.439-2.143-.439zm1.51 4.342v3.829c-.88.729-1.604 1.098-2.143 1.098-.398 0-.7421-.168-1.0476-.512-.3009-.346-.4628-.794-.4628-1.318 0-.418.1222-.794.3653-1.146.2385-.352.6311-.703 1.1931-1.024.315-.179 1.02-.486 2.095-.927zm39.482-3.561c.628-.524 1.501-.781 2.631-.781.865 0 1.564.14 2.119.439.417.229.75.591.949 1.074.128.315.171.954.171 1.926v3.415c0 .958.013 1.541.049 1.756.036.214.113.367.195.439.08.076.161.098.267.098.113 0 .233-.023.317-.073.149-.096.429-.367.853-.805v.61c-.794 1.095-1.563 1.658-2.29 1.658-.344 0-.618-.138-.828-.39-.205-.245-.31-.671-.317-1.268-1.002.794-1.617 1.263-1.875 1.39-.378.183-.784.268-1.218.268-.677 0-1.244-.233-1.681-.707-.436-.474-.657-1.104-.657-1.878 0-.49.104-.909.316-1.269.291-.491.813-.949 1.535-1.39.72-.439 1.903-.981 3.58-1.61v-.39c0-.999-.152-1.698-.462-2.073-.307-.369-.752-.537-1.34-.537-.447 0-.811.115-1.072.366-.269.247-.389.532-.389.854v.634c0 .336-.077.598-.244.78-.167.185-.388.269-.658.269-.266 0-.466-.101-.633-.293-.166-.19-.268-.449-.268-.78 0-.628.323-1.206.95-1.732zm4.116 7.39v-3.829c-1.075.441-1.755.748-2.07.927-.56.321-.953.672-1.193 1.024-.245.352-.366.728-.366 1.146 0 .524.156.972.463 1.318.307.344.65.512 1.047.512.544 0 1.238-.369 2.119-1.098zm-70.0732-31.854c-1.3726 0-2.5074.478-3.4099 1.439-.9127.957-1.364 2.308-1.364 4.025 0 1.584.4291 2.841 1.3152 3.78.8862.938 1.9704 1.415 3.2151 1.415 1.1379 0 2.0913-.421 2.8497-1.244.7638-.819 1.2042-1.73 1.364-2.732l-.341-.219c-.3367.875-.7646 1.492-1.2666 1.853-.5027.362-1.0748.537-1.7536.537-1.0148 0-1.902-.424-2.6549-1.268-.7529-.85-1.1251-1.996-1.1204-3.488h7.1365c0-1.242-.3777-2.233-1.1204-2.976-.7475-.744-1.69-1.122-2.8497-1.122zm-.6333.781c.4068 0 .7934.109 1.1691.341.3749.237.667.569.8525.976.1216.26.1818.699.2192 1.341l-4.7739.025c.0795-.836.3607-1.503.8525-1.976.4918-.471 1.0563-.707 1.6806-.707zm-4.8722 24.341c.855-.961 1.9173-1.439 3.215-1.439 1.0928 0 2.0006.355 2.7036 1.098.7038.743 1.0473 1.734 1.0473 2.976h-6.7467c-.0055 1.491.364 2.663 1.0717 3.512.7085.845 1.5264 1.268 2.4843 1.268.6376 0 1.2099-.174 1.6806-.536.4755-.359.8685-.982 1.1935-1.854l.3166.219c-.1512 1.003-.5769 1.913-1.2909 2.732-.7194.823-1.6272 1.22-2.7035 1.22-1.1738 0-2.1627-.454-2.9959-1.391-.8378-.939-1.2665-2.219-1.2665-3.805 0-1.715.4312-3.041 1.2909-4zm3.7265-.317c-.3538-.23-.7102-.366-1.096-.366-.5893 0-1.1163.236-1.5832.708-.4661.47-.7525 1.14-.8281 1.975h4.5303c-.0382-.642-.107-1.105-.2192-1.365-.1769-.407-.4499-.717-.8038-.952zm62.7982-24.791h.374v.002h-.003v3.417h-.373c-.284-1.074-.649-1.803-1.096-2.19-.453-.386-1.024-.58-1.713-.58-.525 0-.95.132-1.274.406-.326.27-.486.567-.486.897 0 .408.116.759.358 1.05.235.3.709.617 1.425.954l1.645.778c1.531.722 2.294 1.673 2.294 2.859 0 .912-.354 1.644-1.066 2.206-.709.555-1.508.835-2.388.835-.636 0-1.354-.108-2.167-.328-.247-.071-.452-.11-.612-.11-.17 0-.307.095-.408.284h-.368v-3.58h.368c.215 1.019.619 1.789 1.215 2.31.59.52 1.26.776 1.995.776.521 0 .946-.144 1.271-.439.327-.3.491-.656.491-1.069 0-.505-.183-.927-.547-1.272-.362-.344-1.092-.779-2.185-1.305-1.091-.524-1.803-.997-2.145-1.419-.337-.419-.508-.942-.508-1.579 0-.824.294-1.515.874-2.069.585-.552 1.339-.832 2.263-.832.408 0 .904.085 1.478.254.388.108.638.164.769.164.124 0 .214-.027.284-.079.064-.055.148-.166.235-.341zm5.692-2.999h-.35c-.308.737-.55 1.247-.725 1.522-.334.524-.724.979-1.157 1.365-.431.381-.856.653-1.266.814v.359h1.633v6.747c0 .727.082 1.261.241 1.603.158.348.402.616.734.8.332.188.666.28 1.015.28.513 0 1.009-.179 1.491-.54.483-.363.852-.901 1.12-1.614h-.439c-.129.291-.312.509-.544.661-.234.148-.473.225-.726.225-.299 0-.543-.114-.734-.342-.191-.223-.29-.662-.29-1.313v-6.507h2.418v-.765h-2.418v-3.295zm-92.3274 36.594h.523l-.0008.404h-6.1939v-.406h.5113c.597 0 1.0327-.181 1.3008-.535.1683-.238.2548-.797.2548-1.687v-9.594c0-.754-.0428-1.251-.1363-1.488-.0749-.187-.2183-.342-.4357-.473-.3118-.175-.6415-.261-.9836-.261h-.5113v-.406h6.1939v.406h-.523c-.5908 0-1.021.181-1.2883.536-.1801.236-.2736.797-.2736 1.687v9.594c0 .747.0499 1.244.1434 1.487.0686.182.2175.344.4482.468.3055.182.6289.268.9711.268zm59.0684-12.921h-.334c-.288.737-.518 1.244-.681 1.522-.317.523-.686.979-1.09 1.364-.409.381-.81.653-1.198.814v.358h1.542v6.748c0 .727.08 1.261.226 1.605.149.346.378.611.694.799.309.187.631.278.956.278.485 0 .954-.178 1.409-.539.455-.363.806-.901 1.054-1.614h-.414c-.12.291-.292.51-.513.663-.221.148-.443.223-.681.223-.284 0-.518-.113-.699-.341-.178-.223-.268-.662-.268-1.313v-6.509h2.278v-.764h-2.278v-3.294zm-43.9277 0h.332v3.294h2.2798v.764h-2.2798v6.509c0 .651.0904 1.09.2759 1.313.1746.228.4116.341.6929.341.2362 0 .4615-.075.6812-.223.2191-.153.3882-.372.5121-.663h.417c-.2533.713-.6025 1.251-1.053 1.614-.4559.361-.9228.539-1.4076.539-.3266 0-.6477-.091-.9626-.278-.3102-.188-.5409-.453-.6874-.799-.152-.344-.2252-.878-.2252-1.605v-6.748h-1.5425v-.358c.3882-.161.788-.433 1.1933-.814.4061-.385.777-.841 1.0927-1.364.1629-.278.3936-.785.6812-1.522zm59.0287-60.7822h5.75c-.67-1.2144-1.005-2.2181-1.556-4.5347h-2.422c-.196 1.5249-1.129 3.3036-1.592 4.1876l-.001.0003-.001.0026c-.072.1382-.133.2544-.178.3442zm-62.7232 6.3002c.551-.7711 1.7692-3.7534 1.9937-4.8617h1.4279c.0556.1666.1165.3542.1821.5566l.0006.0016.0001.0006.0003.0007c.4571 1.4091 1.1467 3.535 1.9197 4.3022zm66.0202 33.808h-.501l-3.113 1.226.161.395c.3-.108.554-.164.764-.164.196 0 .35.045.461.138.114.091.197.25.254.487.064.322.1 1.024.1 2.111v3.869c0 .621-.049 1.039-.157 1.256-.096.219-.24.377-.411.47-.168.098-.511.147-1.011.147v.392h5.025v-.392c-.49 0-.829-.052-1.016-.153-.185-.106-.322-.258-.414-.469-.097-.209-.144-.625-.144-1.252zm-7.274-45.8573h-3.867s.336-2.7661-.659-3.0986l1.774-3.7581h1.653l1.649 3.7581c-.88.1147-.55 3.0986-.55 3.0986zm33.01 64.2853h-.473l-2.909 1.226.181.383c.284-.119.514-.175.701-.175.171 0 .309.045.423.143.109.092.189.272.241.531.047.256.071.953.071 2.084v9.114c0 .621-.049 1.039-.139 1.256-.089.219-.221.377-.384.471-.16.097-.466.147-.913.147v.392h4.781v-.392c-.505 0-.848-.055-1.034-.161-.183-.104-.323-.261-.408-.464-.087-.205-.136-.62-.136-1.249v-13.306zm-38.013 5.244h.468v.001h.002v8.063c0 .626.044 1.042.134 1.252.087.21.218.363.393.468.173.101.494.152.958.152v.392h-4.746v-.392c.479 0 .8-.05.959-.147.166-.094.292-.252.388-.471.099-.217.146-.635.146-1.256v-3.869c0-1.086-.031-1.789-.095-2.11-.051-.237-.13-.397-.238-.487-.102-.093-.25-.138-.436-.138-.198 0-.44.055-.726.164l-.146-.398zm-30.0009-69.5301h3.6437l-1.7614-6.0832zm5.1943-19.7981 3.2057-.7735v1.5462zm36.8776 11.3968-3.202.6627 3.202.7711zm-11.814-4.6494 3.092-.7719v1.5438zm19.005 13.6041-3.096.7742 3.096.7704zm-73.1146 1.7725 3.0911-.7719v1.55zm12.1441-14.4938 3.0927-.7719v1.4322zm53.0475 52.781c-.324 0-.596.109-.817.322-.222.216-.336.478-.336.784 0 .308.116.569.339.789.229.218.497.331.814.331s.585-.113.811-.331c.217-.219.331-.481.331-.789 0-.306-.114-.568-.331-.784-.226-.213-.495-.322-.811-.322zm-12.524 23.994c.206-.213.463-.321.771-.321.296 0 .551.108.763.321.205.216.311.477.311.785 0 .306-.104.569-.311.789-.212.217-.467.33-.763.33-.297 0-.552-.113-.767-.33-.211-.22-.321-.483-.321-.789 0-.308.105-.569.317-.785zm13.149-69.5789-.881 4.9718h1.772zm5.383 38.6209c.142-.144.344-.244.56-.244.221 0 .414.1.561.244.145.145.243.344.243.561 0 .221-.098.416-.243.561-.147.145-.34.244-.561.244-.218 0-.418-.099-.56-.244-.146-.145-.243-.342-.243-.561s.097-.416.243-.561zm.999.122c-.114-.112-.264-.195-.439-.195-.168 0-.327.083-.438.195-.111.111-.17.268-.17.439 0 .172.057.325.17.439.112.111.27.171.438.171.174 0 .325-.059.439-.171.111-.114.195-.266.195-.439 0-.17-.084-.327-.195-.439zm-16.097-41.5074 1.545.1109-.775-3.0994zm17.444 13.4862h-1.102l.657-2.1058zm-.323 27.7532v1.39h.462c.221 0 .393-.061.512-.195.118-.131.17-.291.17-.488 0-.198-.05-.38-.17-.512-.114-.135-.274-.195-.463-.195zm.267.195h.244c.113 0 .201.052.268.146.068.094.097.207.097.341 0 .167-.045.28-.121.366-.082.083-.181.122-.293.122h-.195zm-71.1754-27.9536.4442-1.3206.5448 1.3206zm12.1541-13.9335h.993l-.4427-1.3206zm62.7733 42.1791c.086-.104.215-.146.365-.146.15 0 .26.045.341.146.079.1.122.233.122.391v.024h-.731c0 .07.012.128.024.171.012.031.04.052.069.074.01.008.019.015.029.023.039.031.088.049.146.049.116 0 .179-.034.219-.146l.219.024c-.027.091-.093.16-.17.22-.082.059-.173.097-.292.097-.141 0-.256-.049-.341-.146-.087-.095-.122-.227-.122-.39 0-.156.032-.29.122-.391zm.511.098c-.043-.049-.106-.073-.17-.073-.063 0-.126.002-.171.049-.043.042-.067.115-.073.195h.487c-.003-.074-.03-.124-.073-.171zm1.245-.223h-.183l-.216.678-.247-.678h-.244l.354.965.006.013.003.01.005.013c.005.015.007.024.007.027 0 .006-.006.029-.021.071-.015.041-.03.069-.054.086-.024.016-.061.023-.112.023l-.109-.003v.186c.057.004.101.006.134.006.078 0 .135-.018.178-.059.044-.04.08-.095.101-.17zm-3.866.986c-.078-.043-.136-.109-.158-.195l.218-.042c.035.083.106.124.217.124.145 0 .218-.041.218-.127 0-.026-.014-.05-.035-.067-.024-.017-.048-.029-.079-.037l-.186-.034c-.208-.041-.312-.143-.312-.308 0-.089.033-.167.097-.23.067-.064.165-.094.297-.094.216 0 .349.08.399.239l-.21.042c-.02-.077-.08-.116-.182-.116-.126 0-.186.038-.186.116 0 .055.05.092.147.113l.221.045c.175.035.26.135.26.296 0 .114-.045.199-.132.254-.09.056-.197.083-.317.083-.103 0-.196-.02-.277-.062zm1.767.042v-.005h.002v.005zm0-.005v-.659c0-.146-.03-.245-.096-.302-.065-.057-.144-.086-.234-.086-.132 0-.235.087-.309.26v-.237h-.212v1.027h.232v-.528c0-.109.024-.187.069-.241.047-.053.1-.08.158-.08.044 0 .081.017.114.051.032.035.048.083.048.153v.642zm-4.886-.473h.157c-.04.076-.088.136-.161.177-.068.041-.144.06-.233.06-.066 0-.127-.014-.18-.039-.054-.025-.103-.064-.15-.113-.035-.041-.066-.09-.084-.14-.019-.055-.03-.111-.03-.171 0-.061.014-.12.036-.175.023-.054.056-.102.103-.148.043-.042.091-.074.14-.095.054-.021.109-.032.169-.032.089 0 .171.021.24.064.065.041.117.101.15.179h-.147c-.029-.038-.063-.066-.106-.085-.039-.02-.085-.031-.137-.031-.042 0-.078.007-.118.024-.036.015-.069.039-.098.066-.033.033-.056.07-.07.11-.019.04-.025.082-.025.127s.006.086.022.128c.014.041.036.076.066.107.029.03.062.057.102.073.042.016.077.026.121.026.049 0 .095-.011.134-.031.043-.018.073-.044.099-.081zm-39.7676-51.889-.2245-.6617-.2183.6617zm42.5756 51.339v1.028h-.231v-1.028z" fill="#fff" fill-rule="evenodd"/></svg>