<svg fill="none" height="200" viewBox="0 0 200 200" width="200" xmlns="http://www.w3.org/2000/svg"><path clip-rule="evenodd" d="m92.5821 83.5948c5.4675-10.1942 11.2199-20.9201 13.9319-25.9677.977-1.821 1.561-2.9033 1.591-2.9545.113.1886 7.619 14.183 14.862 27.6864 3.331 6.21 6.606 12.3161 9.081 16.928.274.5059.295.879.017 1.396-9.199 17.144-27.823 51.952-27.998 52.293.576 0 1.147.001 1.714.001 2.057.003 4.054.005 6.052-.022.205-.002.481-.28.599-.498 4.931-9.193 9.857-18.389 14.783-27.584 4.355-8.127 8.709-16.254 13.066-24.38.198-.371.186-.6425-.009-1.0032-9.286-17.3194-18.562-34.6451-27.832-51.9751-.201-.3736-.421-.5123-.846-.508-2.283.0213-4.569.032-6.852-.0064-.556-.0086-.808.1964-1.056.6596-9.2201 17.2446-18.4511 34.4828-27.6949 51.7103-.2522.4718-.233.8138.0129 1.2698 2.0177 3.757 4.7545 8.857 7.482 13.939 5.188 9.666 10.3425 19.271 10.4518 19.455.3439-.64.6825-1.274 1.0182-1.903.8896-1.666 1.7596-3.296 2.6567-4.911.2993-.538.2843-.935-.0043-1.471-2.2822-4.238-4.5567-8.48-6.8313-12.722-2.2062-4.115-4.4125-8.23-6.626-12.342-.2779-.514-.2587-.8878.0128-1.3959 2.3104-4.3061 5.3185-9.9148 8.4182-15.6943zm.4615-31.1443c1.5618-2.9166 2.6185-4.8901 2.9095-5.4331-.5613 0-1.1164-.0006-1.6667-.0012-2.0863-.0021-4.1027-.0041-6.1191.0246-.2052.0022-.481.2818-.5986.4996-4.9522 9.2338-9.9003 18.4695-14.8486 27.7057-4.3329 8.0875-8.666 16.1754-13.0024 24.2629-.1988.3736-.1817.643.0107 1.003 9.2865 17.32 18.5624 34.645 27.8297 51.975.1988.376.4232.511.8465.506 2.2832-.021 4.5685-.032 6.8516.007.5601.008.8102-.201 1.0561-.662 9.2207-17.245 18.4507-34.483 27.6967-51.713.253-.471.231-.8129-.015-1.2697-1.617-3.012-3.699-6.892-5.869-10.935-5.67-10.5623-11.936-22.2371-12.064-22.4548-.334.6215-.662 1.2372-.988 1.848-.899 1.6842-1.778 3.3316-2.685 4.964-.299.538-.28.9372.008 1.4709 2.248 4.1745 4.489 8.3533 6.729 12.5321s4.481 8.3576 6.729 12.5321c.28.5166.256.8904-.015 1.3964-2.716 5.06-6.396 11.921-10.056 18.744-6.9264 12.913-13.7797 25.69-13.8874 25.87-.111-.187-7.3955-13.768-14.536-27.08-3.4425-6.418-6.8516-12.774-9.4071-17.536-.2715-.506-.2929-.8799-.015-1.3965 6.3287-11.7921 19.2582-35.9386 25.1061-46.86z" fill="#fff" fill-rule="evenodd"/></svg>