<svg fill="none" height="200" viewBox="0 0 200 200" width="200" xmlns="http://www.w3.org/2000/svg"><path d="m34.6011 123.876c-9.1303-.114-16.6011-.434-16.6011-.71 0-.847 63.9964-1.412 115.151-1.016 26.65.206 48.586.505 48.744.665.159.159.134.446-.055.636-.39.393-121.8374.743-147.2385.425zm-2.1654-10.417c0-.245.4948-.984 1.0995-1.644.6047-.659 3.0922-6.296 5.5278-12.5263 5.0497-12.9169 6.365-15.4409 9.3959-18.03l2.166-1.8502-5.4869.3302c-6.272.3774-9.9664 1.495-12.2645 3.71-1.7478 1.6845-2.8218 4.6813-2.3409 6.5316.4236 1.6295-.7305 1.4836-2.5224-.3191-2.1218-2.1345-1.5901-5.0302 1.4508-7.9019 3.8034-3.5917 6.3945-4.0877 23.4736-4.4934 8.2573-.1962 15.1009-.3089 15.2078-.2505.1069.0585-.5304.5846-1.4163 1.1693-1.2054.7955-2.9977 1.1122-7.1237 1.2587-4.9855.1771-5.6627.3382-7.0787 1.6846-1.625 1.5453-4.9016 8.9221-9.0991 20.484-2.3864 6.574-4.3033 9.936-6.2484 10.961-1.488.784-4.7403 1.392-4.7403.886zm49.0814.069c0-.225.4774-1.103 1.0609-1.951s1.2056-1.934 1.3825-2.413c.1769-.48.8624-2.237 1.5234-3.907l1.2016-3.035-2.5977 1.995c-4.4388 3.409-9.1979 4.142-11.5469 1.778-2.4764-2.491-1.5011-7.9372 2.3753-13.2629 4.3489-5.9751 12.3754-8.1825 12.3754-3.4028 0 2.1928-3.2662 5.9211-7.4794 8.5369-3.5155 2.1828-4.555 4.0708-3.418 6.2088.6903 1.297 1.9286 1.276 4.8342-.084 3.6138-1.691 6.932-5.5955 8.6221-10.1449.8155-2.1946 1.4827-4.0716 1.4827-4.171 0-.0995-.5846-.2909-1.2992-.4253-1.2019-.2261-1.1634-.3021.5134-1.0149.997-.4237 2.2675-1.5736 2.8233-2.5552 3.1128-5.4976 7.2533-7.9763 13.9423-8.3458 4.469-.2468 4.799-.1811 6.207 1.2357.818.823 1.488 1.7897 1.488 2.1483 0 .8949-3.204 4.048-4.114 4.048-.573 0-.583-.1549-.044-.697.381-.3834.693-1.423.693-2.3102 0-3.5142-5.331-4.4391-9.28-1.6101-1.638 1.1729-5.1557 5.9496-5.1557 6.9998 0 .2268 2.5984.2683 5.7747.0923 6.128-.3397 7.302.1857 4.117 1.8425-4.66 2.4244-9.131 15.3768-5.488 15.8998 2.76.396 7.723-8.4811 7.723-13.8132 0-1.5448.198-1.6525 5.196-2.8252 6.296-1.4773 7.168-1.2724 6.762 1.5909-.163 1.1503-.491 2.5806-.73 3.1784-.239.5979.785-.2241 2.275-1.8266 3.02-3.2484 5.404-4.5071 7.523-3.9721 2.796.7059 2.535 2.2324-2.196 12.8438-1.317 2.955-2.074 5.547-2.078 7.117-.008 2.847-.619 3.067-2.702.972-2-2.012-1.662-4.705 1.463-11.6506 1.313-2.9176 2.387-5.597 2.387-5.9542 0-2.6484-5.82 4.114-9.528 11.0698-2.651 4.975-3.04 5.432-4.764 5.599-1.032.101-1.876-.012-1.876-.25s1.299-3.786 2.887-7.8858c3.415-8.8151 3.571-9.9502 1.299-9.4036-2.253.5417-2.454.7174-2.454 2.1434-.001 1.6322-2.972 7.9618-4.982 10.613-3.114 4.108-8.2554 5.962-11.0576 3.988-2.9292-2.064-.7691-10.7248 3.7816-15.1629l2.289-2.2316-3.3435.1946-3.343.1945-2.4171 6.7762c-3.3409 9.3662-5.9879 14.9462-7.5833 15.9842-1.5815 1.03-4.5256 1.847-4.5256 1.256zm.1076-19.2691c2.1639-2.3025 3.0521-4.7768 1.8776-5.2302-1.6369-.6319-4.9696 3.5303-6.3084 7.8782l-.4292 1.3941 1.6543-1.1958c.9099-.6577 2.3524-1.9386 3.2056-2.8464zm-17.6416 14.2811c-1.1958-.946-1.5215-1.707-1.5215-3.554v-2.351l-2.0212 1.551c-4.5776 3.513-8.6649 4.155-11.0659 1.739-1.3417-1.349-1.4483-1.781-1.0976-4.441.9249-7.0133 6.2772-13.4108 12.2704-14.6661 1.4184-.2971 2.1067-.116 3.0092.792.9849.9909 1.0755 1.4505.5721 2.9033-.7389 2.1323-5.3068 6.5061-8.5142 8.1518-2.1898 1.1239-2.3917 1.42-2.3917 3.505 0 1.253.2331 2.422.5181 2.6 1.3777.856 4.5406-.621 7.2854-3.404 2.3883-2.4205 3.6344-4.5588 6.9465-11.9188 3.8012-8.448 4.1477-8.9987 5.955-9.4704 1.0562-.2754 2.1414-.4215 2.4116-.3249.2702.0967-1.4141 4.5307-3.743 9.8538-5.0175 11.4683-6.2512 15.0233-6.2512 18.0133 0 2.559-.2719 2.676-2.3631 1.022zm-6.0959-13.5811c2.6804-2.5552 3.7967-4.8184 2.8477-5.7731-.4348-.4374-.9061-.4357-1.6094.0059-2.2549 1.4156-6.5579 9.6859-4.4108 8.4771.4429-.2494 1.8705-1.4689 3.1725-2.71zm108.2508 13.5391c-1.323-1.046-1.541-1.603-1.362-3.485.117-1.232.01-2.24-.236-2.24-.247 0-.448.26-.448.578 0 1.143-4.773 4.07-6.638 4.07-2.016 0-3.756-1.481-3.756-3.197 0-1.006-.081-.998-1.299.123-3.604 3.315-8.198 4.029-10.57 1.642l-1.423-1.431-2.096 1.431c-2.432 1.661-5.465 1.864-6.861.459-1.388-1.396-.846-3.755 2.644-11.5238 2.971-6.6124 2.984-6.6298 5.373-7.1317 1.317-.2768 2.481-.4392 2.587-.361s-1.258 3.393-3.031 7.3663c-3.338 7.4782-3.876 9.7182-2.335 9.7182 1.369 0 4.307-2.419 4.307-3.546 0-1.7351 2.295-6.4813 4.358-9.0146 2.363-2.9009 6.11-4.8661 9.279-4.8661 3.816 0 4.946 2.4037 2.165 4.605-1.859 1.4712-2.785 1.5489-2.23.1874 1.285-3.15-.643-4.0327-3.289-1.5059-4.91 4.6888-7.323 15.6362-3.174 14.4002 2.82-.84 5.522-3.331 7.346-6.7742 3.95-7.4564 8.116-10.4922 14.51-10.5735 2.115-.0269 4.037.1417 4.27.3747.233.2329-.246 1.9321-1.065 3.7758-2.491 5.6082-4.574 12.4912-4.66 15.4042-.045 1.517-.242 2.76-.437 2.76-.196 0-1.064-.56-1.93-1.245zm-3.607-6.012c1.903-1.971 7.661-12.9382 7.094-13.5092-.674-.6774-3.592.6668-5.214 2.4015-2.271 2.4295-4.731 7.0068-5.418 10.0827-.845 3.783.5 4.173 3.538 1.026zm-20.816-18.706c-.988-.3738-.911-2.7805.116-3.6384 1.307-1.0911 2.915-.4976 2.915 1.0757 0 1.4651-1.834 3.0157-3.031 2.5628z" fill="#fff"/></svg>