<svg fill="none" height="200" viewBox="0 0 200 200" width="200" xmlns="http://www.w3.org/2000/svg"><path d="m179.888 102.524s-.033.073-.151.073h-9.348c-.151 0-.223.073-.223.073s-.112.039-.112.224v10.038c0 .152-.073.186-.073.186s-.039.079-.15.079h-7.432c-.106 0-.184-.079-.184-.079s-.039-.034-.039-.219v-10.044c0-.107-.09-.185-.09-.185s-.056-.073-.151-.073h-9.594c-.184 0-.218-.04-.218-.04s-.072-.073-.072-.298v-7.3454c0-.09.072-.1855.072-.1855s.034-.0337.112-.0337h9.795c.078 0 .078-.0394.078-.0394s.068-.0393.068-.1124v-8.7958c0-.1068.039-.1855.039-.1855s.078-.0393.296-.0393h7.286c.145 0 .184.0393.184.0393s.073.0787.073.2248v8.8296h9.521c.241 0 .313.0393.313.0393s.112.0394.112.2586v7.4244c0 .073-.112.186-.112.186zm-29.005 10.341c-.034.219-.073.292-.073.292s-.039.079-.223.079h-15.07c-.436 0-.553-.118-.553-.118s-.073-.146-.039-.478l3.738-26.1289c.039-.3147.112-.4271.112-.4271h.385 6.862c.184 0 .24.0337.24.0337s.039.1181 0 .2642l-2.811 20.4191c-.039.219.073.241.073.241s.073.04.374.04h7.449c.162 0 .218.067.218.067s.039.039.039.225zm-19.205.405h-6.694c-.145.073-.262-.073-.262-.073s-.034-.04-.073-.265l-.888-4.164c-.073-.203-.146-.315-.146-.315s-.184-.112-.407-.112h-8.706c-.168 0-.279.112-.279.112s-.146.129-.224.354l-1.978 4.243c-.033.107-.106.147-.106.147s-.151.039-.224.039h-7.543c-.184.034-.24-.079-.24-.079s-.034-.073.056-.225l13.293-26.6625c.072-.0337.145-.1518.145-.1518s.078-.0337.296-.0337h8.231c.184 0 .29.1124.29.1124s.039.0394.078.1461l5.527 26.7755c0 .079-.039.118-.039.118s-.001.034-.107.034zm-31.374-.034h-6.6941c-.1117 0-.2179 0-.2179 0s-.0223-.039-.0614-.079l-9.2978-16.5854c-.0727-.0731-.1062-.0731-.1062-.0731s-.0782 0-.0782.1068l-2.3077 16.2937c-.0391.185-.0782.219-.0782.219s-.0727.039-.1844.039h-6.6549c-.1061 0-.1844-.073-.1844-.073s-.1452-.152-.0894-.298l3.6376-26.3648c.0391-.1517.1173-.1854.1173-.1854s.1062-.1181.2179-.1181h7.4316c.1117 0 .1843.0787.1843.0787s.0727.0394.1118.1461l8.3758 14.7875c.1453.292.2571.258.2571.258s.1117 0 .1844-.337l2.1121-14.7085c0-.1067.067-.1461.067-.1461s.0391-.0787.1509-.0787l6.9848.0787c.151 0 .19.0394.19.0394s.033.0337.033.1067l-3.771 26.5895c-.04.152-.107.265-.107.265s-.039.039-.223.039zm-29.268-.079-6.504.04c-.1509 0-.257-.079-.257-.079s-.0391-.034-.0783-.292l-1.0169-4.244c0-.09-.067-.129-.067-.129s-.0392 0-.1174 0h-9.186c-.1844 0-.2962.129-.2962.129s-.1452.113-.257.371l-1.8327 3.946c-.0727.151-.1118.185-.1118.185s-.1062.073-.2011.073h-7.5768c-.2235.04-.2627-.073-.2627-.073s-.0391-.112.0392-.258l13.142-26.5565c.0559-.1518.1677-.1855.1677-.1855h.257 8.3758c.1509 0 .257.1124.257.1124s.0392.0394.0783.1461l5.6323 26.6295c0 .112-.0671.146-.0671.146s-.0391.039-.1173.039zm49.624-19.39s-.04 0-.079.1461l-3.654 8.3129c-.078.258-.039.298-.039.298s.106.073.184.073l5.415-.04h.072s.039-.033 0-.146l-1.827-8.5372c-.033-.1068-.072-.1068-.072-.1068zm-60.7322.1068s-.0335 0-.0726.0787l-3.6599 8.3465c-.0727.112-.0391.185-.0391.185s.0391.04.2235.04l5.3753.033c.0391 0 .0558-.033.0558-.033s.0392-.04 0-.152l-1.8495-8.4195c0-.0787-.0335-.0787-.0335-.0787zm-18.7408 18.3562c-.0392.292-.1844.517-.1844.517s-.1565.152-.3912.225c-3.5313 1.433-7.4371.95-7.4371.95-6.3363-.686-10.3482-4.598-11.6446-9.634-1.9053-7.5478 1.8719-12.904 2.7938-14.0562 2.2183-2.6809 5.6938-4.5918 9.1135-5.0414 4.3471-.6126 7.5656.4103 8.8954.8599 0 0 1.4584.4608 2.548 1.2084.5532.3709.6314.517.6314.517s.0335.0787-.1174.652l-1.0281 5.4068c-.0391.2248-.1732.3372-.1732.3372s-.0726.0393-.5923-.2979c-3.2855-2.3437-7.1298-2.0627-7.1298-2.0627-2.9223.1855-6.3419 1.7311-7.3589 5.6316-.9052 3.4623.0391 6.3623 2.0842 8.0873 1.3913 1.231 3.5537 1.844 5.8279 1.737 2.4753-.185 4.4533-1.175 4.308-1.101 0 0 .1062-.04.2236-.074.514-.258.6258-.224.6258-.224s.1117.112.0335.449z" fill="#fff"/></svg>