<svg fill="none" height="200" viewBox="0 0 200 200" width="200" xmlns="http://www.w3.org/2000/svg"><g fill="#fff"><path d="m38.8609 78.2807-6.8604 15.7969h4.4665l1.2658-3.1633h7.359l1.2592 3.1633h4.5649l-6.8539-15.7969zm2.5383 3.6764 2.2431 5.5276h-4.4928z"/><path d="m51.3882 94.0748v-15.7969l6.3471.0234 3.6918 10.1848 3.6033-10.2082h6.2964v15.7969h-3.9877v-11.6398l-4.2271 11.6398h-3.4972l-4.2389-11.6398v11.6398z"/><path d="m74.0552 94.0748v-15.7969h13.0125v3.5336h-8.9828v2.7021h8.773v3.3256h-8.773v2.8061h8.9828v3.4295z"/><path d="m89.377 78.2807v15.7968h3.9877v-5.612h1.679l4.7813 5.612h4.873l-5.2468-5.8198c2.1538-.18 4.3748-2.0104 4.3748-4.8521 0-3.3243-2.635-5.1249-5.5751-5.1249zm3.9877 3.5335h4.5583c1.0935 0 1.8889.8471 1.8889 1.6628 0 1.0495-1.0306 1.6628-1.8299 1.6628h-4.6173z"/><path d="m109.525 94.0748h-4.072v-15.7969h4.072z"/><path d="m119.179 94.0748h-.879c-4.252 0-6.834-3.3178-6.834-7.8335 0-4.6271 2.553-7.9634 7.923-7.9634h4.407v3.7414h-4.568c-2.18 0-3.722 1.6848-3.722 4.261 0 3.0593 1.763 4.3442 4.303 4.3442h1.049z"/><path d="m127.857 78.2807-6.861 15.7968h4.467l1.265-3.1632h7.359l1.26 3.1632h4.565l-6.854-15.7968zm2.538 3.6764 2.243 5.5276h-4.493z"/><path d="m140.377 94.0748v-15.7969h5.07l6.473 9.9251v-9.9251h3.988v15.7969h-4.906l-6.637-10.1848v10.1848z"/><path d="m61.043 121.719v-15.796h13.0125v3.533h-8.9828v2.702h8.773v3.326h-8.773v2.806h8.9828v3.429z"/><path d="m124.805 121.719v-15.796h13.012v3.533h-8.983v2.702h8.731v3.326h-8.731v2.806h8.983v3.429z"/><path d="m74.56 121.719 6.3358-7.801-6.4866-7.995h5.024l3.8631 4.943 3.8762-4.943h4.8273l-6.4014 7.898 6.3474 7.898h-5.0232l-3.7509-4.865-3.6598 4.865z"/><path d="m92.4189 105.925v15.797h4.0927v-4.988h4.1974c3.552 0 6.244-1.867 6.244-5.496 0-3.006-2.111-5.313-5.726-5.313zm4.0927 3.573h4.4204c1.148 0 1.968.696 1.968 1.818 0 1.055-.816 1.819-1.981 1.819h-4.4074z"/><path d="m108.685 105.923v15.796h3.987v-5.612h1.679l4.782 5.612h4.873l-5.247-5.819c2.153-.18 4.375-2.011 4.375-4.853 0-3.324-2.635-5.124-5.575-5.124zm3.987 3.533h4.559c1.093 0 1.889.847 1.889 1.663 0 1.049-1.031 1.663-1.83 1.663h-4.618z"/><path d="m139.664 121.719v-3.429h7.98c1.181 0 1.692-.632 1.692-1.325 0-.664-.509-1.336-1.692-1.336h-3.606c-3.135 0-4.881-1.891-4.881-4.731 0-2.533 1.599-4.975 6.257-4.975h7.766l-1.679 3.554h-6.716c-1.284 0-1.679.667-1.679 1.304 0 .655.488 1.377 1.469 1.377h3.778c3.494 0 5.01 1.963 5.01 4.534 0 2.764-1.689 5.027-5.201 5.027z"/><path d="m154.3 121.719v-3.429h7.981c1.181 0 1.692-.632 1.692-1.325 0-.664-.51-1.336-1.692-1.336h-3.606c-3.135 0-4.881-1.891-4.881-4.731 0-2.533 1.599-4.975 6.257-4.975h7.766l-1.679 3.554h-6.717c-1.283 0-1.679.667-1.679 1.304 0 .655.489 1.377 1.469 1.377h3.778c3.495 0 5.011 1.963 5.011 4.534 0 2.764-1.69 5.027-5.201 5.027z"/></g></svg>