<svg width="164" height="48" viewBox="0 0 164 48" fill="none" xmlns="http://www.w3.org/2000/svg">
<path d="M158.224 26.2325C157.67 22.5601 153.263 22.3487 150.36 22.1902C150.36 22.1902 138.354 21.8732 137.087 21.8203C135.979 21.7675 134.686 21.5561 134.554 20.3144C134.422 19.0198 135.609 18.4122 136.665 18.1744C138.802 17.7252 140.94 17.6724 143.051 17.6724C147.695 17.6724 151.97 18.1744 156.509 19.0198L157.01 15.4003V15.3738C153.606 14.7398 148.883 14 143.869 14C141.679 14 139.462 14.1321 137.298 14.3963C134.923 14.7133 132.311 15.2682 131.044 16.9326C129.962 18.3593 129.857 20.7635 130.516 22.4016C131.651 25.2285 135.662 25.3342 138.143 25.4399C138.143 25.4399 150.228 25.7834 151.495 25.8362C152.603 25.889 153.896 26.1004 154.028 27.395C154.134 28.531 153.369 29.3765 151.812 29.6935C149.753 30.1163 147.563 30.1691 145.452 30.1691C140.306 30.1691 135.768 29.6407 130.569 28.8217L130.147 32.4941C134.923 33.4716 139.805 33.9472 144.687 34H144.766C146.983 34 149.226 34 151.416 33.683C153.342 33.3923 155.374 32.9696 156.905 31.6486C158.356 30.3276 158.488 28.0819 158.224 26.2325ZM17.126 29.0594L5.11932 14.1057H0V33.8679H4.51239V20.1823L14.5135 32.6262C15.9121 34.3963 18.3134 34.3963 19.712 32.6262L29.7132 20.1823V33.8679H34.2256V14.1057H29.1062L17.126 29.0594ZM71.9872 14.1321H45.7308V33.8943H72.1983L72.858 29.9049H50.2432V26.0211H71.09V22.0317H50.2432V18.1479H71.9608V14.1321H71.9872ZM115.554 33.8679L123.787 14.1321H119.117L112.81 29.2444L105.395 15.9287C104.366 14.1321 102.07 13.5244 100.275 14.5548C99.6948 14.8719 99.2198 15.3474 98.9032 15.9287L91.4881 29.2444L85.1813 14.1321H80.537L88.7701 33.8679H93.5464L102.149 18.28L110.752 33.8679H115.554Z" fill="#2D2B2B"/>
</svg>
