<svg width="164" height="48" viewBox="0 0 164 48" fill="none" xmlns="http://www.w3.org/2000/svg">
<path d="M106.883 18.6602C108.738 17.5687 110.757 17.2952 112.886 17.4043C114.414 17.4589 115.887 17.7867 117.197 18.4961C118.944 19.4785 120.309 20.843 120.854 22.8623C120.909 23.026 120.909 23.1898 120.964 23.3535C120.036 23.5172 119.162 23.7357 118.289 23.8994C117.634 24.0086 116.924 24.1721 116.269 24.2812C116.051 24.3357 115.942 24.2807 115.833 24.0625C115.342 23.0804 114.687 22.2617 113.65 21.8252C112.504 21.334 111.358 21.4434 110.266 21.9346C109.448 22.3166 109.066 23.1902 109.284 24.0088C109.448 24.6089 109.885 24.9359 110.431 25.0996C111.522 25.3725 112.559 25.5914 113.65 25.8643C114.905 26.1917 116.161 26.41 117.361 26.792C119.926 27.6652 121.455 29.9028 121.291 32.5225C121.182 34.9237 119.926 36.7248 117.743 37.7617C113.868 39.508 109.993 39.3984 106.227 37.4883C104.481 36.615 103.499 35.0866 103.172 33.1221C103.117 33.1221 103.117 33.068 103.117 32.959C104.918 32.577 106.665 32.2492 108.411 31.8672C108.629 32.2492 108.847 32.6316 109.12 33.0137C110.484 34.7055 113.05 35.196 114.96 34.1045C115.56 33.7771 115.942 33.2318 115.942 32.5225C115.942 31.7585 115.506 31.2672 114.687 31.0488C113.487 30.7214 112.231 30.5032 111.03 30.1758C109.775 29.8483 108.465 29.5205 107.21 29.0293C105.518 28.3744 104.372 27.1192 103.935 25.3184C103.335 22.7533 104.536 20.0246 106.883 18.6602ZM149.669 17.5137C151.961 17.2954 154.145 17.514 156.164 18.6055C156.218 18.6599 156.273 18.6604 156.382 18.7148V17.5684H161.949V38.7988C160.148 38.8534 158.292 38.8525 156.382 38.8525V37.5977C155.945 37.7614 155.563 37.9797 155.181 38.0889C151.58 39.4532 148.087 39.2347 144.867 37.1064C142.411 35.5237 140.937 33.1767 140.446 30.2842C139.682 25.7545 141.101 22.0432 144.812 19.3145C146.231 18.2778 147.923 17.732 149.669 17.5137ZM9.90122 17.459C12.0296 17.2953 14.1034 17.6233 16.0135 18.6602H16.1776V17.5137H21.744V38.7441H16.1776V37.4336C16.0139 37.4882 15.8502 37.5978 15.7411 37.6523C11.6479 39.5079 7.71807 39.2895 4.11606 36.6152C1.76957 34.9781 0.514756 32.5769 0.132662 29.7393C-0.358521 26.3556 0.514192 23.4078 2.7518 20.8428C4.66193 18.7144 7.06334 17.6227 9.90122 17.459ZM131.933 17.5137H138.482V21.8799H132.043C132.043 22.3164 131.988 22.6983 131.988 23.1348V30.1211C131.988 30.7214 132.097 31.3763 132.261 31.9766C132.643 33.3955 133.789 34.1596 135.263 33.8867C136.081 33.723 136.9 33.4497 137.664 33.2314C137.828 33.1769 138.046 33.0682 138.264 33.0137C138.537 33.7776 138.81 34.487 139.083 35.251C139.301 35.8513 139.465 36.4515 139.683 37.0518C139.793 37.27 139.683 37.3791 139.519 37.4883C138.428 38.1432 137.281 38.5804 136.026 38.7441C134.171 39.0169 132.37 38.8527 130.624 38.0342C128.55 37.1064 127.35 35.4692 126.913 33.2861C126.749 32.3584 126.639 31.3759 126.639 30.3936C126.585 27.7194 126.639 25.0452 126.639 22.3711V21.9346H122.383V17.5684H126.585V12.165H131.933V17.5137ZM41.6102 32.4678C43.1383 34.5962 44.6663 36.6704 46.3036 38.7988H40.2459C40.0277 38.7988 39.8639 38.7437 39.7547 38.5254C39.3182 37.9251 38.8816 37.3249 38.3905 36.7246C39.4274 35.3057 40.5187 33.8867 41.6102 32.4678ZM100.497 38.7988H95.3123V17.623H100.497V38.7988ZM30.0926 17.5137C30.3109 17.5137 30.4747 17.5687 30.5838 17.7324C33.0942 21.116 35.6594 24.4993 38.1698 27.8828C38.3335 28.1011 38.2789 28.2104 38.1698 28.374C35.6593 31.7577 33.0943 35.1417 30.5838 38.5254C30.4747 38.6345 30.3111 38.7441 30.202 38.7441H24.035C24.0896 38.635 24.1445 38.5253 24.1991 38.4707C26.7095 35.1417 29.2199 31.7577 31.7303 28.4287C31.8938 28.2106 31.8937 28.0472 31.7303 27.8291C29.2199 24.5001 26.7095 21.1161 24.1991 17.7871C24.1445 17.7325 24.0896 17.6774 24.035 17.5137H30.0926ZM81.5038 17.7871C84.2325 17.1868 86.7972 17.6778 88.9256 19.5332C90.2899 20.7338 91.1087 22.2617 91.3817 24.0625C91.5454 24.8811 91.6004 25.7547 91.6004 26.5732V38.1982C91.6549 38.3075 91.655 38.526 91.6004 38.7441H86.3065V27.501C86.3065 26.5733 86.1973 25.6455 85.8153 24.7178C85.0512 23.0259 83.2499 22.0438 81.3944 22.4258C79.2115 22.8079 78.0105 24.2817 77.5194 26.3555C77.2466 27.4469 77.1922 28.5933 77.1922 29.7393V38.7441H71.953V17.7324H77.1375V19.6973C77.5196 19.479 77.9019 19.3151 78.2293 19.1514C79.2663 18.6056 80.3031 18.0054 81.5038 17.7871ZM57.4911 17.6777C57.873 17.7323 58.2008 17.7324 58.5282 17.7324C60.5474 17.6779 62.5123 18.1146 64.2586 19.2061C67.1508 21.007 68.8424 23.6264 69.2245 27.0098C69.5519 30.1752 68.7337 32.959 66.5506 35.3604C65.0226 37.0521 63.0577 38.0341 60.8202 38.4707C57.4365 39.1256 54.3252 38.5797 51.5418 36.5059C49.3591 34.9232 48.1043 32.7405 47.6131 30.1211C46.9582 26.4646 47.9947 23.2446 50.6141 20.625C52.5243 18.7694 54.8714 17.8415 57.4911 17.6777ZM15.5223 24.8271C13.7213 21.6618 9.51901 21.061 6.95395 23.626C4.60719 25.9182 4.49879 30.1758 6.84555 32.5771C8.59199 34.3778 11.2661 34.8684 13.3944 33.6133C15.4134 32.358 16.2872 30.4482 16.3963 28.5928C16.3963 26.9555 16.1226 25.8641 15.5223 24.8271ZM155.563 24.5537C153.817 21.989 150.542 21.3339 147.977 23.0801C146.122 24.2807 145.357 26.0827 145.357 27.8291C145.357 29.5753 145.74 30.8853 146.558 32.0312C148.523 34.7599 152.508 35.0868 154.854 32.6855C156.928 30.557 157.255 27.0095 155.563 24.5537ZM63.5487 25.4277C61.9114 21.9895 57.2726 21.1158 54.5438 23.79C52.6336 25.7002 52.2516 27.9924 53.1248 30.5029C54.1618 33.45 57.6005 35.0327 60.493 33.832C62.6758 32.9587 64.1492 30.7212 64.1493 27.7744C64.1493 27.1741 63.9306 26.3009 63.5487 25.4277ZM46.0858 17.5684C46.1401 17.5684 46.1407 17.5685 46.1952 17.623C44.7216 19.6424 43.1382 21.7708 41.5555 23.8447C40.464 22.4258 39.4273 21.0068 38.3358 19.5879L39.8094 17.623C39.8638 17.5686 39.9725 17.5684 40.0272 17.5684H46.0858ZM97.9305 9C99.6768 9 101.151 10.4733 101.151 12.165C101.097 13.9115 99.7314 15.2217 97.8758 15.2217C96.0204 15.2215 94.7108 13.9659 94.7108 12.165C94.711 10.4189 96.1298 9.00013 97.9305 9Z" fill="#2D2B2B"/>
</svg>
