<svg width="164" height="48" viewBox="0 0 164 48" fill="none" xmlns="http://www.w3.org/2000/svg">
<path d="M16.4315 9.18592C12.4756 9.18592 9.89269 10.3319 7.69389 13.0053V10.0592H0V46.4006C0 46.4006 0.156509 46.4741 0.523296 46.5513C1.09364 46.6724 3.90503 47.3169 6.00686 45.533C7.82543 43.9885 8.24407 42.1989 8.24407 40.1405V34.8872C10.4419 37.2345 12.9701 38.2165 16.4872 38.2165C24.0706 38.2165 29.896 32.1051 29.896 23.9744C29.896 15.2983 24.2905 9.18592 16.4315 9.18592ZM14.9327 31.3757C10.7012 31.3757 7.31846 27.8958 7.31846 23.6349C7.31846 19.3741 11.2792 16.1335 14.9327 16.1335C19.2237 16.1335 22.5468 19.4351 22.5468 23.6941C22.5468 27.9549 19.2237 31.3757 14.9327 31.3757ZM40.8363 23.1859C40.8363 26.3322 41.1867 30.1496 44.3102 34.3247C44.3716 34.4057 44.5426 34.6107 44.5426 34.6107C43.279 36.7635 41.6879 38.2117 39.6034 38.2117C37.9586 38.2117 36.3532 37.3479 35.0157 35.8415C33.586 34.2322 32.9033 32.1308 32.9033 29.9428V0.999878H40.8382L40.8344 23.1859H40.8363Z" fill="#2D2B2B"/>
<path d="M79.9152 37.3441H70.3711L79.6349 23.7093L70.3711 10.0621H79.9152L89.1781 23.7093L79.9152 37.3441Z" fill="#8A8A8A"/>
<path d="M91.7195 22.1629L100 10.0621H90.4185L86.9282 15.1038L91.7195 22.1629ZM86.9282 32.3644C86.9301 32.3701 88.5528 34.6107 88.5528 34.6107C90.1179 37.0485 92.1276 38.2079 94.5223 38.2165C97.0062 38.1726 98.7749 35.9864 99.424 35.2209C99.424 35.2199 98.1978 34.1483 96.6788 32.3577C94.6115 29.9189 91.8251 25.4893 91.7195 25.2986L86.9292 32.3654V32.3635L86.9282 32.3644ZM63.2349 29.4975C61.6391 30.96 60.5503 31.8067 58.2814 31.8067C54.2621 31.8067 52.0085 29.0208 51.6792 25.9098H72.8453C72.9788 25.4846 73.0662 24.9564 73.0662 24.0821C73.0662 15.569 66.8001 9.18399 58.5569 9.18399C50.3148 9.18399 44.2695 15.6787 44.2695 23.8094C44.2695 31.9382 50.6979 38.2155 58.7221 38.2155C64.3257 38.2155 69.1621 35.0311 71.8218 29.4975H63.2349ZM58.6088 15.63C62.1134 15.63 64.7357 17.9259 65.3396 20.9263H51.9385C52.6634 17.7457 55.1032 15.63 58.6088 15.63Z" fill="#2D2B2B"/>
</svg>
