<svg width="164" height="48" viewBox="0 0 164 48" fill="none" xmlns="http://www.w3.org/2000/svg">
<path d="M37.6787 10.0098C46.9057 10.0099 50.96 16.981 50.4863 25.0547H31.123C31.4831 28.3895 34.1544 30.9892 37.6689 30.9893C41.1836 30.9893 42.747 29.8021 44.3291 27.2773C46.2143 28.2006 48.1089 29.1337 49.9941 30.0664C49.7952 30.3867 46.9908 37 37.6689 37C30.0524 37 24.4062 31.0084 24.4062 23.5C24.4063 16.2554 29.9671 10 37.6689 10L37.6787 10.0098ZM135.155 10.0098C144.382 10.0099 148.437 16.981 147.963 25.0547H128.6C128.96 28.3895 131.631 30.9892 135.146 30.9893C138.66 30.9893 140.224 29.8021 141.806 27.2773C143.691 28.2006 145.586 29.1337 147.471 30.0664C147.272 30.3867 144.467 37 135.146 37C127.529 37 121.883 31.0084 121.883 23.5C121.883 16.2554 127.444 10 135.146 10L135.155 10.0098ZM23.0107 16.6133H14.7031V36.1621H7.8916V16.623H0V10.8291H23.0107V16.6133ZM63.9609 26.7031L69.0098 10.8291H76.0205L81.126 26.7031L85.2852 10.8291H92.8262L84.6602 36.1621H77.6875L72.5908 20.1836H72.2305L67.1338 36.1621H60.2656L52.1094 10.8291H59.7549L63.9609 26.7031ZM103.108 21.1445L111.947 10.8291H120.369V11.2432L111.635 21.4277L121.184 35.7568V36.1621H113.131L107.163 26.6465L103.108 31.376V36.1621H96.2969V10.8291H103.108V21.1445ZM37.6689 15.5303C34.647 15.5303 32.2308 17.4611 31.4824 20.2402H43.8076C43.5139 17.7438 41.1361 15.5303 37.6689 15.5303ZM135.146 15.5303C132.124 15.5303 129.707 17.4611 128.959 20.2402H141.284C140.99 17.7438 138.613 15.5303 135.146 15.5303Z" fill="#2D2B2B"/>
</svg>
