<svg height="1024pt" preserveAspectRatio="xMidYMid meet" viewBox="0 0 1024 1024" width="1024pt" xmlns="http://www.w3.org/2000/svg"><g transform="matrix(.1 0 0 -.1 0 1024)"><path d="m1760 5120v-5120h2079 2080l3 33c2 17 0 47-3 65-4 17-4 32 0 32 5 0 5 208 1 445v98c1 42-2 82-5 87-3 6-3 10 2 10 4 0 7 66 6 147-4 201-4 241-3 293 1 25 1 50 1 56-1 9-53 17-101 15-59-2-144 0-151 5-5 3-9 1-9-3 0-5-25-6-56-3-30 3-57 2-60-2-3-5-9-6-15-3-5 3-39 6-76 5-64-1-86-1-115 1-14 0-86 0-226-1-46 0-88-3-93-6s-9-2-9 3c0 7-70 8-260 4-19-1-57-1-84-1-26 0-51-2-55-4-4-3-13-1-19 3-7 4-33 5-58 1-24-4-47-4-49 0-2 3-29 3-59 0-31-3-56-4-56-1 0 5-82 5-260 2-85-2-136-3-147-2-31 2-43 2-136 0-54-1-100 0-102 3-2 2-29 1-60-2-30-3-55-2-55 3 0 4-4 6-9 2-5-3-45-5-88-5-43 1-89 0-103 0-14-1-31-2-37-1-7 0-33 0-58 0s-53 0-62 0c-10 0-38 0-63 0s-52 0-60 0c-8 1-31 1-51 1-36 0-37 1-37 40 0 22-4 44-7 50-3 5-3 10 2 10 7 0 9 73 3 141-1 13-1 29 0 34 1 6 1 28 1 50-1 22-1 47-1 55s0 31-1 50v45c0 17 1 239 0 255 0 8 2 50 3 93 2 42 0 77-3 77s-3 20 1 45c4 24 3 50-1 56-4 7-3 22 1 35 5 12 6 24 3 27s-4 30-4 59c2 75 3 252 1 261s-2 115 0 125c4 22 0 164-5 172-4 6-3 10 2 10 4 0 7 35 5 77-1 43-2 88-2 101v60 57c1 11 1 27 1 35v215c0 55 0 103-1 108-2 9-2 114 0 125 1 4 1 50 0 102-1 113-1 102 2 168 2 28-1 52-5 52-5 0-6 4-3 9 5 7 6 46 5 191 0 8 1 38 1 65 1 28 1 55 0 60-1 6-2 13-1 17 2 12 3 162 1 171s-2 114 0 125c4 22 0 164-5 172-4 6-3 10 2 10 4 0 7 35 5 77-1 43-2 88-2 101v60 57c1 11 1 27 1 35v215c0 55 0 103-1 108-2 9-2 114 0 125 1 4 1 50 0 102-1 113-1 102 2 168 2 28-1 52-5 52-5 0-6 4-3 9 5 7 6 46 5 191 0 8 1 38 1 65 1 28 1 55 0 60-1 6-2 13-1 17 2 12 3 162 1 171s-2 114 0 125c4 22 0 164-5 172-4 6-3 10 2 10 4 0 7 35 5 77-1 43-2 88-2 101v60 57c1 11 1 27 1 35v215c0 55 0 103-1 108-2 9-2 114 0 125 0 4 1 45 0 92-1 105-1 90 2 183 2 42 0 77-3 77s-3 20 1 45c4 24 3 50-1 56-4 7-3 22 1 35 5 12 6 24 3 27s-4 30-4 59c1 43 1 127 0 251 0 6 2 47 3 90 2 42 0 77-3 77s-3 20 1 45c4 24 3 50-1 56-4 7-3 22 1 35 5 12 6 24 3 27s-4 30-4 59c1 43 1 127 0 251 0 6 2 47 3 90 2 42 0 77-3 77s-3 20 1 45c4 24 3 50-1 56-4 7-3 22 1 35 5 12 6 24 3 27s-4 30-4 59c1 43 1 127 0 251 0 6 2 47 3 90 2 42 0 77-3 77s-3 20 1 45c4 24 3 50-1 56-4 7-3 22 1 35 5 12 6 24 3 27s-4 27-4 54c1 26 2 73 3 103l1 55-641 3-642 2z"/><path d="m7199 10235c-1-9 0-95 1-100 2-7 2-113 0-122-4-23 0-165 5-173 4-6 3-10-2-10-4 0-7-35-5-77 1-43 2-88 2-100 0-13 0-40 0-60 0-21 0-47 0-58-1-11-1-27-1-35 0-23 0-104 0-215 0-55 0-103 1-107 2-10 2-115 0-125-1-5-1-51 0-103 1-113 1-102-2-168-2-28 1-52 5-52 5 0 6-4 3-9-5-7-6-46-5-191 0-8-1-37-1-65-1-27-1-54 0-60 1-5 2-13 1-17-2-12-3-162-1-170 2-10 2-115 0-125-4-23 0-165 5-173 4-6 3-10-2-10-4 0-7-35-5-77 1-43 2-88 2-100 0-13 0-40 0-60 0-21 0-47 0-58-1-11-1-27-1-35 0-23 0-104 0-215 0-55 0-103 1-107 2-10 2-115 0-125-1-5-1-51 0-103 1-113 1-102-2-168-2-28 1-52 5-52 5 0 6-4 3-9-5-7-6-46-5-191 0-8-1-37-1-65-1-27-1-54 0-60 1-5 2-13 1-17-2-12-3-162-1-170 2-10 2-115 0-125-4-23 0-165 5-173 4-6 3-10-2-10-8 0-8-152 0-174 2-6 1-21-4-33-7-19-15-21-63-20-31 1-56-1-56-6 0-4-5-5-11-2-16 11-69 12-69 2 0-4-5-5-12-1-17 11-108 11-108 1 0-5-5-5-12-1-17 11-108 11-108 1 0-5-5-5-12-1-17 11-108 11-108 1 0-5-5-5-12-1-17 11-108 11-108 1 0-5-5-5-12-1-17 11-108 11-108 1 0-5-5-5-12-1-17 11-108 11-108 1 0-5-5-5-12-1-17 11-108 11-108 1 0-5-5-5-12-1-17 11-108 11-108 0 0-5-6-4-12 1-7 5-38 7-68 6-64-3-56-3-190 0-58 1-113-1-122-6-10-4-18-4-18 0 0 10-122 9-138 0-6-4-13-4-15 0-6 10-140 8-156-1-6-4-11-4-11 1 0 9-122 9-137 0-6-4-13-4-16 0-9 9-100 8-115-1-6-4-12-4-12 1 0 10-91 10-108-1-7-4-12-4-12 1 0 10-121 10-138-1-7-4-12-4-12 1 0 7-57 9-117 4-9-1-10-8-3-26 5-13 6-26 2-29-4-2-6-24-4-48s3-47 3-53c-2-80-3-242-1-250 1-5 2-12 1-15-6-16-5-160 1-160 4 0 3-14-2-31-5-18-5-40 0-55 5-13 6-24 2-24-8 0-7-78 1-86 2-3 1-20-3-38-4-19-4-40 1-47 4-7 5-17 2-23-9-14-9-146-1-146 4 0 4-10-1-22-4-13-5-35-1-50 5-14 6-29 3-31-5-5-7-82-3-102 1-5 2-18 1-27-1-10 1-18 6-19 48-5 103-2 103 5 0 5 6 5 13 0 15-11 38-11 55-1 6 5 12 4 12 0 0-5 26-7 58-6 31 2 64 3 72 3s69-1 135-3c66-1 128 1 138 6 9 4 17 4 17 0 0-10 122-9 138 0 6 4 13 4 15 0 6-10 140-8 156 1 6 4 11 4 11-1 0-9 122-9 137 0 6 4 13 4 16 0 10-9 77-9 77 0 0 5 5 5 12 1 17-11 108-11 108-1 0 5 5 5 12 1 17-11 108-11 108-1 0 5 5 5 12 1 17-11 108-11 108-1 0 5 5 5 12 1 17-11 108-11 108-1 0 5 5 5 12 1 17-11 108-11 108-1 0 5 5 5 12 1 17-11 108-11 108-1 0 5 5 5 12 1 17-11 108-11 108-1 0 5 5 5 12 1 17-11 108-11 108 0 0 5 6 4 13-1 6-5 37-7 67-6 64 3 56 3 190 0 58-1 113 1 123 6 10 4 17 4 17-2s6-8 14-5c15 6 17-3 15-58 0-13 0-30 0-38 0-23 0-104 0-215 0-55 0-103 1-107 2-10 2-115 0-125-1-5-1-51 0-103 1-113 1-102-2-168-2-28 1-52 5-52 5 0 6-4 3-9-5-7-6-46-5-191 0-8-1-37-1-65-1-27-1-54 0-60 1-5 2-13 1-17-2-12-3-162-1-170 2-10 2-115 0-125-4-23 0-165 5-173 4-6 3-10-2-10-4 0-7-35-5-77 1-43 2-88 2-100 0-13 0-40 0-60 0-21 0-47 0-58-1-11-1-27-1-35 0-23 0-104 0-215 0-55 0-103 1-107 2-10 2-115 0-125-1-5-1-51 0-103 1-113 1-102-2-168-2-28 1-52 5-52 5 0 6-4 3-9-5-7-6-46-5-191 0-8-1-37-1-65-1-27-1-54 0-60 1-5 2-13 1-17-2-12-3-162-1-170 2-10 2-115 0-125-4-23 0-165 5-173 4-6 3-10-2-10-4 0-7-35-5-77 1-43 2-88 2-100 0-13 0-40 0-60 0-21 0-47 0-58-1-11-1-27-1-35 0-23 0-104 0-215 0-55 0-103 1-107 3-19 2-119-1-123-3-2-3-24-1-49l4-46h639 639v5120 5120h-640c-352 0-640-2-641-5z"/></g></svg>