<svg width="24" height="24" viewBox="0 0 24 24" fill="none" xmlns="http://www.w3.org/2000/svg">
<path d="M12.125 14.25H17.375V15H12.125V14.25ZM12.125 9H17.375V9.75H12.125V9ZM9.125 10.5V7.5H8.375V7.875H7.625V8.625H8.375V10.5H7.625V11.25H9.875V10.5H9.125ZM9.875 16.5H7.625V15C7.625 14.8011 7.70402 14.6103 7.84467 14.4697C7.98532 14.329 8.17609 14.25 8.375 14.25H9.125V13.5H7.625V12.75H9.125C9.32391 12.75 9.51468 12.829 9.65533 12.9697C9.79598 13.1103 9.875 13.3011 9.875 13.5V14.25C9.875 14.4489 9.79598 14.6397 9.65533 14.7803C9.51468 14.921 9.32391 15 9.125 15H8.375V15.75H9.875V16.5Z" fill="#ECEFF1"/>
</svg>
