<svg width="32" height="32" viewBox="0 0 32 32" fill="none" xmlns="http://www.w3.org/2000/svg">
<path d="M10 14.5C10.8283 14.5 11.5 15.1717 11.5 16C11.5 16.8283 10.8283 17.5 10 17.5C9.17165 17.5 8.50005 16.8283 8.5 16C8.5 15.1716 9.17162 14.5 10 14.5ZM16 14.5C16.8282 14.5002 17.499 15.1718 17.499 16C17.499 16.8282 16.8281 17.4998 16 17.5C15.1717 17.5 14.5 16.8283 14.5 16C14.5 15.1716 15.1716 14.5 16 14.5ZM21.999 14.5C22.8274 14.5 23.499 15.1716 23.499 16C23.499 16.8283 22.8274 17.5 21.999 17.5C21.1708 17.4999 20.4991 16.8283 20.499 16C20.499 15.1717 21.1707 14.5001 21.999 14.5Z" fill="#ECEFF1"/>
</svg>
