<svg width="32" height="32" viewBox="0 0 32 32" fill="none" xmlns="http://www.w3.org/2000/svg">
<path d="M13.8462 12.7726H11.0354C11.7318 11.7034 12.7555 10.8876 13.9537 10.447C15.152 10.0063 16.4608 9.96423 17.685 10.3271C18.9091 10.69 19.9831 11.4383 20.7468 12.4606C21.5106 13.4829 21.9232 14.7244 21.9231 16H23C23.0015 14.5614 22.5587 13.1573 21.7322 11.9792C20.9056 10.8011 19.7354 9.90639 18.3812 9.41702C17.0269 8.92764 15.5546 8.86743 14.1648 9.2446C12.7751 9.62177 11.5356 10.418 10.6154 11.5246V9.54511H9.53846V13.8484H13.8462V12.7726ZM18.1538 19.2274H20.9646C20.2682 20.2966 19.2445 21.1124 18.0463 21.553C16.848 21.9937 15.5392 22.0358 14.315 21.6729C13.0909 21.31 12.0169 20.5617 11.2532 19.5394C10.4894 18.5171 10.0768 17.2756 10.0769 16H9C8.99852 17.4386 9.44125 18.8427 10.2678 20.0208C11.0944 21.1989 12.2646 22.0936 13.6188 22.583C14.9731 23.0724 16.4454 23.1326 17.8352 22.7554C19.2249 22.3782 20.4644 21.582 21.3846 20.4754V22.4549H22.4615V18.1516H18.1538V19.2274Z" fill="#ECEFF1"/>
</svg>
